<svg xmlns="http://www.w3.org/2000/svg" viewBox="193.69 237.03 973.45 375.66" preserveAspectRatio="xMidYMid meet">
  <g fill="#ffffff" fill-opacity="1"><g transform="translate(200.435329, 600.533413)"><path d="M -0.988281 -0.6875 L 33.585938 -358.503906 L 165.613281 -358.503906 L 200.519531 7.15625 L 119.410156 7.15625 L 113.9375 -56.238281 L 121.070312 -56.851562 L 121.070312 -49.695312 L 78.53125 -49.695312 L 78.53125 -56.851562 L 85.671875 -56.339844 L 81.101562 7.15625 L -1.746094 7.15625 Z M 13.261719 0.6875 L 6.136719 0 L 6.136719 -7.15625 L 74.441406 -7.15625 L 74.441406 0 L 67.300781 -0.511719 L 71.871094 -64.011719 L 127.636719 -64.011719 L 133.109375 -0.617188 L 125.976562 0 L 125.976562 -7.15625 L 192.648438 -7.15625 L 192.648438 0 L 185.523438 0.679688 L 151.984375 -350.667969 L 159.109375 -351.347656 L 159.109375 -344.1875 L 40.082031 -344.1875 L 40.082031 -351.347656 L 47.207031 -350.65625 Z M 83.847656 -120.046875 L 115.753906 -120.046875 L 115.753906 -112.890625 L 108.621094 -112.269531 L 93.078125 -291.007812 L 100.210938 -291.628906 L 100.210938 -284.472656 L 96.9375 -284.472656 L 96.9375 -291.628906 L 104.074219 -291.105469 L 90.988281 -112.367188 L 83.847656 -112.890625 Z M 76.148438 -105.730469 L 90.285156 -298.789062 L 106.773438 -298.789062 L 123.558594 -105.730469 Z M 76.148438 -105.730469 "/></g></g>
  <g fill="#ffffff" fill-opacity="1"><g transform="translate(419.259645, 600.533413)"><path d="M 8.386719 0 L 8.386719 -358.503906 L 92.234375 -358.503906 L 92.234375 -210.644531 L 85.074219 -210.644531 L 78.105469 -212.265625 L 112.113281 -358.503906 L 197.675781 -358.503906 L 156.246094 -188.902344 L 149.292969 -190.601562 L 156.238281 -192.332031 L 205.894531 7.15625 L 118.210938 7.15625 L 78.503906 -168.574219 L 85.484375 -170.152344 L 92.640625 -170.152344 L 92.640625 7.15625 L 8.386719 7.15625 Z M 22.699219 0 L 15.542969 0 L 15.542969 -7.15625 L 85.484375 -7.15625 L 85.484375 0 L 78.328125 0 L 78.328125 -170.152344 L 92.464844 -171.730469 L 130.914062 -1.578125 L 123.933594 0 L 123.933594 -7.15625 L 196.738281 -7.15625 L 196.738281 0 L 189.792969 1.730469 L 141.917969 -190.585938 L 181.605469 -353.042969 L 188.558594 -351.347656 L 188.558594 -344.1875 L 117.796875 -344.1875 L 117.796875 -351.347656 L 124.769531 -349.726562 L 92.046875 -209.023438 L 77.917969 -210.644531 L 77.917969 -351.347656 L 85.074219 -351.347656 L 85.074219 -344.1875 L 15.542969 -344.1875 L 15.542969 -351.347656 L 22.699219 -351.347656 Z M 22.699219 0 "/></g></g>
  <g fill="#ffffff" fill-opacity="1"><g transform="translate(632.7667, 600.533413)"><path d="M 5.113281 -358.503906 L 87.324219 -358.503906 L 87.324219 7.15625 L 5.113281 7.15625 Z M 19.429688 -344.1875 L 19.429688 -7.15625 L 73.007812 -7.15625 L 73.007812 -344.1875 Z M 19.429688 -344.1875 "/></g></g>
  <g fill="#ffffff" fill-opacity="1"><g transform="translate(746.064529, 600.533413)"><path d="M 15.542969 -358.503906 L 123.523438 -358.503906 C 142.417969 -358.503906 157.230469 -354.070312 167.960938 -345.207031 C 178.609375 -336.410156 185.753906 -324.203125 189.394531 -308.59375 C 192.789062 -294.015625 194.488281 -275.542969 194.488281 -253.183594 C 194.488281 -232.222656 191.675781 -215.679688 186.054688 -203.542969 C 180.015625 -190.511719 169.621094 -181.484375 154.871094 -176.464844 L 152.5625 -183.238281 L 154.003906 -190.25 C 166.765625 -187.632812 176.066406 -181.152344 181.90625 -170.808594 C 187.292969 -161.261719 189.988281 -148.636719 189.988281 -132.929688 L 189.125 7.15625 L 106.140625 7.15625 L 106.140625 -137.429688 C 106.140625 -141.628906 105.765625 -144.957031 105.019531 -147.410156 C 104.535156 -148.996094 104 -150 103.410156 -150.421875 C 100.839844 -152.257812 95.273438 -153.175781 86.710938 -153.175781 L 86.710938 -160.335938 L 93.871094 -160.335938 L 93.871094 7.15625 L 8.386719 7.15625 L 8.386719 -358.503906 Z M 15.542969 -344.1875 L 15.542969 -351.347656 L 22.699219 -351.347656 L 22.699219 0 L 15.542969 0 L 15.542969 -7.15625 L 86.710938 -7.15625 L 86.710938 0 L 79.554688 0 L 79.554688 -167.492188 L 86.710938 -167.492188 C 98.332031 -167.492188 106.671875 -165.683594 111.730469 -162.070312 C 117.546875 -157.914062 120.457031 -149.703125 120.457031 -137.429688 L 120.457031 0 L 113.296875 0 L 113.296875 -7.15625 L 182.011719 -7.15625 L 182.011719 0 L 174.855469 -0.0429688 L 175.671875 -132.929688 C 175.671875 -146.128906 173.59375 -156.410156 169.441406 -163.769531 C 165.734375 -170.332031 159.632812 -174.484375 151.125 -176.226562 L 125.308594 -181.523438 L 150.257812 -190.015625 C 161.140625 -193.722656 168.742188 -200.238281 173.0625 -209.5625 C 177.804688 -219.789062 180.171875 -234.328125 180.171875 -253.183594 C 180.171875 -274.449219 178.597656 -291.835938 175.449219 -305.34375 C 172.542969 -317.816406 167.007812 -327.425781 158.84375 -334.171875 C 150.757812 -340.847656 138.984375 -344.1875 123.523438 -344.1875 Z M 103.890625 -228.4375 C 105.746094 -228.4375 107.261719 -229.710938 108.433594 -232.253906 C 110.449219 -236.621094 111.457031 -243.59375 111.457031 -253.183594 C 111.457031 -262.035156 111.085938 -268.574219 110.339844 -272.796875 C 109.832031 -275.679688 109.175781 -277.449219 108.375 -278.097656 C 107.507812 -278.800781 105.878906 -279.15625 103.480469 -279.15625 L 87.121094 -279.15625 L 87.121094 -286.3125 L 94.277344 -286.3125 L 94.277344 -221.277344 L 87.121094 -221.277344 L 87.121094 -228.4375 Z M 103.890625 -214.121094 L 79.964844 -214.121094 L 79.964844 -293.46875 L 103.480469 -293.46875 C 109.265625 -293.46875 113.90625 -292.050781 117.402344 -289.210938 C 120.964844 -286.316406 123.308594 -281.671875 124.4375 -275.285156 C 125.328125 -270.238281 125.773438 -262.871094 125.773438 -253.183594 C 125.773438 -227.140625 118.480469 -214.121094 103.890625 -214.121094 Z M 103.890625 -214.121094 "/></g></g>
  <g fill="#ffffff" fill-opacity="1"><g transform="translate(961.616702, 600.533413)"><path d="M -0.988281 -0.6875 L 33.585938 -358.503906 L 165.613281 -358.503906 L 200.519531 7.15625 L 119.410156 7.15625 L 113.9375 -56.238281 L 121.070312 -56.851562 L 121.070312 -49.695312 L 78.53125 -49.695312 L 78.53125 -56.851562 L 85.671875 -56.339844 L 81.101562 7.15625 L -1.746094 7.15625 Z M 13.261719 0.6875 L 6.136719 0 L 6.136719 -7.15625 L 74.441406 -7.15625 L 74.441406 0 L 67.300781 -0.511719 L 71.871094 -64.011719 L 127.636719 -64.011719 L 133.109375 -0.617188 L 125.976562 0 L 125.976562 -7.15625 L 192.648438 -7.15625 L 192.648438 0 L 185.523438 0.679688 L 151.984375 -350.667969 L 159.109375 -351.347656 L 159.109375 -344.1875 L 40.082031 -344.1875 L 40.082031 -351.347656 L 47.207031 -350.65625 Z M 83.847656 -120.046875 L 115.753906 -120.046875 L 115.753906 -112.890625 L 108.621094 -112.269531 L 93.078125 -291.007812 L 100.210938 -291.628906 L 100.210938 -284.472656 L 96.9375 -284.472656 L 96.9375 -291.628906 L 104.074219 -291.105469 L 90.988281 -112.367188 L 83.847656 -112.890625 Z M 76.148438 -105.730469 L 90.285156 -298.789062 L 106.773438 -298.789062 L 123.558594 -105.730469 Z M 76.148438 -105.730469 "/></g></g>
  <g fill="#ffffff" fill-opacity="1"><g transform="translate(200.435329, 600.533413)"><path d="M 6.140625 0 L 40.078125 -351.34375 L 159.109375 -351.34375 L 192.640625 0 L 125.984375 0 L 121.0625 -56.859375 L 78.53125 -56.859375 L 74.4375 0 Z M 83.84375 -112.890625 L 115.75 -112.890625 L 100.203125 -291.625 L 96.9375 -291.625 Z M 83.84375 -112.890625 "/></g></g>
  <g fill="#ffffff" fill-opacity="1"><g transform="translate(419.259645, 600.533413)"><path d="M 15.546875 0 L 15.546875 -351.34375 L 85.078125 -351.34375 L 85.078125 -210.640625 L 117.796875 -351.34375 L 188.5625 -351.34375 L 149.296875 -190.59375 L 196.734375 0 L 123.9375 0 L 85.484375 -170.15625 L 85.484375 0 Z M 15.546875 0 "/></g></g>
  <g fill="#ffffff" fill-opacity="1"><g transform="translate(632.7667, 600.533413)"><path d="M 12.265625 0 L 12.265625 -351.34375 L 80.171875 -351.34375 L 80.171875 0 Z M 12.265625 0 "/></g></g>
  <g fill="#ffffff" fill-opacity="1"><g transform="translate(746.064529, 600.533413)"><path d="M 15.546875 -351.34375 L 123.515625 -351.34375 C 140.703125 -351.34375 154 -347.457031 163.40625 -339.6875 C 172.8125 -331.914062 179.148438 -321.007812 182.421875 -306.96875 C 185.691406 -292.925781 187.328125 -275 187.328125 -253.1875 C 187.328125 -233.28125 184.734375 -217.734375 179.546875 -206.546875 C 174.367188 -195.367188 165.375 -187.597656 152.5625 -183.234375 C 163.195312 -181.054688 170.898438 -175.738281 175.671875 -167.28125 C 180.441406 -158.832031 182.828125 -147.382812 182.828125 -132.9375 L 182.015625 0 L 113.296875 0 L 113.296875 -137.421875 C 113.296875 -147.242188 111.382812 -153.515625 107.5625 -156.234375 C 103.75 -158.960938 96.800781 -160.328125 86.71875 -160.328125 L 86.71875 0 L 15.546875 0 Z M 103.890625 -221.28125 C 113.703125 -221.28125 118.609375 -231.914062 118.609375 -253.1875 C 118.609375 -262.457031 118.195312 -269.410156 117.375 -274.046875 C 116.5625 -278.679688 115.0625 -281.882812 112.875 -283.65625 C 110.695312 -285.425781 107.566406 -286.3125 103.484375 -286.3125 L 87.125 -286.3125 L 87.125 -221.28125 Z M 103.890625 -221.28125 "/></g></g>
  <g fill="#ffffff" fill-opacity="1"><g transform="translate(961.616702, 600.533413)"><path d="M 6.140625 0 L 40.078125 -351.34375 L 159.109375 -351.34375 L 192.640625 0 L 125.984375 0 L 121.0625 -56.859375 L 78.53125 -56.859375 L 74.4375 0 Z M 83.84375 -112.890625 L 115.75 -112.890625 L 100.203125 -291.625 L 96.9375 -291.625 Z M 83.84375 -112.890625 "/></g></g>
</svg>
