<svg xmlns="http://www.w3.org/2000/svg" viewBox="339.54 392.66 682.47 130.93" preserveAspectRatio="xMidYMid meet">
  <defs>
    <clipPath id="33fa559e82"><rect x="0" width="681" y="0" height="189"/></clipPath>
    <clipPath id="f01d326619"><rect x="0" width="273" y="0" height="189"/></clipPath>
  </defs>
  <g transform="matrix(1, 0, 0, 1, 338, 362)">
    <g clip-path="url(#33fa559e82)">
      <g fill="#E62343" fill-opacity="1"><g transform="translate(0.863622, 148.04337)"><path d="M 57.703125 2.953125 L 56.359375 2.015625 C 55.910156 1.023438 55.773438 -0.09375 55.953125 -1.34375 L 55.421875 -1.34375 L 54.34375 -1.203125 L 53.140625 -1.875 C 52.691406 -2.5 52.46875 -3.171875 52.46875 -3.890625 C 51.664062 -3.890625 51.039062 -4.203125 50.59375 -4.828125 C 50.320312 -6.171875 50.160156 -7.554688 50.109375 -8.984375 C 50.066406 -10.421875 49.957031 -11.8125 49.78125 -13.15625 L 49.921875 -13.28125 L 49.921875 -19.328125 L 50.3125 -30.1875 L 50.1875 -30.59375 L 50.3125 -30.734375 L 50.3125 -36.359375 L 50.1875 -36.5 L 50.1875 -45.75 L 50.046875 -45.890625 L 50.046875 -53.40625 L 49.921875 -53.546875 L 49.921875 -59.4375 L 49.78125 -64.40625 L 48.984375 -64.40625 C 44.148438 -64.050781 39.335938 -63.625 34.546875 -63.125 C 29.765625 -62.632812 25.003906 -62.035156 20.265625 -61.328125 L 18.921875 -62.390625 L 18.65625 -63.203125 L 17.3125 -63.203125 L 13.421875 -62.796875 C 11.984375 -63.597656 10.503906 -64.359375 8.984375 -65.078125 C 8.628906 -65.617188 8.5 -66.289062 8.59375 -67.09375 L 9.9375 -68.5625 L 10.328125 -68.5625 L 10.328125 -68.84375 C 9.171875 -69.914062 7.832031 -70.675781 6.3125 -71.125 C 5.863281 -71.65625 5.679688 -72.28125 5.765625 -73 L 6.4375 -74.203125 C 13.414062 -75.816406 20.503906 -76.976562 27.703125 -77.6875 C 34.910156 -78.40625 42.09375 -79.078125 49.25 -79.703125 L 49.375 -79.84375 L 49.375 -86.28125 L 49.25 -86.421875 L 49.25 -95.140625 L 49.109375 -99.4375 L 49.25 -100.5 L 48.984375 -102.109375 L 49.921875 -103.59375 C 50.453125 -103.945312 51.078125 -104.082031 51.796875 -104 C 51.523438 -105.25 51.835938 -106.273438 52.734375 -107.078125 C 53.804688 -107.878906 55.101562 -108.328125 56.625 -108.421875 L 58.109375 -107.609375 L 58.765625 -108.6875 L 60.515625 -109.234375 L 62 -108.28125 C 62.445312 -107.125 62.578125 -105.828125 62.390625 -104.390625 L 62.265625 -101.71875 C 63.160156 -101.800781 63.875 -101.488281 64.40625 -100.78125 C 64.769531 -99.882812 64.953125 -98.941406 64.953125 -97.953125 L 65.21875 -97.953125 C 65.664062 -98.316406 66.203125 -98.5 66.828125 -98.5 L 68.296875 -97.6875 C 68.742188 -97.144531 68.925781 -96.519531 68.84375 -95.8125 L 67.890625 -81.3125 L 69.90625 -81.3125 L 79.03125 -81.859375 L 79.03125 -82.25 L 78.765625 -83.1875 L 79.84375 -85.203125 C 80.46875 -85.566406 81.226562 -85.703125 82.125 -85.609375 C 82.75 -88.203125 83.441406 -90.796875 84.203125 -93.390625 C 84.960938 -95.984375 85.703125 -98.535156 86.421875 -101.046875 C 84.804688 -101.671875 83.285156 -102.519531 81.859375 -103.59375 C 81.492188 -104.125 81.359375 -104.796875 81.453125 -105.609375 L 82.25 -106.8125 L 84 -107.34375 L 88.15625 -106.140625 L 89.765625 -108.015625 L 91.515625 -108.15625 L 92.859375 -106.953125 L 93.125 -105.734375 C 95.363281 -104.304688 97.734375 -103.1875 100.234375 -102.375 C 102.742188 -101.570312 105.25 -100.722656 107.75 -99.828125 L 108.6875 -101.71875 C 109.675781 -102.789062 110.796875 -103.414062 112.046875 -103.59375 L 113.515625 -102.65625 L 113.921875 -101.578125 C 114.722656 -101.578125 115.394531 -101.265625 115.9375 -100.640625 C 116.289062 -100.015625 116.425781 -99.300781 116.34375 -98.5 C 115.269531 -94.820312 114.171875 -91.128906 113.046875 -87.421875 C 111.929688 -83.710938 110.835938 -80.023438 109.765625 -76.359375 L 110.703125 -75.28125 L 110.96875 -74.203125 C 111.507812 -73.929688 111.910156 -73.53125 112.171875 -73 L 112.3125 -71.25 L 111.640625 -70.171875 C 111.015625 -69.734375 110.300781 -69.554688 109.5 -69.640625 C 108.238281 -69.910156 107.003906 -70.269531 105.796875 -70.71875 C 104.597656 -71.164062 103.367188 -71.523438 102.109375 -71.796875 C 101.222656 -71.523438 100.285156 -71.429688 99.296875 -71.515625 L 95.671875 -72.328125 L 95.671875 -72.1875 C 96.210938 -71.5625 96.484375 -70.847656 96.484375 -70.046875 L 97.6875 -69.375 C 98.226562 -68.75 98.40625 -67.988281 98.21875 -67.09375 C 97.957031 -66.375 97.46875 -65.878906 96.75 -65.609375 L 95.265625 -65.484375 L 95.140625 -65.609375 L 81.859375 -65.609375 L 81.71875 -65.484375 L 74.34375 -65.484375 L 66.828125 -65.21875 C 66.203125 -54.570312 65.617188 -43.992188 65.078125 -33.484375 C 64.546875 -22.972656 63.875 -12.484375 63.0625 -2.015625 C 62.351562 -1.472656 61.503906 -1.289062 60.515625 -1.46875 C 60.785156 0.0507812 60.519531 1.347656 59.71875 2.421875 C 59.175781 2.867188 58.503906 3.046875 57.703125 2.953125 Z M 18.78125 -2.015625 L 16.90625 -3.359375 C 16.457031 -3.984375 16.28125 -4.742188 16.375 -5.640625 L 16.5 -6.3125 L 16.234375 -6.3125 C 15.703125 -5.945312 15.03125 -5.8125 14.21875 -5.90625 L 13.15625 -6.578125 L 12.75 -7.375 L 12.484375 -7.375 L 11.546875 -5.640625 L 9.796875 -5.09375 L 8.453125 -5.765625 C 8.003906 -6.304688 7.78125 -6.9375 7.78125 -7.65625 C 10.289062 -15.34375 13.019531 -22.960938 15.96875 -30.515625 C 18.914062 -38.078125 22.222656 -45.484375 25.890625 -52.734375 L 27.640625 -53.40625 L 29.125 -52.734375 L 29.515625 -52.0625 L 30.859375 -51.65625 L 31.53125 -53 C 32.15625 -53.539062 32.914062 -53.722656 33.8125 -53.546875 C 34.53125 -53.273438 35.023438 -52.738281 35.296875 -51.9375 L 35.421875 -50.984375 L 34.75 -47.90625 L 35.96875 -47.234375 C 36.320312 -46.609375 36.453125 -45.894531 36.359375 -45.09375 L 36.09375 -44.140625 L 37.4375 -43.46875 C 37.882812 -42.84375 38.0625 -42.128906 37.96875 -41.328125 C 36.09375 -35.242188 34.210938 -29.140625 32.328125 -23.015625 C 30.453125 -16.890625 28.710938 -10.785156 27.109375 -4.703125 L 26.4375 -4.15625 C 26.4375 -3.625 26.253906 -3.132812 25.890625 -2.6875 C 25.359375 -2.144531 24.691406 -1.921875 23.890625 -2.015625 L 22.40625 -2.953125 L 21.46875 -4.03125 L 20.796875 -2.546875 C 20.265625 -2.097656 19.59375 -1.921875 18.78125 -2.015625 Z M 84.671875 -6.984375 L 83.328125 -7.65625 C 82.253906 -14.363281 80.976562 -21.023438 79.5 -27.640625 C 78.03125 -34.265625 76.3125 -40.84375 74.34375 -47.375 C 74.601562 -48.082031 75.09375 -48.617188 75.8125 -48.984375 L 76.890625 -49.375 C 77.242188 -49.914062 77.691406 -50.273438 78.234375 -50.453125 L 79.4375 -50.453125 L 79.84375 -50.3125 C 80.375 -50.675781 80.953125 -50.8125 81.578125 -50.71875 L 83.46875 -49.515625 C 84.09375 -50.046875 84.851562 -50.222656 85.75 -50.046875 L 86.015625 -50.59375 C 86.546875 -51.039062 87.21875 -51.21875 88.03125 -51.125 L 89.375 -50.1875 C 91.78125 -43.382812 94.367188 -36.695312 97.140625 -30.125 C 99.921875 -23.550781 102.335938 -16.820312 104.390625 -9.9375 L 103.59375 -8.453125 C 103.050781 -8.003906 102.425781 -7.828125 101.71875 -7.921875 L 100.234375 -8.859375 L 99.4375 -11.40625 C 98.8125 -11.5 98.226562 -11.632812 97.6875 -11.8125 C 97.59375 -10.375 97.191406 -9.03125 96.484375 -7.78125 C 95.941406 -7.332031 95.3125 -7.15625 94.59375 -7.25 L 93.265625 -8.046875 L 92.859375 -8.59375 L 92.453125 -8.59375 L 91.515625 -8.453125 L 90.703125 -8.59375 C 90.078125 -7.96875 89.316406 -7.742188 88.421875 -7.921875 L 87.09375 -8.71875 L 86.421875 -7.515625 C 85.878906 -7.160156 85.296875 -6.984375 84.671875 -6.984375 Z M 102.109375 -80.25 L 102.109375 -81.046875 C 102.472656 -82.835938 102.878906 -84.582031 103.328125 -86.28125 C 103.773438 -87.976562 104.222656 -89.675781 104.671875 -91.375 C 102.878906 -92 101.109375 -92.671875 99.359375 -93.390625 C 97.617188 -94.109375 95.898438 -94.867188 94.203125 -95.671875 L 91.375 -84.265625 C 93.257812 -83.734375 95.070312 -83.109375 96.8125 -82.390625 C 98.5625 -81.671875 100.328125 -80.957031 102.109375 -80.25 Z M 102.109375 -80.25 "/></g></g>
      <g fill="#E62343" fill-opacity="1"><g transform="translate(116.36967, 148.04337)"><path d="M 14.21875 -38.78125 C 13.238281 -38.863281 12.347656 -39.222656 11.546875 -39.859375 L 11.140625 -40.921875 L 8.1875 -40.921875 L 4.828125 -40.65625 L 3.09375 -41.734375 C 2.550781 -42.453125 2.367188 -43.253906 2.546875 -44.140625 L 3.484375 -45.484375 L 5.375 -46.03125 L 5.375 -46.296875 L 5.09375 -47.640625 C 5.1875 -48.347656 5.546875 -48.925781 6.171875 -49.375 C 19.054688 -52.15625 32.207031 -53.988281 45.625 -54.875 C 59.039062 -55.769531 72.414062 -56.441406 85.75 -56.890625 L 87.09375 -55.953125 C 87.445312 -55.421875 87.625 -54.75 87.625 -53.9375 L 86.8125 -52.203125 C 88.332031 -52.460938 89.585938 -52.148438 90.578125 -51.265625 C 91.023438 -50.628906 91.203125 -49.867188 91.109375 -48.984375 L 90.4375 -47.765625 C 90.082031 -47.679688 89.945312 -47.414062 90.03125 -46.96875 L 90.3125 -46.03125 C 91.5625 -45.9375 92.859375 -45.910156 94.203125 -45.953125 C 95.546875 -46.003906 96.707031 -45.671875 97.6875 -44.953125 C 98.132812 -44.328125 98.3125 -43.613281 98.21875 -42.8125 L 97.28125 -41.328125 L 96.34375 -40.65625 L 88.96875 -40.65625 L 88.828125 -40.921875 L 61.71875 -40.921875 L 61.59375 -40.65625 L 55.828125 -40.65625 C 48.847656 -40.476562 41.890625 -40.164062 34.953125 -39.71875 C 28.023438 -39.269531 21.113281 -38.957031 14.21875 -38.78125 Z M 14.21875 -38.78125 "/></g></g>
      <g fill="#E62343" fill-opacity="1"><g transform="translate(210.272495, 148.04337)"><path d="M 12.34375 3.890625 L 11.265625 3.21875 C 10.734375 2.414062 10.554688 1.476562 10.734375 0.40625 L 11 -2.953125 C 9.570312 -3.847656 8.050781 -4.472656 6.4375 -4.828125 C 5.90625 -5.453125 5.679688 -6.257812 5.765625 -7.25 L 6.3125 -13.953125 C 5.769531 -14.578125 5.585938 -15.335938 5.765625 -16.234375 C 6.128906 -20.171875 6.398438 -24.128906 6.578125 -28.109375 C 6.753906 -32.085938 6.929688 -36.09375 7.109375 -40.125 L 7.109375 -46.5625 L 7.25 -46.703125 L 7.25 -100.234375 C 7.332031 -101.671875 7.351562 -103.101562 7.3125 -104.53125 C 7.269531 -105.957031 7.648438 -107.253906 8.453125 -108.421875 C 8.992188 -108.773438 9.664062 -108.910156 10.46875 -108.828125 C 11 -108.378906 11.578125 -108.066406 12.203125 -107.890625 L 13.6875 -108.015625 L 15.03125 -106.953125 L 15.4375 -106.953125 L 16.765625 -107.890625 C 16.585938 -108.867188 16.8125 -109.71875 17.4375 -110.4375 C 18.070312 -110.882812 18.789062 -111.0625 19.59375 -110.96875 L 21.0625 -109.765625 L 22.671875 -109.625 C 23.210938 -110.070312 23.882812 -110.253906 24.6875 -110.171875 L 26.03125 -109.234375 C 26.382812 -108.515625 26.519531 -107.660156 26.4375 -106.671875 L 25.890625 -100.109375 L 27.234375 -98.890625 L 27.375 -93.796875 L 25.625 -66.28125 C 34.664062 -64.851562 43.632812 -63.578125 52.53125 -62.453125 C 61.4375 -61.335938 70.226562 -59.753906 78.90625 -57.703125 C 79.351562 -57.078125 79.53125 -56.359375 79.4375 -55.546875 C 78.8125 -54.660156 78.546875 -53.585938 78.640625 -52.328125 L 79.96875 -51.53125 C 80.332031 -50.90625 80.46875 -50.1875 80.375 -49.375 L 79.171875 -48.03125 L 77.5625 -47.90625 L 76.21875 -48.171875 L 76.21875 -47.90625 C 77.382812 -47.550781 78.59375 -47.28125 79.84375 -47.09375 C 81.09375 -46.914062 82.253906 -46.515625 83.328125 -45.890625 L 83.859375 -44.28125 L 82.921875 -42.671875 C 82.296875 -42.316406 81.582031 -42.179688 80.78125 -42.265625 L 75.140625 -43.46875 L 74.875 -42.8125 C 74.25 -42.269531 73.488281 -42.046875 72.59375 -42.140625 C 64.71875 -44.191406 56.820312 -46.203125 48.90625 -48.171875 C 40.988281 -50.140625 33.050781 -52.019531 25.09375 -53.8125 C 24.738281 -47.726562 24.425781 -41.664062 24.15625 -35.625 C 23.882812 -29.582031 23.257812 -23.65625 22.28125 -17.84375 L 21.875 -17.71875 C 21.695312 -16.101562 21.5625 -14.46875 21.46875 -12.8125 C 21.375 -11.15625 20.925781 -9.65625 20.125 -8.3125 L 19.328125 -7.921875 C 19.503906 -6.398438 19.191406 -5.101562 18.390625 -4.03125 C 17.753906 -3.664062 17.035156 -3.53125 16.234375 -3.625 L 15.5625 -3.890625 C 15.382812 -2.640625 15.316406 -1.34375 15.359375 0 C 15.410156 1.34375 15.078125 2.503906 14.359375 3.484375 C 13.816406 3.847656 13.144531 3.984375 12.34375 3.890625 Z M 12.34375 3.890625 "/></g></g>
      <g fill="#E62343" fill-opacity="1"><g transform="translate(292.904086, 148.04337)"><path d="M 47.90625 3.890625 L 46.5625 2.953125 C 46.207031 2.410156 46.070312 1.738281 46.15625 0.9375 L 47.09375 -0.9375 L 45.21875 -1.609375 C 44.6875 -2.148438 44.460938 -2.820312 44.546875 -3.625 L 46.828125 -8.984375 L 46.703125 -9.390625 C 51.617188 -18.960938 56.289062 -28.710938 60.71875 -38.640625 C 65.144531 -48.578125 69.773438 -58.375 74.609375 -68.03125 L 73.796875 -68.03125 C 63.773438 -67.050781 53.734375 -65.800781 43.671875 -64.28125 C 33.609375 -62.757812 23.613281 -61.101562 13.6875 -59.3125 C 13.0625 -59.394531 12.523438 -59.707031 12.078125 -60.25 L 11.546875 -61.71875 L 12.484375 -63.609375 L 13.15625 -64 L 13.15625 -64.28125 C 12.082031 -64.09375 11.1875 -64.40625 10.46875 -65.21875 L 10.0625 -66.015625 L 8.859375 -67.234375 L 8.71875 -68.703125 L 8.984375 -69.515625 C 8.359375 -69.515625 7.820312 -69.78125 7.375 -70.3125 L 6.84375 -71.515625 L 5.640625 -72.328125 L 5.09375 -74.078125 L 5.765625 -75.40625 C 18.296875 -77.5625 30.976562 -79.375 43.8125 -80.84375 C 56.644531 -82.320312 69.457031 -83.644531 82.25 -84.8125 C 82.695312 -85.695312 83.367188 -86.457031 84.265625 -87.09375 L 85.609375 -89.5 C 86.148438 -89.851562 86.820312 -89.988281 87.625 -89.90625 C 88.25 -89.632812 88.738281 -89.1875 89.09375 -88.5625 L 89.5 -88.15625 C 89.769531 -88.96875 90.304688 -89.550781 91.109375 -89.90625 L 92.453125 -89.90625 C 93.171875 -89.632812 93.664062 -89.1875 93.9375 -88.5625 L 94.0625 -87.625 L 94.328125 -87.625 C 94.773438 -87.976562 95.3125 -88.15625 95.9375 -88.15625 L 97.421875 -87.359375 C 97.867188 -86.816406 98.046875 -86.1875 97.953125 -85.46875 L 97.828125 -85.078125 C 98.535156 -84.710938 99.070312 -84.21875 99.4375 -83.59375 L 99.5625 -82.25 L 99.15625 -80.90625 L 100.109375 -79.703125 L 101.4375 -79.03125 C 101.882812 -78.5 102.066406 -77.828125 101.984375 -77.015625 C 94.460938 -63.960938 87.078125 -50.75 79.828125 -37.375 C 72.585938 -24 65.300781 -10.691406 57.96875 2.546875 C 57.34375 3.171875 56.535156 3.394531 55.546875 3.21875 L 54.609375 2.6875 C 53.984375 2.0625 53.71875 1.34375 53.8125 0.53125 L 56.09375 -3.484375 L 55.28125 -3.75 L 51.9375 2.28125 L 50.1875 2.953125 L 49.25 3.75 Z M 47.90625 3.890625 "/></g></g>
      <g fill="#E62343" fill-opacity="1"><g transform="translate(393.381791, 148.04337)"><path d="M 58.5 2.28125 L 57.03125 1.34375 C 56.675781 0.800781 56.539062 0.21875 56.625 -0.40625 L 56.359375 -0.40625 L 54.875 0 L 53.546875 -0.671875 L 52.875 -2.421875 L 53.140625 -4.296875 C 52.773438 -5.015625 52.640625 -5.816406 52.734375 -6.703125 C 53.179688 -12.160156 53.515625 -17.640625 53.734375 -23.140625 C 53.960938 -28.648438 54.164062 -34.175781 54.34375 -39.71875 L 54.34375 -48.84375 L 54.21875 -52.59375 L 53 -52.59375 C 46.113281 -51.519531 39.269531 -50.269531 32.46875 -48.84375 C 25.675781 -47.414062 18.832031 -46.070312 11.9375 -44.8125 C 11.226562 -45.351562 10.46875 -45.710938 9.65625 -45.890625 L 9.125 -45.75 C 8.40625 -45.84375 7.78125 -46.203125 7.25 -46.828125 C 6.800781 -47.816406 6.578125 -48.9375 6.578125 -50.1875 L 8.046875 -51.65625 L 8.046875 -52.0625 L 7.921875 -53.546875 L 8.71875 -55.28125 C 16.144531 -56.800781 23.613281 -58.300781 31.125 -59.78125 C 38.644531 -61.257812 46.207031 -62.441406 53.8125 -63.328125 L 53.8125 -64.40625 L 53.546875 -69.78125 L 53.546875 -77.828125 L 54.21875 -79.03125 L 55.421875 -79.578125 L 55.421875 -85.75 C 55.691406 -86.375 56.140625 -86.863281 56.765625 -87.21875 L 58.109375 -87.359375 L 59.3125 -86.6875 C 59.9375 -85.164062 60.160156 -83.460938 59.984375 -81.578125 L 60.390625 -81.578125 C 60.921875 -82.023438 61.546875 -82.207031 62.265625 -82.125 L 63.609375 -81.1875 L 64.28125 -79.578125 L 64.953125 -79.578125 L 65.890625 -79.703125 L 67.234375 -79.03125 C 67.765625 -77.957031 68.117188 -76.75 68.296875 -75.40625 L 67.5 -63.875 L 67.890625 -63.875 L 73.53125 -64.40625 C 74.332031 -63.78125 75.273438 -63.515625 76.359375 -63.609375 L 84.140625 -64.140625 L 85.34375 -63.328125 L 85.875 -61.59375 L 85.34375 -60.390625 C 84.625 -59.753906 83.773438 -59.484375 82.796875 -59.578125 C 82.617188 -58.328125 82.171875 -57.207031 81.453125 -56.21875 C 79.210938 -55.507812 76.835938 -55.085938 74.328125 -54.953125 C 71.828125 -54.816406 69.367188 -54.570312 66.953125 -54.21875 C 66.242188 -44.90625 65.707031 -35.597656 65.34375 -26.296875 C 64.988281 -16.992188 63.78125 -7.867188 61.71875 1.078125 C 60.738281 1.703125 59.664062 2.101562 58.5 2.28125 Z M 17.4375 1.203125 L 16.109375 0.53125 C 15.660156 -0.09375 15.4375 -0.804688 15.4375 -1.609375 L 13.953125 -2.546875 C 13.597656 -3.085938 13.460938 -3.710938 13.546875 -4.421875 L 13.953125 -5.5 L 13.015625 -6.171875 C 12.660156 -6.710938 12.523438 -7.296875 12.609375 -7.921875 L 12.875 -8.859375 C 11.988281 -8.765625 11.273438 -9.078125 10.734375 -9.796875 C 10.378906 -10.328125 10.242188 -10.953125 10.328125 -11.671875 C 10.773438 -12.742188 11.378906 -13.726562 12.140625 -14.625 C 12.898438 -15.519531 13.773438 -16.414062 14.765625 -17.3125 C 19.679688 -22.40625 24.6875 -27.390625 29.78125 -32.265625 C 34.882812 -37.140625 40.03125 -41.953125 45.21875 -46.703125 L 46.421875 -46.828125 C 47.585938 -46.742188 48.570312 -46.34375 49.375 -45.625 L 49.921875 -44.421875 C 50.722656 -44.148438 51.257812 -43.613281 51.53125 -42.8125 L 51.53125 -41.59375 C 47.238281 -34.4375 42.609375 -27.457031 37.640625 -20.65625 C 32.671875 -13.863281 27.863281 -6.976562 23.21875 0 C 22.675781 0.351562 22.003906 0.488281 21.203125 0.40625 L 19.859375 -0.265625 C 19.585938 0.359375 19.140625 0.804688 18.515625 1.078125 Z M 17.4375 1.203125 "/></g></g>
      <g fill="#E62343" fill-opacity="1"><g transform="translate(479.099529, 148.04337)"><path d="M 54.609375 3.359375 L 53 2.953125 L 51.65625 3.09375 L 50.59375 2.421875 C 50.050781 1.785156 49.867188 0.976562 50.046875 0 L 50.3125 -1.609375 L 48.578125 -2.421875 C 48.128906 -2.953125 47.945312 -3.578125 48.03125 -4.296875 L 49.109375 -10.875 C 48.578125 -11.5 48.398438 -12.257812 48.578125 -13.15625 C 50.628906 -29.164062 52.640625 -45.21875 54.609375 -61.3125 C 56.578125 -77.414062 58.992188 -93.390625 61.859375 -109.234375 C 62.929688 -109.671875 64.050781 -109.9375 65.21875 -110.03125 L 66.6875 -109.359375 L 67.359375 -108.5625 L 68.4375 -107.890625 C 68.882812 -107.265625 69.0625 -106.546875 68.96875 -105.734375 L 69.234375 -105.734375 C 69.503906 -107.347656 70.039062 -108.828125 70.84375 -110.171875 L 72.59375 -110.703125 L 73.9375 -110.03125 L 74.34375 -109.09375 L 75.546875 -108.421875 C 76.085938 -108.066406 76.710938 -107.84375 77.421875 -107.75 L 78.5 -106.671875 L 78.5 -106.28125 L 79.4375 -105.609375 C 79.789062 -105.066406 79.925781 -104.4375 79.84375 -103.71875 C 76.707031 -87.257812 74.242188 -70.6875 72.453125 -54 C 70.671875 -37.320312 67.945312 -20.84375 64.28125 -4.5625 C 63.832031 -4.207031 63.296875 -3.984375 62.671875 -3.890625 C 62.484375 -2.273438 62.035156 -0.800781 61.328125 0.53125 L 59.578125 1.078125 L 58.234375 0.40625 L 57.828125 -0.265625 L 57.4375 -0.265625 C 57.4375 0.804688 57.164062 1.789062 56.625 2.6875 C 56.09375 3.132812 55.421875 3.359375 54.609375 3.359375 Z M 17.578125 -33.953125 L 16.234375 -34.75 C 15.703125 -35.820312 15.476562 -36.988281 15.5625 -38.25 L 14.359375 -38.515625 L 12.875 -37.296875 L 11.546875 -37.296875 L 10.203125 -38.375 L 10.203125 -38.640625 L 9.796875 -38.640625 L 8.71875 -38.515625 L 7.375 -39.453125 C 6.925781 -40.796875 6.679688 -42.203125 6.640625 -43.671875 C 6.597656 -45.148438 6.53125 -46.648438 6.4375 -48.171875 L 6.4375 -58.640625 L 5.765625 -69.640625 L 5.765625 -94.328125 L 5.90625 -94.46875 L 5.90625 -102.25 L 6.703125 -103.453125 C 7.242188 -103.898438 7.875 -104.082031 8.59375 -104 L 9.65625 -103.71875 L 10.875 -104 L 12.203125 -103.328125 C 12.648438 -102.878906 12.832031 -102.34375 12.75 -101.71875 L 13.15625 -101.578125 L 14.21875 -102.65625 L 17.3125 -102.921875 L 18.65625 -102.109375 C 19.101562 -101.660156 19.28125 -101.125 19.1875 -100.5 L 19.453125 -100.5 C 20.078125 -101.21875 20.882812 -101.488281 21.875 -101.3125 C 22.320312 -100.957031 22.8125 -100.78125 23.34375 -100.78125 L 24.953125 -101.046875 L 26.171875 -100.234375 L 26.703125 -99.15625 L 26.703125 -93.53125 L 26.84375 -93.390625 L 26.84375 -60.515625 L 26.703125 -60.390625 L 26.703125 -40.25 L 26.03125 -38.78125 C 25.40625 -38.238281 24.644531 -38.0625 23.75 -38.25 L 22.28125 -39.046875 C 22.457031 -37.972656 22.234375 -37.035156 21.609375 -36.234375 L 20.125 -35.5625 L 19.59375 -34.625 C 19.050781 -34.175781 18.378906 -33.953125 17.578125 -33.953125 Z M 17.578125 -33.953125 "/></g></g>
      <g fill="#E62343" fill-opacity="1"><g transform="translate(558.108247, 148.04337)"><path d="M 83.859375 8.453125 L 82.796875 7.78125 C 82.253906 7.15625 82.070312 6.351562 82.25 5.375 L 80.90625 4.828125 C 80.46875 4.109375 80.113281 3.347656 79.84375 2.546875 L 78.234375 1.875 C 77.960938 3.3125 77.46875 4.65625 76.75 5.90625 C 76.21875 6.351562 75.546875 6.53125 74.734375 6.4375 L 73.671875 5.90625 C 73.128906 5.363281 72.90625 4.644531 73 3.75 L 71.796875 3.09375 C 71.347656 2.550781 71.164062 1.921875 71.25 1.203125 L 71.65625 -0.9375 C 70.757812 -1.5625 70.398438 -2.457031 70.578125 -3.625 L 72.59375 -11.546875 L 72.328125 -12.75 C 74.203125 -21.425781 75.316406 -30.191406 75.671875 -39.046875 C 76.035156 -47.898438 76.441406 -56.800781 76.890625 -65.75 L 74.609375 -65.75 C 63.609375 -65.476562 52.628906 -64.671875 41.671875 -63.328125 C 30.710938 -61.992188 19.816406 -60.382812 8.984375 -58.5 L 8.046875 -59.046875 C 7.515625 -59.671875 7.289062 -60.382812 7.375 -61.1875 L 7.65625 -62.265625 C 7.207031 -62.890625 7.023438 -63.601562 7.109375 -64.40625 L 7.921875 -65.75 L 9.125 -66.28125 L 9.125 -67.234375 C 8.320312 -67.234375 7.648438 -67.5 7.109375 -68.03125 C 6.660156 -68.65625 6.484375 -69.367188 6.578125 -70.171875 C 6.847656 -70.984375 7.382812 -71.523438 8.1875 -71.796875 C 19.632812 -72.867188 31.128906 -74.070312 42.671875 -75.40625 C 54.210938 -76.75 65.753906 -77.78125 77.296875 -78.5 L 77.6875 -87.484375 L 77.6875 -93.53125 L 77.828125 -93.65625 L 77.828125 -99.15625 L 77.96875 -100.640625 L 77.828125 -100.78125 L 77.828125 -106.28125 L 77.6875 -108.828125 L 78.5 -110.296875 C 79.03125 -110.742188 79.703125 -110.925781 80.515625 -110.84375 L 81.859375 -109.890625 L 82.125 -109.234375 L 82.390625 -109.234375 L 83.46875 -110.171875 L 85.203125 -110.296875 C 85.921875 -110.023438 86.457031 -109.535156 86.8125 -108.828125 L 86.8125 -108.5625 C 87.800781 -108.738281 88.65625 -108.46875 89.375 -107.75 L 90.03125 -107.078125 L 90.84375 -108.828125 C 91.46875 -109.273438 92.179688 -109.453125 92.984375 -109.359375 L 94.203125 -108.5625 C 94.648438 -107.925781 94.78125 -107.164062 94.59375 -106.28125 L 94.0625 -100.90625 C 94.332031 -99.738281 94.421875 -98.53125 94.328125 -97.28125 L 94.0625 -92.859375 C 94.957031 -92.941406 95.675781 -92.71875 96.21875 -92.1875 C 96.65625 -91.5625 96.832031 -90.84375 96.75 -90.03125 L 94.875 -79.578125 L 96.609375 -79.578125 L 99.96875 -79.84375 L 101.4375 -78.90625 C 101.800781 -78.363281 101.9375 -77.691406 101.84375 -76.890625 L 101.3125 -75.6875 L 102.390625 -75.546875 L 110.96875 -76.484375 L 112.453125 -75.546875 L 112.984375 -74.203125 L 119.296875 -74.203125 L 120.765625 -72.859375 L 120.90625 -71.515625 L 120.359375 -70.453125 C 119.023438 -69.910156 117.570312 -69.640625 116 -69.640625 C 114.4375 -69.640625 112.894531 -69.597656 111.375 -69.515625 C 111.46875 -68.796875 111.242188 -68.210938 110.703125 -67.765625 C 107.835938 -67.140625 104.90625 -66.734375 101.90625 -66.546875 C 98.914062 -66.367188 95.898438 -66.191406 92.859375 -66.015625 C 91.691406 -53.585938 90.726562 -41.175781 89.96875 -28.78125 C 89.207031 -16.394531 87.84375 -4.117188 85.875 8.046875 C 85.34375 8.410156 84.671875 8.546875 83.859375 8.453125 Z M 17.046875 -5.765625 L 15.5625 -6.84375 C 15.207031 -7.382812 15.070312 -8.007812 15.15625 -8.71875 L 16.234375 -10.875 L 15.703125 -11 C 14.890625 -9.925781 13.816406 -9.476562 12.484375 -9.65625 L 11 -10.59375 L 9.65625 -10.46875 L 8.3125 -11.40625 L 7.921875 -13.28125 L 7.515625 -13.28125 L 6.578125 -13.15625 L 5.234375 -13.953125 C 4.785156 -14.492188 4.609375 -15.117188 4.703125 -15.828125 L 5.5 -17.171875 C 13.90625 -24.148438 22.515625 -30.945312 31.328125 -37.5625 C 40.140625 -44.1875 48.972656 -50.765625 57.828125 -57.296875 L 59.578125 -56.625 C 60.472656 -57.425781 61.429688 -58.09375 62.453125 -58.625 C 63.484375 -59.164062 64.535156 -59.617188 65.609375 -59.984375 L 67.234375 -59.046875 C 67.585938 -58.503906 67.71875 -57.832031 67.625 -57.03125 C 67 -55.957031 66.148438 -55.0625 65.078125 -54.34375 L 63.734375 -53.265625 L 63.609375 -52.875 L 64.40625 -52.734375 C 64.945312 -53.003906 65.53125 -53.09375 66.15625 -53 L 67.234375 -52.328125 C 67.671875 -51.703125 67.847656 -50.988281 67.765625 -50.1875 L 67.09375 -49.109375 C 60.46875 -43.742188 53.867188 -38.242188 47.296875 -32.609375 C 40.722656 -26.972656 34.617188 -20.929688 28.984375 -14.484375 L 28.71875 -14.484375 L 28.453125 -13.953125 L 28.046875 -13.828125 L 27.109375 -12.609375 L 26.703125 -12.484375 L 26.703125 -12.203125 C 25.179688 -10.867188 23.632812 -9.640625 22.0625 -8.515625 C 20.5 -7.398438 18.828125 -6.484375 17.046875 -5.765625 Z M 17.046875 -5.765625 "/></g></g>
    </g>
  </g>
  <g transform="matrix(1, 0, 0, 1, 549, 362)">
    <g clip-path="url(#f01d326619)">
      <g fill="#E62343" fill-opacity="1"><g transform="translate(0.657777, 148.04337)"><path d="M 11.664062 4.984375 L 10.355469 4.164062 L 10.199219 3.933594 C 9.476562 2.847656 9.230469 1.597656 9.464844 0.191406 L 10.734375 0.402344 L 9.449219 0.300781 L 9.71875 -3.054688 L 11.003906 -2.953125 L 10.320312 -1.859375 C 9.015625 -2.675781 7.628906 -3.246094 6.160156 -3.574219 L 5.742188 -3.667969 L 5.460938 -3.992188 C 4.691406 -4.894531 4.363281 -6.015625 4.488281 -7.363281 L 5.023438 -14.058594 L 6.308594 -13.957031 L 5.328125 -13.117188 C 4.519531 -14.0625 4.246094 -15.183594 4.507812 -16.488281 L 5.769531 -16.238281 L 4.488281 -16.351562 C 4.84375 -20.269531 5.109375 -24.207031 5.289062 -28.171875 L 5.824219 -40.179688 L 7.113281 -40.121094 L 5.824219 -40.121094 L 5.824219 -47.097656 L 6.335938 -47.609375 L 7.246094 -46.695312 L 5.957031 -46.695312 L 5.957031 -100.277344 L 5.960938 -100.316406 C 6.046875 -101.710938 6.070312 -103.101562 6.027344 -104.492188 C 5.972656 -106.207031 6.429688 -107.761719 7.394531 -109.15625 L 7.535156 -109.359375 L 7.738281 -109.496094 C 8.535156 -110.027344 9.492188 -110.230469 10.609375 -110.105469 L 10.992188 -110.0625 L 11.292969 -109.816406 C 11.6875 -109.484375 12.113281 -109.253906 12.566406 -109.125 L 12.210938 -107.886719 L 12.09375 -109.167969 L 14.085938 -109.351562 L 15.832031 -107.953125 L 15.027344 -106.945312 L 15.027344 -108.234375 L 15.429688 -108.234375 L 15.429688 -106.945312 L 14.691406 -108.003906 L 16.035156 -108.941406 L 16.773438 -107.886719 L 15.507812 -107.65625 C 15.253906 -109.046875 15.574219 -110.257812 16.476562 -111.285156 L 16.574219 -111.398438 L 16.695312 -111.484375 C 17.589844 -112.121094 18.601562 -112.378906 19.734375 -112.253906 L 20.113281 -112.210938 L 21.882812 -110.761719 L 21.066406 -109.765625 L 21.175781 -111.046875 L 22.785156 -110.914062 L 22.675781 -109.628906 L 21.851562 -110.621094 C 22.671875 -111.300781 23.664062 -111.578125 24.832031 -111.449219 L 25.160156 -111.410156 L 27.039062 -110.097656 L 27.183594 -109.804688 C 27.652344 -108.871094 27.828125 -107.789062 27.71875 -106.5625 L 27.183594 -100 L 25.898438 -100.105469 L 26.761719 -101.0625 L 28.511719 -99.484375 L 28.664062 -93.773438 L 26.914062 -66.207031 L 25.628906 -66.289062 L 25.832031 -67.5625 C 34.851562 -66.132812 43.808594 -64.859375 52.695312 -63.742188 C 61.640625 -62.617188 70.476562 -61.023438 79.199219 -58.953125 L 79.667969 -58.84375 L 79.949219 -58.449219 C 80.589844 -57.554688 80.84375 -56.542969 80.71875 -55.410156 L 80.683594 -55.085938 L 80.492188 -54.816406 C 80.042969 -54.167969 79.851562 -53.375 79.917969 -52.425781 L 78.632812 -52.332031 L 79.296875 -53.4375 L 80.925781 -52.460938 L 81.09375 -52.167969 C 81.589844 -51.296875 81.777344 -50.320312 81.660156 -49.238281 L 81.613281 -48.828125 L 79.785156 -46.796875 L 77.484375 -46.605469 L 75.964844 -46.910156 L 76.21875 -48.171875 L 77.507812 -48.171875 L 77.507812 -47.90625 L 76.21875 -47.90625 L 76.597656 -49.136719 C 77.695312 -48.796875 78.835938 -48.542969 80.023438 -48.375 C 81.441406 -48.171875 82.761719 -47.714844 83.980469 -47.003906 L 84.398438 -46.761719 L 85.273438 -44.136719 L 83.867188 -41.722656 L 83.566406 -41.554688 C 82.699219 -41.054688 81.722656 -40.867188 80.636719 -40.988281 L 80.574219 -40.996094 L 74.875 -42.21875 L 75.144531 -43.476562 L 76.339844 -43 L 75.953125 -42.035156 L 75.714844 -41.828125 C 74.808594 -41.050781 73.726562 -40.726562 72.46875 -40.851562 L 72.367188 -40.863281 L 72.269531 -40.886719 C 64.402344 -42.945312 56.511719 -44.957031 48.601562 -46.921875 C 40.691406 -48.886719 32.761719 -50.765625 24.808594 -52.550781 L 25.09375 -53.808594 L 26.378906 -53.734375 C 26.023438 -47.65625 25.707031 -41.601562 25.441406 -35.570312 C 25.171875 -29.476562 24.539062 -23.5 23.546875 -17.632812 L 23.417969 -16.871094 L 22.28125 -16.492188 L 21.871094 -17.710938 L 23.152344 -17.570312 C 22.976562 -15.984375 22.84375 -14.375 22.757812 -12.746094 C 22.65625 -10.878906 22.148438 -9.179688 21.234375 -7.65625 L 21.039062 -7.335938 L 19.898438 -6.765625 L 19.324219 -7.917969 L 20.601562 -8.066406 C 20.820312 -6.207031 20.425781 -4.601562 19.414062 -3.253906 L 19.253906 -3.039062 L 19.023438 -2.90625 C 18.152344 -2.410156 17.175781 -2.222656 16.09375 -2.34375 L 15.921875 -2.363281 L 15.085938 -2.695312 L 15.566406 -3.890625 L 16.839844 -3.710938 C 16.671875 -2.53125 16.609375 -1.308594 16.652344 -0.0429688 C 16.707031 1.59375 16.289062 3.023438 15.398438 4.246094 L 15.265625 4.433594 L 15.074219 4.5625 C 14.277344 5.09375 13.320312 5.296875 12.203125 5.171875 L 11.910156 5.140625 Z M 13.027344 2.800781 L 12.34375 3.890625 L 12.488281 2.609375 C 12.980469 2.664062 13.367188 2.601562 13.644531 2.417969 L 14.359375 3.488281 L 13.316406 2.730469 C 13.859375 1.984375 14.113281 1.089844 14.078125 0.0429688 C 14.03125 -1.375 14.101562 -2.746094 14.289062 -4.074219 L 14.523438 -5.695312 L 16.714844 -4.820312 L 16.238281 -3.625 L 16.378906 -4.902344 C 16.90625 -4.84375 17.359375 -4.925781 17.746094 -5.144531 L 18.382812 -4.027344 L 17.351562 -4.796875 C 17.953125 -5.597656 18.183594 -6.585938 18.042969 -7.765625 L 17.9375 -8.664062 L 19.550781 -9.472656 L 20.128906 -8.320312 L 19.023438 -8.980469 C 19.71875 -10.140625 20.105469 -11.441406 20.183594 -12.882812 C 20.273438 -14.5625 20.410156 -16.21875 20.59375 -17.855469 L 20.683594 -18.675781 L 21.867188 -19.070312 L 22.273438 -17.847656 L 21.003906 -18.0625 C 21.980469 -23.824219 22.601562 -29.699219 22.867188 -35.683594 C 23.136719 -41.726562 23.449219 -47.796875 23.808594 -53.882812 L 23.894531 -55.398438 L 25.375 -55.066406 C 33.347656 -53.273438 41.296875 -51.394531 49.222656 -49.421875 C 57.144531 -47.453125 65.042969 -45.441406 72.921875 -43.382812 L 72.59375 -42.132812 L 72.722656 -43.417969 C 73.253906 -43.363281 73.691406 -43.484375 74.039062 -43.785156 L 74.875 -42.804688 L 73.679688 -43.285156 L 74.351562 -44.964844 L 81.050781 -43.527344 L 80.78125 -42.269531 L 80.921875 -43.550781 C 81.449219 -43.492188 81.90625 -43.570312 82.289062 -43.789062 L 82.925781 -42.671875 L 81.816406 -43.320312 L 82.753906 -44.929688 L 83.867188 -44.28125 L 82.644531 -43.875 L 82.109375 -45.484375 L 83.332031 -45.890625 L 82.679688 -44.777344 C 81.753906 -45.320312 80.746094 -45.667969 79.660156 -45.824219 C 78.339844 -46.011719 77.066406 -46.296875 75.839844 -46.671875 L 74.929688 -46.953125 L 74.929688 -49.746094 L 77.8125 -49.167969 L 77.558594 -47.90625 L 77.453125 -49.1875 L 79.0625 -49.324219 L 79.171875 -48.039062 L 78.210938 -48.902344 L 79.421875 -50.242188 L 80.378906 -49.378906 L 79.097656 -49.523438 C 79.15625 -50.050781 79.074219 -50.503906 78.855469 -50.886719 L 79.976562 -51.527344 L 79.3125 -50.421875 L 77.394531 -51.574219 L 77.347656 -52.242188 C 77.238281 -53.796875 77.582031 -55.148438 78.382812 -56.292969 L 79.4375 -55.554688 L 78.160156 -55.695312 C 78.210938 -56.175781 78.109375 -56.59375 77.855469 -56.953125 L 78.902344 -57.699219 L 78.605469 -56.445312 C 69.972656 -58.492188 61.230469 -60.074219 52.375 -61.1875 C 43.457031 -62.304688 34.476562 -63.582031 25.429688 -65.015625 L 24.269531 -65.199219 L 26.089844 -93.878906 L 27.375 -93.796875 L 26.085938 -93.761719 L 25.953125 -98.863281 L 27.238281 -98.894531 L 26.378906 -97.9375 L 24.5625 -99.574219 L 25.152344 -106.796875 C 25.21875 -107.535156 25.128906 -108.15625 24.878906 -108.652344 L 26.03125 -109.226562 L 25.292969 -108.171875 L 23.953125 -109.113281 L 24.691406 -110.167969 L 24.546875 -108.886719 C 24.105469 -108.9375 23.757812 -108.855469 23.503906 -108.640625 L 23.097656 -108.304688 L 20.5625 -108.515625 L 18.777344 -109.976562 L 19.589844 -110.972656 L 19.449219 -109.691406 C 18.96875 -109.746094 18.550781 -109.644531 18.191406 -109.386719 L 17.445312 -110.4375 L 18.414062 -109.585938 C 18.058594 -109.183594 17.9375 -108.695312 18.039062 -108.117188 L 18.1875 -107.304688 L 15.835938 -105.660156 L 14.578125 -105.660156 L 12.882812 -107.015625 L 13.6875 -108.019531 L 13.804688 -106.738281 L 12.089844 -106.582031 L 11.855469 -106.648438 C 11.054688 -106.875 10.316406 -107.273438 9.640625 -107.835938 L 10.464844 -108.824219 L 10.324219 -107.546875 C 9.832031 -107.601562 9.445312 -107.535156 9.167969 -107.351562 L 8.453125 -108.421875 L 9.511719 -107.691406 C 8.867188 -106.757812 8.566406 -105.71875 8.601562 -104.570312 C 8.648438 -103.101562 8.625 -101.628906 8.53125 -100.15625 L 7.246094 -100.238281 L 8.535156 -100.238281 L 8.535156 -46.164062 L 8.023438 -45.652344 L 7.113281 -46.5625 L 8.398438 -46.5625 L 8.398438 -40.09375 L 7.863281 -28.054688 C 7.683594 -24.054688 7.414062 -20.074219 7.054688 -16.121094 L 7.046875 -16.050781 L 7.035156 -15.984375 C 6.9375 -15.5 7.019531 -15.101562 7.285156 -14.792969 L 7.632812 -14.386719 L 7.054688 -7.128906 C 6.996094 -6.507812 7.117188 -6.019531 7.417969 -5.667969 L 6.441406 -4.832031 L 6.71875 -6.089844 C 8.472656 -5.699219 10.128906 -5.015625 11.6875 -4.042969 L 12.351562 -3.628906 L 12.015625 0.558594 L 12.003906 0.613281 C 11.882812 1.351562 11.996094 1.984375 12.34375 2.507812 L 11.273438 3.21875 L 11.953125 2.128906 Z M 13.027344 2.800781 "/></g></g>
      <g fill="#E62343" fill-opacity="1"><g transform="translate(83.289354, 148.04337)"><path d="M 47.164062 4.945312 L 45.625 3.867188 L 45.492188 3.667969 C 44.960938 2.871094 44.757812 1.914062 44.878906 0.796875 L 44.90625 0.570312 L 45.949219 -1.515625 L 47.101562 -0.9375 L 46.667969 0.273438 L 44.515625 -0.496094 L 44.308594 -0.699219 C 43.480469 -1.527344 43.132812 -2.550781 43.269531 -3.765625 L 43.289062 -3.953125 L 45.644531 -9.496094 L 46.832031 -8.992188 L 45.609375 -8.582031 L 45.304688 -9.5 L 45.550781 -9.980469 C 50.460938 -19.53125 55.125 -29.261719 59.542969 -39.171875 C 63.980469 -49.117188 68.617188 -58.929688 73.457031 -68.609375 L 74.609375 -68.03125 L 74.609375 -66.746094 L 73.804688 -66.746094 L 73.804688 -68.03125 L 73.929688 -66.75 C 63.933594 -65.769531 53.914062 -64.519531 43.871094 -63 C 33.816406 -61.484375 23.832031 -59.828125 13.914062 -58.042969 L 13.710938 -58.007812 L 13.503906 -58.035156 C 12.550781 -58.171875 11.746094 -58.636719 11.085938 -59.425781 L 10.941406 -59.597656 L 10.140625 -61.804688 L 11.496094 -64.515625 L 12.488281 -65.113281 L 13.148438 -64.007812 L 11.863281 -64.007812 L 11.863281 -64.277344 L 13.148438 -64.277344 L 13.363281 -63.003906 C 11.820312 -62.746094 10.535156 -63.199219 9.503906 -64.359375 L 9.390625 -64.488281 L 8.910156 -65.445312 L 10.0625 -66.019531 L 9.152344 -65.109375 L 7.617188 -66.648438 L 7.414062 -68.855469 L 7.769531 -69.917969 L 8.992188 -69.507812 L 8.992188 -68.21875 C 7.960938 -68.21875 7.09375 -68.644531 6.390625 -69.488281 L 6.277344 -69.628906 L 5.667969 -71 L 6.84375 -71.523438 L 6.128906 -70.449219 L 4.539062 -71.507812 L 3.714844 -74.1875 L 4.910156 -76.574219 L 5.550781 -76.683594 C 18.101562 -78.832031 30.804688 -80.648438 43.664062 -82.128906 C 56.511719 -83.605469 69.335938 -84.925781 82.140625 -86.089844 L 82.257812 -84.804688 L 81.105469 -85.382812 C 81.648438 -86.472656 82.457031 -87.390625 83.53125 -88.144531 L 84.269531 -87.085938 L 83.144531 -87.714844 L 84.636719 -90.402344 L 84.898438 -90.574219 C 85.695312 -91.105469 86.648438 -91.308594 87.765625 -91.1875 L 87.957031 -91.164062 L 88.132812 -91.089844 C 89.023438 -90.707031 89.71875 -90.078125 90.21875 -89.203125 L 89.101562 -88.5625 L 90.011719 -89.472656 L 90.414062 -89.070312 L 89.503906 -88.160156 L 88.28125 -88.566406 C 88.667969 -89.734375 89.4375 -90.570312 90.589844 -91.082031 L 90.839844 -91.195312 L 92.6875 -91.195312 L 92.90625 -91.113281 C 93.964844 -90.714844 94.703125 -90.035156 95.113281 -89.070312 L 95.183594 -88.914062 L 95.339844 -87.804688 L 94.066406 -87.625 L 94.066406 -88.914062 L 94.332031 -88.914062 L 94.332031 -87.625 L 93.527344 -88.628906 C 94.210938 -89.175781 95.015625 -89.449219 95.945312 -89.449219 L 96.273438 -89.449219 L 98.253906 -88.367188 L 98.410156 -88.179688 C 99.09375 -87.355469 99.371094 -86.402344 99.234375 -85.316406 L 99.21875 -85.191406 L 99.042969 -84.667969 L 97.824219 -85.074219 L 98.398438 -86.226562 C 99.347656 -85.753906 100.0625 -85.089844 100.550781 -84.238281 L 100.6875 -84 L 100.875 -82.132812 L 100.398438 -80.542969 L 99.164062 -80.914062 L 100.179688 -81.707031 L 101.121094 -80.496094 L 100.105469 -79.707031 L 100.679688 -80.859375 L 102.261719 -80.066406 L 102.433594 -79.859375 C 103.117188 -79.042969 103.390625 -78.050781 103.261719 -76.882812 L 103.234375 -76.613281 L 103.097656 -76.382812 C 95.589844 -63.328125 88.214844 -50.121094 80.972656 -36.757812 C 73.726562 -23.378906 66.433594 -10.070312 59.09375 3.175781 L 59.007812 3.332031 L 58.878906 3.460938 C 57.933594 4.40625 56.75 4.746094 55.324219 4.488281 L 55.105469 4.449219 L 53.824219 3.714844 L 53.703125 3.59375 C 52.785156 2.675781 52.394531 1.609375 52.527344 0.394531 L 52.558594 0.132812 L 54.96875 -4.125 L 56.089844 -3.488281 L 55.683594 -2.265625 L 54.878906 -2.535156 L 55.285156 -3.757812 L 56.410156 -3.132812 L 52.828125 3.316406 L 50.648438 4.15625 L 50.1875 2.953125 L 51.023438 3.929688 L 49.777344 5 L 47.558594 5.222656 Z M 48.644531 2.835938 L 47.90625 3.890625 L 47.777344 2.609375 L 49.117188 2.476562 L 49.246094 3.757812 L 48.410156 2.777344 L 49.515625 1.828125 L 51.46875 1.078125 L 51.929688 2.28125 L 50.804688 1.65625 L 54.679688 -5.316406 L 57.984375 -4.214844 L 54.929688 1.171875 L 53.808594 0.535156 L 55.089844 0.679688 C 55.046875 1.074219 55.191406 1.4375 55.523438 1.773438 L 54.613281 2.683594 L 55.253906 1.566406 L 56.191406 2.101562 L 55.554688 3.21875 L 55.785156 1.953125 C 56.324219 2.050781 56.75 1.945312 57.058594 1.636719 L 57.96875 2.550781 L 56.84375 1.925781 C 64.175781 -11.3125 71.464844 -24.613281 78.707031 -37.984375 C 85.960938 -51.367188 93.34375 -64.59375 100.867188 -77.664062 L 101.980469 -77.023438 L 100.703125 -77.164062 C 100.75 -77.605469 100.667969 -77.957031 100.457031 -78.210938 L 101.445312 -79.035156 L 100.871094 -77.882812 L 99.265625 -78.683594 L 97.738281 -80.648438 L 98.332031 -82.625 L 99.566406 -82.257812 L 98.285156 -82.128906 L 98.152344 -83.46875 L 99.433594 -83.597656 L 98.3125 -82.960938 C 98.085938 -83.359375 97.730469 -83.679688 97.246094 -83.921875 L 96.246094 -84.421875 L 96.734375 -85.882812 L 97.957031 -85.476562 L 96.679688 -85.636719 C 96.722656 -85.984375 96.640625 -86.28125 96.429688 -86.53125 L 97.417969 -87.355469 L 96.804688 -86.226562 L 95.328125 -87.03125 L 95.945312 -88.160156 L 95.945312 -86.871094 C 95.617188 -86.871094 95.351562 -86.789062 95.136719 -86.617188 L 94.785156 -86.335938 L 92.949219 -86.335938 L 92.65625 -88.382812 L 93.929688 -88.5625 L 92.746094 -88.054688 C 92.621094 -88.34375 92.375 -88.558594 92.003906 -88.699219 L 92.453125 -89.90625 L 92.453125 -88.617188 L 91.113281 -88.617188 L 91.113281 -89.90625 L 91.636719 -88.726562 C 91.175781 -88.523438 90.875 -88.199219 90.726562 -87.753906 L 90.066406 -85.777344 L 88.066406 -87.773438 L 87.980469 -87.925781 C 87.765625 -88.300781 87.476562 -88.566406 87.117188 -88.722656 L 87.625 -89.90625 L 87.480469 -88.625 C 86.988281 -88.679688 86.601562 -88.613281 86.324219 -88.429688 L 85.609375 -89.503906 L 86.738281 -88.878906 L 85.25 -86.203125 L 85.007812 -86.03125 C 84.292969 -85.53125 83.757812 -84.929688 83.410156 -84.230469 L 83.089844 -83.589844 L 82.375 -83.523438 C 69.589844 -82.359375 56.785156 -81.042969 43.960938 -79.566406 C 31.144531 -78.09375 18.488281 -76.285156 5.988281 -74.144531 L 5.769531 -75.414062 L 6.921875 -74.835938 L 6.25 -73.496094 L 5.097656 -74.070312 L 6.332031 -74.449219 L 6.867188 -72.707031 L 5.636719 -72.328125 L 6.351562 -73.398438 L 7.867188 -72.386719 L 8.558594 -70.835938 L 7.378906 -70.3125 L 8.371094 -71.140625 C 8.558594 -70.910156 8.765625 -70.796875 8.992188 -70.796875 L 10.777344 -70.796875 L 9.945312 -68.296875 L 8.722656 -68.703125 L 10.003906 -68.820312 L 10.140625 -67.34375 L 8.855469 -67.226562 L 9.765625 -68.136719 L 11.121094 -66.78125 L 11.617188 -65.792969 L 10.464844 -65.214844 L 11.429688 -66.070312 C 11.828125 -65.621094 12.332031 -65.445312 12.9375 -65.546875 L 14.4375 -65.796875 L 14.4375 -63.277344 L 13.140625 -62.5 L 12.480469 -63.605469 L 13.632812 -63.027344 L 12.691406 -61.148438 L 11.539062 -61.726562 L 12.75 -62.167969 L 13.289062 -60.691406 L 12.078125 -60.25 L 13.066406 -61.074219 C 13.300781 -60.792969 13.570312 -60.628906 13.871094 -60.585938 L 13.6875 -59.3125 L 13.457031 -60.578125 C 23.402344 -62.371094 33.410156 -64.027344 43.484375 -65.550781 C 53.570312 -67.074219 63.636719 -68.328125 73.675781 -69.316406 L 73.738281 -69.320312 L 76.691406 -69.320312 L 75.761719 -67.457031 C 70.9375 -57.8125 66.316406 -48.035156 61.894531 -38.121094 C 57.457031 -28.167969 52.773438 -18.398438 47.84375 -8.804688 L 46.695312 -9.394531 L 47.917969 -9.800781 L 48.207031 -8.933594 L 45.734375 -3.121094 L 44.550781 -3.625 L 45.832031 -3.480469 C 45.785156 -3.085938 45.886719 -2.765625 46.132812 -2.519531 L 45.222656 -1.609375 L 45.65625 -2.824219 L 48.902344 -1.664062 L 47.3125 1.515625 L 46.160156 0.9375 L 47.441406 1.082031 C 47.386719 1.574219 47.449219 1.960938 47.636719 2.238281 L 46.5625 2.953125 L 47.300781 1.898438 Z M 48.644531 2.835938 "/></g></g>
      <g fill="#E62343" fill-opacity="1"><g transform="translate(183.767072, 148.04337)"><path d="M 57.8125 3.367188 L 56.109375 2.28125 L 55.957031 2.054688 C 55.417969 1.246094 55.214844 0.367188 55.351562 -0.585938 L 56.625 -0.402344 L 56.625 0.886719 L 56.359375 0.886719 L 56.359375 -0.402344 L 56.699219 0.839844 L 54.746094 1.371094 L 52.519531 0.257812 L 51.546875 -2.265625 L 51.863281 -4.476562 L 53.136719 -4.292969 L 51.984375 -3.71875 C 51.515625 -4.65625 51.339844 -5.695312 51.453125 -6.835938 C 51.898438 -12.261719 52.230469 -17.714844 52.453125 -23.199219 L 53.058594 -39.765625 L 54.347656 -39.71875 L 53.058594 -39.71875 L 53.058594 -48.84375 L 54.347656 -48.84375 L 53.058594 -48.796875 L 52.925781 -52.554688 L 54.210938 -52.601562 L 54.210938 -51.3125 L 53.003906 -51.3125 L 53.003906 -52.601562 L 53.203125 -51.328125 C 46.335938 -50.257812 39.515625 -49.011719 32.738281 -47.582031 C 25.929688 -46.148438 19.074219 -44.804688 12.171875 -43.550781 L 11.621094 -43.449219 L 11.167969 -43.789062 C 10.601562 -44.214844 10.007812 -44.496094 9.382812 -44.632812 L 9.660156 -45.890625 L 9.972656 -44.640625 L 9.203125 -44.449219 L 8.964844 -44.480469 C 7.917969 -44.609375 7.019531 -45.113281 6.269531 -45.992188 L 6.148438 -46.132812 L 6.074219 -46.296875 C 5.550781 -47.453125 5.285156 -48.746094 5.285156 -50.1875 L 5.285156 -50.71875 L 7.140625 -52.574219 L 8.050781 -51.660156 L 6.761719 -51.660156 L 6.761719 -52.066406 L 8.050781 -52.066406 L 6.769531 -51.949219 L 6.601562 -53.765625 L 7.828125 -56.417969 L 30.878906 -61.042969 C 38.429688 -62.527344 46.023438 -63.71875 53.660156 -64.617188 L 53.808594 -63.335938 L 52.519531 -63.335938 L 52.519531 -64.410156 L 53.808594 -64.410156 L 52.523438 -64.34375 L 52.253906 -69.746094 L 52.253906 -78.164062 L 53.292969 -80.039062 L 54.894531 -80.75 L 55.417969 -79.574219 L 54.132812 -79.574219 L 54.132812 -86.011719 L 54.234375 -86.253906 C 54.617188 -87.144531 55.246094 -87.839844 56.121094 -88.339844 L 56.359375 -88.476562 L 58.375 -88.679688 L 60.332031 -87.59375 L 60.5 -87.175781 C 61.210938 -85.457031 61.464844 -83.554688 61.265625 -81.464844 L 59.980469 -81.585938 L 59.980469 -82.875 L 60.382812 -82.875 L 60.382812 -81.585938 L 59.558594 -82.574219 C 60.382812 -83.261719 61.335938 -83.535156 62.421875 -83.402344 L 62.738281 -83.359375 L 64.648438 -82.023438 L 65.464844 -80.070312 L 64.277344 -79.574219 L 64.277344 -80.859375 L 64.945312 -80.859375 L 64.945312 -79.574219 L 64.765625 -80.847656 L 66.101562 -81.039062 L 68.1875 -79.996094 L 68.378906 -79.613281 C 68.980469 -78.410156 69.378906 -77.066406 69.578125 -75.582031 L 69.59375 -75.453125 L 68.78125 -63.785156 L 67.496094 -63.871094 L 67.496094 -65.160156 L 67.898438 -65.160156 L 67.898438 -63.871094 L 67.777344 -65.15625 L 73.921875 -65.742188 L 74.324219 -65.425781 C 74.867188 -65.007812 75.507812 -64.828125 76.246094 -64.886719 L 84.484375 -65.457031 L 86.4375 -64.152344 L 87.253906 -61.507812 L 86.40625 -59.601562 L 86.191406 -59.414062 C 85.199219 -58.546875 84.027344 -58.171875 82.675781 -58.296875 L 82.792969 -59.578125 L 84.070312 -59.398438 C 83.859375 -57.933594 83.335938 -56.625 82.492188 -55.464844 L 82.246094 -55.125 L 81.84375 -54.996094 C 79.503906 -54.246094 77.023438 -53.804688 74.410156 -53.664062 C 71.945312 -53.53125 69.523438 -53.289062 67.148438 -52.9375 L 66.960938 -54.210938 L 68.242188 -54.113281 C 67.53125 -44.824219 66.992188 -35.539062 66.636719 -26.25 C 66.277344 -16.867188 65.058594 -7.664062 62.980469 1.363281 L 62.863281 1.875 L 62.417969 2.160156 C 61.28125 2.882812 60.042969 3.347656 58.703125 3.554688 L 58.222656 3.628906 Z M 59.195312 1.195312 L 58.503906 2.28125 L 58.308594 1.007812 C 59.292969 0.855469 60.203125 0.515625 61.035156 -0.0117188 L 61.726562 1.074219 L 60.46875 0.785156 C 62.511719 -8.082031 63.707031 -17.128906 64.0625 -26.351562 C 64.421875 -35.671875 64.957031 -44.992188 65.675781 -54.308594 L 65.753906 -55.335938 L 66.769531 -55.484375 C 69.226562 -55.851562 71.726562 -56.101562 74.269531 -56.234375 C 76.664062 -56.363281 78.929688 -56.769531 81.058594 -57.453125 L 81.453125 -56.222656 L 80.410156 -56.980469 C 81 -57.792969 81.371094 -58.71875 81.519531 -59.761719 L 81.691406 -60.972656 L 82.910156 -60.863281 C 83.527344 -60.804688 84.054688 -60.96875 84.496094 -61.355469 L 85.34375 -60.382812 L 84.164062 -60.90625 L 84.703125 -62.113281 L 85.878906 -61.59375 L 84.648438 -61.214844 L 84.113281 -62.957031 L 85.34375 -63.335938 L 84.628906 -62.265625 L 83.421875 -63.070312 L 84.136719 -64.140625 L 84.222656 -62.855469 L 76.460938 -62.320312 C 75.050781 -62.203125 73.8125 -62.5625 72.742188 -63.394531 L 73.535156 -64.410156 L 73.65625 -63.128906 L 67.960938 -62.585938 L 66.113281 -62.585938 L 67.015625 -75.503906 L 68.300781 -75.414062 L 67.023438 -75.242188 C 66.863281 -76.441406 66.546875 -77.515625 66.074219 -78.460938 L 67.226562 -79.035156 L 66.652344 -77.882812 L 65.308594 -78.554688 L 65.886719 -79.707031 L 66.066406 -78.433594 L 65.039062 -78.285156 L 63.417969 -78.285156 L 62.414062 -80.6875 L 63.605469 -81.183594 L 62.867188 -80.128906 L 61.523438 -81.066406 L 62.261719 -82.121094 L 62.101562 -80.84375 C 61.757812 -80.886719 61.460938 -80.804688 61.207031 -80.597656 L 60.851562 -80.296875 L 58.566406 -80.296875 L 58.699219 -81.707031 C 58.859375 -83.375 58.664062 -84.871094 58.121094 -86.195312 L 59.3125 -86.683594 L 58.683594 -85.558594 L 57.476562 -86.230469 L 58.101562 -87.355469 L 58.230469 -86.074219 L 56.890625 -85.941406 L 56.761719 -87.222656 L 57.398438 -86.101562 C 57.023438 -85.886719 56.757812 -85.601562 56.601562 -85.238281 L 55.417969 -85.746094 L 56.707031 -85.746094 L 56.707031 -78.734375 L 54.734375 -77.859375 L 54.210938 -79.035156 L 55.335938 -78.410156 L 54.667969 -77.203125 L 53.539062 -77.828125 L 54.828125 -77.828125 L 54.828125 -69.777344 L 53.539062 -69.777344 L 54.828125 -69.839844 L 55.097656 -64.441406 L 55.097656 -62.191406 L 53.960938 -62.058594 C 46.386719 -61.167969 38.863281 -59.984375 31.382812 -58.515625 L 8.976562 -54.023438 L 8.722656 -55.285156 L 9.890625 -54.746094 L 9.085938 -53 L 7.917969 -53.539062 L 9.199219 -53.65625 L 9.339844 -52.121094 L 9.339844 -51.128906 L 7.484375 -49.273438 L 6.574219 -50.1875 L 7.863281 -50.1875 C 7.863281 -49.121094 8.046875 -48.179688 8.417969 -47.363281 L 7.246094 -46.832031 L 8.222656 -47.667969 C 8.542969 -47.296875 8.898438 -47.085938 9.285156 -47.035156 L 9.125 -45.757812 L 8.8125 -47.007812 L 9.644531 -47.214844 L 9.941406 -47.148438 C 10.925781 -46.929688 11.851562 -46.496094 12.714844 -45.847656 L 11.941406 -44.820312 L 11.710938 -46.085938 C 18.589844 -47.335938 25.421875 -48.675781 32.207031 -50.105469 C 39.027344 -51.539062 45.894531 -52.796875 52.804688 -53.875 L 52.902344 -53.890625 L 55.453125 -53.890625 L 55.632812 -48.867188 L 55.632812 -39.695312 L 55.027344 -23.09375 C 54.804688 -17.574219 54.46875 -12.070312 54.015625 -6.582031 C 53.953125 -5.933594 54.042969 -5.363281 54.289062 -4.871094 L 54.46875 -4.511719 L 54.144531 -2.234375 L 52.871094 -2.414062 L 54.070312 -2.878906 L 54.742188 -1.132812 L 53.539062 -0.671875 L 54.117188 -1.824219 L 55.457031 -1.152344 L 54.882812 0 L 54.542969 -1.242188 L 56.1875 -1.691406 L 58.113281 -1.691406 L 57.902344 -0.21875 C 57.859375 0.0820312 57.925781 0.363281 58.101562 0.628906 L 57.03125 1.34375 L 57.722656 0.253906 Z M 16.867188 2.359375 L 15.238281 1.546875 L 15.054688 1.285156 C 14.445312 0.433594 14.144531 -0.53125 14.144531 -1.609375 L 15.429688 -1.609375 L 14.738281 -0.523438 L 13.035156 -1.609375 L 12.882812 -1.835938 C 12.347656 -2.636719 12.144531 -3.554688 12.273438 -4.589844 L 12.292969 -4.738281 L 12.75 -5.953125 L 13.957031 -5.5 L 13.207031 -4.453125 L 12.074219 -5.261719 L 11.945312 -5.457031 C 11.40625 -6.269531 11.203125 -7.148438 11.339844 -8.097656 L 11.351562 -8.1875 L 11.644531 -9.210938 L 12.882812 -8.855469 L 13.011719 -7.574219 C 11.632812 -7.4375 10.53125 -7.917969 9.703125 -9.023438 L 9.683594 -9.050781 L 9.664062 -9.082031 C 9.128906 -9.882812 8.925781 -10.800781 9.054688 -11.835938 L 9.074219 -12.007812 L 9.144531 -12.167969 C 9.640625 -13.367188 10.316406 -14.464844 11.164062 -15.460938 C 11.957031 -16.398438 12.867188 -17.332031 13.894531 -18.261719 L 14.761719 -17.308594 L 13.832031 -18.203125 C 18.765625 -23.316406 23.789062 -28.316406 28.898438 -33.203125 C 34.003906 -38.085938 39.15625 -42.898438 44.351562 -47.648438 L 44.660156 -47.929688 L 46.40625 -48.125 L 46.527344 -48.117188 C 47.980469 -48.003906 49.214844 -47.496094 50.238281 -46.585938 L 50.445312 -46.402344 L 51.09375 -44.9375 L 49.917969 -44.414062 L 50.324219 -45.636719 C 51.539062 -45.234375 52.347656 -44.425781 52.75 -43.214844 L 52.816406 -43.015625 L 52.816406 -41.242188 L 52.632812 -40.933594 C 48.320312 -33.746094 43.667969 -26.734375 38.679688 -19.90625 C 33.726562 -13.121094 28.929688 -6.246094 24.285156 0.714844 L 24.144531 0.929688 L 23.929688 1.070312 C 23.132812 1.601562 22.175781 1.808594 21.058594 1.683594 L 20.832031 1.65625 L 19.285156 0.882812 L 19.859375 -0.269531 L 21.042969 0.238281 C 20.640625 1.179688 19.96875 1.855469 19.023438 2.257812 L 18.859375 2.328125 L 17.21875 2.535156 Z M 18.019531 0.0546875 L 17.445312 1.207031 L 17.285156 -0.0703125 L 18.359375 -0.203125 L 18.519531 1.074219 L 18.011719 -0.109375 C 18.320312 -0.242188 18.542969 -0.464844 18.675781 -0.777344 L 19.214844 -2.03125 L 21.777344 -0.75 L 21.203125 0.402344 L 21.34375 -0.878906 C 21.839844 -0.824219 22.222656 -0.886719 22.5 -1.070312 L 23.214844 0 L 22.140625 -0.714844 C 26.804688 -7.707031 31.625 -14.609375 36.597656 -21.425781 C 41.542969 -28.191406 46.148438 -35.136719 50.421875 -42.261719 L 51.527344 -41.597656 L 50.238281 -41.597656 L 50.238281 -42.804688 L 51.527344 -42.804688 L 50.304688 -42.398438 C 50.171875 -42.796875 49.90625 -43.0625 49.511719 -43.195312 L 48.972656 -43.375 L 48.203125 -45.101562 L 49.378906 -45.625 L 48.523438 -44.660156 C 47.9375 -45.183594 47.203125 -45.480469 46.328125 -45.546875 L 46.429688 -46.832031 L 46.570312 -45.550781 L 45.363281 -45.417969 L 45.222656 -46.695312 L 46.089844 -45.746094 C 40.910156 -41.011719 35.773438 -36.210938 30.679688 -31.339844 C 25.59375 -26.476562 20.597656 -21.503906 15.6875 -16.414062 L 15.628906 -16.355469 C 14.683594 -15.5 13.851562 -14.644531 13.125 -13.792969 C 12.453125 -13 11.917969 -12.128906 11.523438 -11.179688 L 10.332031 -11.675781 L 11.609375 -11.515625 C 11.5625 -11.117188 11.625 -10.78125 11.808594 -10.511719 L 10.734375 -9.796875 L 11.765625 -10.570312 C 12.011719 -10.242188 12.339844 -10.097656 12.753906 -10.136719 L 14.640625 -10.328125 L 13.851562 -7.5625 L 12.613281 -7.917969 L 13.890625 -7.734375 C 13.847656 -7.433594 13.914062 -7.152344 14.089844 -6.886719 L 13.015625 -6.171875 L 13.765625 -7.222656 L 15.507812 -5.976562 L 14.757812 -3.976562 L 13.554688 -4.429688 L 14.832031 -4.269531 C 14.78125 -3.871094 14.847656 -3.535156 15.027344 -3.265625 L 13.957031 -2.550781 L 14.648438 -3.636719 L 16.71875 -2.316406 L 16.71875 -1.609375 C 16.71875 -1.082031 16.863281 -0.613281 17.152344 -0.210938 L 16.101562 0.535156 L 16.679688 -0.617188 Z M 18.019531 0.0546875 "/></g></g>
    </g>
  </g>
</svg>
