<?xml version="1.0" encoding="UTF-8" standalone="no"?>
<!DOCTYPE svg PUBLIC "-//W3C//DTD SVG 1.1//EN" "http://www.w3.org/Graphics/SVG/1.1/DTD/svg11.dtd">
<svg width="100%" height="100%" viewBox="0 0 2412 2412" version="1.1" xmlns="http://www.w3.org/2000/svg" xmlns:xlink="http://www.w3.org/1999/xlink" xml:space="preserve" xmlns:serif="http://www.serif.com/" style="fill-rule:evenodd;clip-rule:evenodd;stroke-linejoin:round;stroke-miterlimit:2;">
    <g id="Perfil-logo-Kaizen-Instragram" serif:id="Perfil logo Kaizen Instragram" transform="matrix(7.537297,0,0,7.537297,-58783.440838,0)">
        <rect x="7799.008" y="0" width="320" height="320" style="fill:none;"/>
        <g transform="matrix(1.905548,0,0,1.905548,-7063.889694,-182.998565)">
            <g transform="matrix(0.18383,0,0,0.18383,7673.249886,39.551364)">
                <path d="M873.788,1061.673L996.354,1061.673L1047.632,971.937L925.065,971.937L873.788,1061.673Z" style="fill:rgb(255,21,55);"/>
            </g>
            <g transform="matrix(0.18383,0,0,0.194716,7675.575905,28.120995)">
                <path d="M1316.881,1061.02L1437.696,1061.02L1302.255,737.216L1446.451,498.982L1323.885,498.982L1251.382,618.767L1201.318,498.982L1078.752,498.982L1006.654,618.099L1129.221,618.099L1218.828,829.593L1053.739,829.593L993.706,928.776L1262.601,928.776L1316.881,1061.02Z" style="fill:rgb(255,21,55);"/>
            </g>
            <g transform="matrix(0.18383,0,0,0.18383,7676.234687,32.864449)">
                <path d="M937.594,957.973L815.028,957.973L975.114,677.821L1097.681,677.821L937.594,957.973Z" style="fill:rgb(255,21,55);"/>
            </g>
        </g>
    </g>
</svg>
