<?xml version="1.0" encoding="UTF-8" standalone="no"?>
<!DOCTYPE svg PUBLIC "-//W3C//DTD SVG 1.1//EN" "http://www.w3.org/Graphics/SVG/1.1/DTD/svg11.dtd">
<svg width="100%" height="100%" viewBox="0 0 931 741" version="1.1" xmlns="http://www.w3.org/2000/svg" xmlns:xlink="http://www.w3.org/1999/xlink" xml:space="preserve" xmlns:serif="http://www.serif.com/" style="fill-rule:evenodd;clip-rule:evenodd;stroke-linejoin:round;stroke-miterlimit:2;">
    <g transform="matrix(1,0,0,1,-2092.021286,-266.087056)">
        <g transform="matrix(1.346855,0,0,1,0,2567.10941)">
            <g id="Cabelo" transform="matrix(0.74247,0,0,1,-2134.603856,-6423.417071)">
                <path d="M5812.836,4824.519L5807.673,4745.827C5811.901,4680.78 5804.615,4680.323 5764.977,4628.455C5748.422,4606.791 5745.248,4608.376 5742.24,4593.917C5741.798,4591.789 5727.556,4485.443 5726.161,4481.85C5724.335,4477.15 5552.837,4391.985 5537.559,4394.196C5525.312,4395.968 5436.713,4415.096 5418.644,4412.185C5310.377,4394.744 5309.695,4392.174 5302.623,4396.365C5147.335,4488.404 5147.198,4488.593 5145.527,4491.983C5143.471,4496.156 5136.318,4599.054 5131.614,4610.287C5130.272,4613.491 5074.448,4694.652 5074.432,4694.69C5068.942,4707.154 5072.758,4707.64 5073.015,4729.947L5073.031,4731.407L5072.527,4731.397L5074.303,4821.917C5074.365,4823.37 5075.023,4838.717 5068.953,4839.294C5058.065,4840.329 5011.626,4784.221 5005.244,4749.595C4999.378,4717.769 4965.929,4469.727 4967.051,4457.478C4967.891,4448.31 5029.266,4360.755 5038.047,4346.024C5042.97,4337.764 5050.264,4271.378 5053.457,4267.072C5062.656,4254.666 5065.276,4257.617 5211.932,4156.826C5212.399,4171.81 5212.866,4186.793 5213.333,4201.777L5216.953,4204.831C5289.191,4151.85 5288.747,4151.251 5296.076,4148.698C5302.78,4146.363 5516.037,4122.772 5523.56,4122.396C5531.464,4122.001 5767.627,4236.044 5775.651,4244.002C5778.536,4246.864 5819.282,4365.101 5828.236,4377.162C5835.811,4387.366 5895.605,4438.177 5897.034,4447.551C5898.197,4455.186 5895.95,4455.125 5891.087,4543.912C5882.276,4704.769 5886.628,4705.329 5875.808,4743.589C5868.309,4770.104 5868.63,4770.276 5854.29,4793.664C5825.531,4840.571 5837.551,4855.76 5828.177,4862.521C5825.518,4864.439 5816.33,4866.596 5812.836,4824.519Z" style="fill:rgb(3,2,1);"/>
            </g>
        </g>
    </g>
</svg>
