<?xml version="1.0" encoding="UTF-8" standalone="no"?>
<!DOCTYPE svg PUBLIC "-//W3C//DTD SVG 1.1//EN" "http://www.w3.org/Graphics/SVG/1.1/DTD/svg11.dtd">
<svg width="100%" height="100%" viewBox="0 0 991 1073" version="1.1" xmlns="http://www.w3.org/2000/svg" xmlns:xlink="http://www.w3.org/1999/xlink" xml:space="preserve" xmlns:serif="http://www.serif.com/" style="fill-rule:evenodd;clip-rule:evenodd;stroke-linejoin:round;stroke-miterlimit:2;">
    <g transform="matrix(1,0,0,1,-3118.090268,-430.927038)">
        <g transform="matrix(1.346855,0,0,1,0,2567.10941)">
            <g id="Cabeça" transform="matrix(1,0,0,1,-375.165868,-395.853635)">
                <g id="Orelhas">
                    <g id="OrelhaD" transform="matrix(3.138582,0,0,3.496142,1395.083281,-2056.133619)">
                        <path d="M615.92,241.517C615.896,236.765 616.689,236.879 617.925,230.59C618.384,228.25 619.704,222.296 619.864,221.575C620.643,218.061 621.798,218.88 626.317,216.17C631.077,213.316 631.916,213.598 632.413,213.765C633.395,214.094 638.721,217.435 639.501,218.499C640.753,220.206 640.168,224.153 641.73,236.473C642.499,242.537 641.487,242.632 639.72,247.579C639.309,248.731 627.452,278.104 625.525,283.509C623.587,288.945 621.764,288.715 617.605,291.652C614.346,293.955 612.913,294.302 609.403,292.705C606.652,291.454 608.114,288.507 608.809,283.553C609.574,278.098 610.416,277.476 610.669,271.532C610.799,268.487 613.176,260.78 614.081,252.402C614.117,252.071 614.133,251.738 614.166,251.406C614.334,249.723 614.777,247.69 614.799,247.607C614.834,247.477 614.978,247.394 615.012,247.264C615.3,247.791 616.373,240.345 616.085,240.645C615.88,240.858 616.125,241.303 615.92,241.517Z" style="fill:rgb(242,236,221);"/>
                        <path d="M610.639,244.42L611.007,241.987C610.998,241.843 610.993,241.699 610.992,241.553C610.965,236.201 611.737,236.298 613.13,229.212C613.598,226.83 614.941,220.766 615.103,220.033C616.004,215.969 617.29,214.564 619.489,213.238C620.442,212.664 621.863,212.189 624.127,210.832C631.461,206.434 632.965,207.766 633.731,208.023C634.567,208.303 638.031,210.288 640.338,211.952C641.743,212.967 642.784,213.994 643.189,214.546C644.061,215.735 644.744,217.294 645.098,219.804C645.456,222.342 645.501,226.891 646.601,235.57C647.592,243.385 646.522,243.566 644.245,249.942C643.834,251.094 631.978,280.463 630.051,285.868C627.543,292.901 625.471,292.998 620.091,296.798C617.709,298.48 615.946,299.302 614.186,299.557C612.322,299.828 610.384,299.518 607.667,298.282C604.251,296.728 603.113,294.15 602.893,290.849C602.764,288.917 603.445,286.158 603.95,282.556C604.672,277.411 605.508,276.833 605.747,271.226C605.88,268.108 608.268,260.207 609.194,251.63C609.228,251.319 609.242,251.006 609.273,250.695C609.489,248.521 610.076,245.9 610.105,245.792L610.639,244.42ZM615.92,241.345C615.605,241.293 615.288,241.283 614.972,241.305C615.293,241.302 615.61,241.336 615.92,241.406C615.92,241.443 615.92,241.48 615.92,241.517C615.947,241.488 615.967,241.456 615.98,241.421C616.019,241.43 616.058,241.44 616.096,241.45C615.927,243.309 615.235,247.672 615.012,247.264C614.978,247.394 614.834,247.477 614.799,247.607C614.777,247.69 614.334,249.723 614.166,251.406C614.133,251.738 614.117,252.071 614.081,252.402C613.176,260.78 610.799,268.487 610.669,271.532C610.416,277.476 609.574,278.098 608.809,283.553C608.114,288.507 606.652,291.454 609.403,292.705C612.913,294.302 614.346,293.955 617.605,291.652C621.764,288.715 623.587,288.945 625.525,283.509C627.452,278.104 639.309,248.731 639.72,247.579C641.487,242.632 642.499,242.537 641.73,236.473C640.168,224.153 640.753,220.206 639.501,218.499C638.721,217.435 633.395,214.094 632.413,213.765C631.916,213.598 631.077,213.316 626.317,216.17C621.798,218.88 620.643,218.061 619.864,221.575C619.704,222.296 618.384,228.25 617.925,230.59C616.704,236.803 615.915,236.767 615.92,241.345ZM616.102,241.38C616.067,241.372 616.033,241.365 615.998,241.359C616.043,241.129 615.923,240.814 616.085,240.645C616.147,240.58 616.146,240.878 616.102,241.38Z"/>
                    </g>
                    <g id="OrelhaE" transform="matrix(3.426746,0,0,3.496142,1435.545901,-2056.133619)">
                        <path d="M394.132,227.561C394.208,227.978 395.742,234.85 395.742,234.85C395.742,234.85 401.709,261.389 403.677,270.465C404.127,272.542 408.781,292.225 408.777,292.496C408.751,294.255 406.965,294.724 406.671,294.873C401.292,297.605 400.928,296.172 395.756,293.09C395.469,292.919 393.779,291.912 392.38,290.634C390.103,288.553 389.828,285.662 386.827,280.323C385.354,277.703 383.191,271.314 380.894,267.282C380.84,267.189 374.747,254.683 373.754,252.39C371.27,246.662 370.317,246.765 370.778,240.524C371.312,233.299 372.193,224.282 372.419,223.477C373.039,221.273 375.207,220.634 377.28,219.174C380.306,217.043 381.055,216.534 385.708,219.128C392.049,222.664 393.229,222.604 394.132,227.561Z" style="fill:rgb(243,237,221);"/>
                        <path d="M408.292,300.434C405.302,301.953 403.398,302.374 401.765,302.264C399.565,302.116 397.772,300.829 393.899,298.521C393.552,298.314 391.507,297.083 389.811,295.533C388.366,294.213 387.399,292.725 386.49,290.827C385.675,289.125 384.91,286.913 383.202,283.874C381.733,281.261 379.578,274.886 377.286,270.864C377.231,270.767 370.872,257.74 369.836,255.35C366.637,247.97 365.692,247.985 366.285,239.946C366.867,232.079 367.941,222.279 368.188,221.403C368.78,219.297 369.861,217.671 371.386,216.397C372.426,215.527 373.804,214.868 375.155,213.916C377.447,212.302 378.94,211.531 380.677,211.426C382.28,211.33 384.213,211.826 387.464,213.639C390.311,215.226 392.178,216.156 393.465,217.07C394.966,218.135 395.965,219.278 396.755,220.703C397.502,222.05 398.073,223.713 398.52,226.167C398.592,226.559 400.007,232.875 400.07,233.156C400.118,233.373 406.053,259.773 408.016,268.825C408.421,270.691 412.225,286.796 412.979,290.195C413.296,291.622 413.291,292.508 413.29,292.61C413.253,295.18 412.374,297.127 411.1,298.524C410.278,299.425 408.811,300.183 408.292,300.434ZM394.132,227.561C393.229,222.604 392.049,222.664 385.708,219.128C381.055,216.534 380.306,217.043 377.28,219.174C375.207,220.634 373.039,221.273 372.419,223.477C372.193,224.282 371.312,233.299 370.778,240.524C370.317,246.765 371.27,246.662 373.754,252.39C374.747,254.683 380.84,267.189 380.894,267.282C383.191,271.314 385.354,277.703 386.827,280.323C389.828,285.662 390.103,288.553 392.38,290.634C393.779,291.912 395.469,292.919 395.756,293.09C400.928,296.172 401.292,297.605 406.671,294.873C406.965,294.724 408.751,294.255 408.777,292.496C408.781,292.225 404.127,272.542 403.677,270.465C401.709,261.389 395.742,234.85 395.742,234.85C395.742,234.85 394.208,227.978 394.132,227.561Z"/>
                    </g>
                </g>
                <g id="Rosto" transform="matrix(0.74247,0,0,1,-305.702129,-6156.34417)">
                    <path d="M4160.702,4785.162L4166.619,4741.294L4220.555,4549.44L4390.295,4450.12L4652.045,4436.849L4813.832,4535.605L4841.584,4588.227L4872.317,4644.853L4892.076,4734.478L4902.196,4789.948L4900.507,4878.274C4901.234,4887.021 4901.66,4895.815 4901.427,4904.589C4900.96,4922.151 4850.453,5202.735 4841.023,5216.551C4833.206,5228.002 4757.349,5339.136 4740.586,5357.797C4722.785,5377.613 4642.613,5455.83 4638.468,5457.195C4634.346,5458.552 4549.943,5474.687 4475.592,5463.054C4435.383,5456.762 4441.256,5445.22 4410.2,5418.961C4277.609,5306.852 4245.974,5246.339 4236.405,5228.035C4236.017,5227.294 4162.543,4935.293 4160.675,4926.998C4159.773,4922.991 4164.002,4922.997 4161.974,4875.672L4160.198,4785.152L4160.702,4785.162Z" style="fill:rgb(243,237,221);"/>
                    <path d="M4140.655,4777.935L4145.973,4738.509C4146.103,4737.546 4146.3,4736.592 4146.563,4735.656L4200.499,4543.802C4201.959,4538.608 4205.377,4534.183 4210.034,4531.459L4379.773,4432.139C4382.657,4430.452 4385.903,4429.483 4389.24,4429.314L4650.99,4416.042C4655.174,4415.83 4659.324,4416.884 4662.9,4419.067L4824.687,4517.823C4827.891,4519.779 4830.508,4522.565 4832.26,4525.886L4859.954,4578.399L4890.627,4634.915C4891.557,4636.628 4892.242,4638.464 4892.662,4640.367L4912.421,4729.992C4912.476,4730.24 4912.526,4730.489 4912.571,4730.739L4922.691,4786.209C4922.94,4787.574 4923.052,4788.96 4923.025,4790.346L4921.357,4877.622C4922.091,4886.772 4922.497,4895.968 4922.253,4905.142C4921.874,4919.394 4889.24,5104.432 4871.212,5185.035C4865.844,5209.035 4860.508,5224.958 4858.23,5228.296C4850.288,5239.93 4773.114,5352.761 4756.084,5371.719C4741.625,5387.816 4686.649,5441.883 4663.076,5463.569C4653.606,5472.28 4646.335,5476.538 4644.982,5476.984C4640.614,5478.422 4551.174,5495.967 4472.372,5483.637C4440.882,5478.709 4431.344,5470.688 4419.758,5458.157C4414.268,5452.22 4408.273,5444.614 4396.749,5434.87C4260.049,5319.287 4227.808,5256.558 4217.942,5237.687C4217.882,5237.571 4216.16,5233.072 4214.052,5224.79C4201.826,5176.78 4142.036,4939.056 4140.351,4931.576C4139.568,4928.099 4139.471,4925.321 4140.074,4921.455C4140.583,4918.189 4142.646,4911.252 4141.16,4876.564C4141.153,4876.403 4141.148,4876.241 4141.145,4876.08L4139.369,4785.561C4139.317,4782.934 4139.763,4780.35 4140.655,4777.935ZM4160.702,4785.162L4160.198,4785.152L4161.974,4875.672C4164.002,4922.997 4159.773,4922.991 4160.675,4926.998C4162.543,4935.293 4236.017,5227.294 4236.405,5228.035C4245.974,5246.339 4277.609,5306.852 4410.2,5418.961C4441.256,5445.22 4435.383,5456.762 4475.592,5463.054C4549.943,5474.687 4634.346,5458.552 4638.468,5457.195C4642.613,5455.83 4722.785,5377.613 4740.586,5357.797C4757.349,5339.136 4833.206,5228.002 4841.023,5216.551C4850.453,5202.735 4900.96,4922.151 4901.427,4904.589C4901.66,4895.815 4901.234,4887.021 4900.507,4878.274L4902.196,4789.948L4892.076,4734.478L4872.317,4644.853L4841.584,4588.227L4813.832,4535.605L4652.045,4436.849L4390.295,4450.12L4220.555,4549.44L4166.619,4741.294L4160.702,4785.162Z"/>
                </g>
                <g transform="matrix(2.595781,0,0,3.496142,1743.555998,-2056.133619)">
                    <path d="M612.676,199.358C612.702,200.226 612.716,201.136 612.716,202.091C612.716,202.267 612.674,202.402 612.595,202.503C612.617,201.077 612.644,199.972 612.676,199.358Z" style="fill:rgb(255,21,55);"/>
                    <path d="M611.979,191.106C612.949,193.138 613.269,195.691 612.716,198.881C612.702,198.962 612.689,199.124 612.676,199.358C612.578,196 612.307,193.284 611.979,191.106Z" style="fill:rgb(255,21,55);"/>
                    <path d="M515.109,212.94C515.641,213.01 515.79,212.353 517.681,213.276C520.768,214.783 518.166,222.592 520.417,231.525C524.486,247.67 531.611,252.628 533.392,254.669C533.506,254.8 533.51,255.007 533.63,255.132C533.843,255.357 534.155,255.472 534.369,255.697C533.947,256.184 533.039,256.027 532.618,256.515C532.405,256.761 532.857,256.771 533.379,260.516C533.999,264.976 535.743,264.316 537.011,268.64C539.127,275.861 538.766,276.832 538.515,277.506C537.913,279.124 534.916,281.218 532.552,283.552C530.095,285.979 529.414,284.898 520.568,282.259C515.935,280.877 515.689,281.887 512.414,283.3C510.166,284.27 509.575,283.72 503.485,281.543C502.318,281.125 501.463,280.66 501.43,280.646C502.3,278.711 502.448,278.735 502.36,278.576C502.215,278.313 501.664,278.747 501.459,278.527C501.238,278.29 501.54,277.853 501.41,277.557C501.332,277.381 501.062,277.387 500.908,277.272C495.699,273.383 493.998,271.887 491.354,274.338C489.478,276.079 488.952,276.47 490.457,278.53C491.719,280.257 491.286,280.438 491.605,281.638C491.015,282.066 490.345,283.243 487.543,282.364C486.642,282.081 485.647,281.536 483.427,279.587C483.366,279.534 481.491,278.427 481.582,275.504C481.663,272.907 483.418,272.469 488.287,270.047C493.186,267.609 493.48,266.894 496.597,268.305C500.474,270.06 500.626,269.673 504.399,271.67C511.177,275.256 513.978,270.032 516.822,267.9C522.568,263.593 523.466,262.708 522.696,259.45C520.246,249.088 516.413,237.486 516.257,229.508C516.093,221.192 515.554,221.248 515.109,212.94Z" style="fill:rgb(255,21,55);"/>
                    <path d="M379.811,253.11C378.646,249.816 378.604,249.854 377.099,246.685C376.201,244.791 375.09,243.164 375.371,229.498C375.414,227.425 375.588,226.804 379.383,225.236C383.105,223.698 383.151,225.486 386.582,229.43C390.333,233.742 393.18,237.564 393.715,238.333C394.127,238.925 395.672,241.945 395.857,242.065C395.976,242.144 395.984,242.098 397.582,242.501C397.683,243.046 398.149,245.564 398.991,249.278C398.88,249.52 398.12,249.924 397.868,251.714C396.543,261.134 395.196,261.377 397.074,264.728C398.929,268.036 404.17,275.236 399.483,274.676C397.656,274.458 389.156,268.22 388.546,267.458C387.262,265.855 387.711,264.555 387.942,260.542C388.059,258.507 388.863,250.802 389.383,249.452C390.274,247.136 393.652,246.864 390.146,242.807C388.555,240.966 384.469,236.696 384.405,236.671C382.777,236.035 382.592,237.361 382.569,237.521C382.503,237.992 382.651,238 382.102,243.448C381.7,247.441 381.493,247.402 381.254,251.425L381.013,253.191C380.776,253.615 380.552,253.599 380.5,253.596C380.049,253.565 380.264,253.14 379.811,253.11Z" style="fill:rgb(255,21,55);"/>
                    <path d="M615.92,241.517C616.125,241.303 615.88,240.858 616.085,240.645C616.373,240.345 616.894,240.396 617.23,240.151C617.661,239.836 619.753,235.417 621.868,232.775C629.977,222.64 629.802,220.675 633.686,222.04C637.914,223.526 637.85,224.408 637.811,226.507C637.556,240.201 636.749,242.139 636.228,243.391C635.639,244.804 635.056,245.359 634.387,248.454C634.348,248.637 634.185,249.392 633.63,250.663C633.288,251.448 633.036,251.164 632.315,250.727C632.16,250.633 631.96,250.536 631.915,250.361C631.865,250.166 632.075,249.979 632.071,249.779C632.068,249.644 631.91,249.548 631.894,249.414C631.818,248.786 632.227,248.777 631.363,241.517C631.298,240.971 630.604,235.152 630.191,234.751C630.059,234.623 628.931,234.469 628.568,234.617C628.525,234.634 623.421,240.177 622.751,241.626C621.518,244.292 623.98,243.957 624.981,248.384C625.919,252.532 626.094,263.287 626.059,263.434C625.622,265.311 625.087,264.973 620.153,269.107C619.958,269.27 615.714,272.365 614.497,272.473C614.182,272.501 613.868,272.344 613.553,272.372C613.302,271.987 613.05,271.602 612.799,271.217C612.89,270.957 613.095,270.748 613.186,270.488C613.454,269.723 613.174,269.218 615.35,265.406C618.246,260.331 618.485,259.39 617.422,255.523C615.813,249.675 616.601,249.491 616.149,248.663C615.861,248.135 615.3,247.791 615.012,247.264C615.617,244.409 615.73,244.442 615.92,241.517Z" style="fill:rgb(255,21,55);"/>
                    <path d="M491.33,348.373C492.124,347.362 492.122,347.371 492.187,347.281C496.771,340.958 496.878,341.016 497.107,340.378C497.825,338.385 492.935,335.789 492.461,335.538C491.443,334.998 491.532,334.8 491.287,334.596C491.147,334.48 490.872,334.503 490.809,334.332C490.773,334.232 491.028,333.362 491.214,333.152C492.143,332.101 492.434,335.326 509.5,335.526C519.867,335.648 523.408,334.949 528.543,332.675C530.103,331.985 531.056,331.863 530.698,333.542C530.666,333.694 530.732,333.756 528.197,336.214C524.557,339.744 527.955,341.369 530.616,345.42C533.811,350.283 534.029,350.134 534.228,350.598C534.282,350.725 534.764,351.852 533.469,352.15C533.288,352.191 531.664,351.526 531.511,351.463C529.019,350.441 528.968,350.629 526.399,349.814C519.954,347.769 519.896,347.759 508.499,347.765C502.284,347.768 502.399,348.521 496.439,350.31C490.279,352.16 490.231,352.43 489.703,352.093C488.944,351.608 489.489,350.631 489.551,350.521C489.551,350.521 491.188,348.545 491.33,348.373Z" style="fill:rgb(255,21,55);"/>
                    <path d="M522.111,194.525C522.684,194.605 523.09,195.221 523.663,195.301C523.98,195.346 524.215,194.966 524.519,194.863C524.524,194.861 526.435,194.525 531.483,193.21C536.58,191.882 539.845,190.244 539.467,192.486C539.376,193.025 537.735,193.526 537.568,193.577C536.481,193.909 536.579,194.082 535.522,194.532C528.077,197.704 527.42,199.946 523.656,204.626C523.395,204.95 521.392,207.44 518.516,205.355C518.09,205.046 517.783,204.592 517.358,204.283C517.511,203.894 518.319,201.849 519.614,199.564C521.006,197.107 521.203,197.211 522.111,194.525Z" style="fill:rgb(255,21,55);"/>
                    <path d="M476.897,192.842C477.141,192.779 477.187,192.371 477.431,192.307C477.909,192.183 478.209,192.455 481.505,193.253C481.95,193.36 485.121,194.367 486.495,194.574C487.215,194.682 487.198,194.617 489.462,194.503C490.641,198.139 490.777,198.064 492.155,201.622C492.497,202.506 492.435,202.514 492.874,204.322C492.275,204.333 492.1,205.472 491.5,205.483C491.032,205.492 491,204.675 490.65,204.364C490.467,204.201 490.154,204.263 489.958,204.116C489.68,203.907 489.889,203.736 487.268,200.695C483.212,195.992 481.536,196.391 477.615,194.374C476.74,193.924 476.861,193.774 476.512,193.495L476.897,192.842Z" style="fill:rgb(255,21,55);"/>
                    <g transform="matrix(0.712511,0,0,0.712511,383.62484,123.132179)">
                        <path d="M235.069,100.032C235.108,100.065 235.995,101.732 238.562,102.295C238.881,102.365 241.994,103.048 242.441,103.549C243.284,104.494 242.463,105.215 242.357,105.308C241.96,105.657 239.751,105.759 239.522,105.77C227.485,106.329 226.467,105.098 223.401,108.412C222.403,109.491 219.246,112.904 210.388,121.382C208.656,123.04 206.927,124.075 205.823,125.704C203.535,129.077 206.288,133.227 206.552,133.442C206.758,133.61 207.107,133.535 207.302,133.715C207.484,133.883 207.423,134.216 207.588,134.399C207.758,134.588 208.04,134.632 208.253,134.77C211.652,136.964 213.849,136.668 223.617,143.322C228.172,146.425 232.709,148.685 233.419,149.559C233.518,149.68 234.26,150.593 233.516,151.514C232.255,153.074 227.563,150.085 222.624,148.183C209.639,143.181 209.723,142.794 207.491,142.708C203.205,142.543 203.978,146.477 204.508,156.5C204.658,159.34 204.047,160.06 203.999,160.232C202.232,158.941 201.859,159.273 200.89,157.299C198.76,152.962 198.881,151.448 198.058,146.582C197.829,145.229 196.539,130.468 199.184,123.383C200.326,120.322 204.66,113.847 206.845,111.88C208.879,110.049 212.818,107.592 213.36,107.254C214.281,106.679 222.42,102.735 229.368,101.044C231.804,100.451 231.834,100.708 234.285,100.083C234.424,100.048 234.526,99.897 234.67,99.887C234.811,99.878 234.928,100.041 235.069,100.032Z" style="fill:rgb(234,53,60);"/>
                    </g>
                    <g transform="matrix(0.712511,0,0,0.712511,383.62484,123.132179)">
                        <path d="M107.57,100.388C114.425,102.2 118.019,101.895 125.568,105.341C128.23,106.556 136.212,109.603 142.217,118.675C143.95,121.293 145.938,127.211 145.973,129.4C145.978,129.713 145.694,129.996 145.73,130.307C145.735,130.351 145.884,130.198 146.122,130.689C146.328,131.116 146.141,131.157 146.348,131.585C146.11,131.594 146.007,131.159 145.769,131.168C145.393,131.182 143.866,131.813 143.705,131.88C141.464,132.806 135.03,139.387 133.097,141.047C127.839,145.564 126.074,148.453 119.393,150.002C109.362,152.328 109.398,152.438 108.518,152.594C101.778,153.788 100.419,154.39 99.883,153.289C98.36,150.158 109.79,148.975 121.282,140.271C124.097,138.14 125.251,137.794 125.64,137.678C126.145,137.526 127.184,137.12 127.208,137.1C127.377,136.956 127.319,136.628 127.502,136.502C127.734,136.344 128.115,136.517 128.329,136.334C128.849,135.889 128.702,135.566 128.672,135.5C128.307,134.696 127.793,135.155 127.434,134.364C129.345,133.556 129.325,133.54 129.498,133.491C131.067,133.051 131.094,133.233 132.655,132.813C132.822,132.768 134.267,132.379 134.334,131.459C134.408,130.429 134.082,130.543 133.355,129.818C133.337,129.139 133.612,129.183 133.593,128.5C133.591,128.428 133.581,128.071 133.295,127.647C133.192,127.494 131.735,126.522 131.596,126.429C129.931,125.317 129.929,125.331 129.785,125.233C129.604,125.111 124.203,120.778 121.835,118.175C121.069,117.333 116.46,110.621 116.419,110.55C113.232,105.008 110.333,107.619 102.497,106.516C100.321,106.21 100.79,104.758 101.254,104.329C102.76,102.939 107.216,102.564 107.958,101.302C108.126,101.017 107.402,100.674 107.57,100.388Z" style="fill:rgb(239,50,58);"/>
                    </g>
                    <g transform="matrix(0.28603,0,0,0.28603,-765.312159,-1164.404805)">
                        <path d="M4688.561,4726.094C4678.052,4706.335 4664.214,4682.844 4663.142,4682.854C4663.179,4682.536 4660.333,4670.8 4659.929,4667.014C4657.99,4648.861 4652.268,4620.011 4648.311,4579.714C4646.042,4556.612 4644.25,4555.604 4641.337,4530.781C4639.444,4514.648 4639.193,4506.384 4633.603,4500.772C4587.661,4454.648 4587.855,4454.45 4582.796,4450.245C4580.087,4447.994 4570.096,4429.456 4572.296,4428.436C4573.374,4427.937 4574.086,4430.076 4575.189,4430.519C4576.495,4431.044 4576.711,4430.237 4579.787,4431.706C4584.85,4434.122 4584.876,4433.952 4592.882,4437.2C4600.364,4440.234 4605.953,4443.936 4610.96,4446.356C4626.48,4453.86 4626.49,4453.813 4627.824,4454.494C4656.543,4469.159 4680.569,4479.445 4687.034,4482.974C4701.519,4490.882 4726.595,4501.503 4729.418,4506.318C4731.346,4509.607 4733.72,4537.254 4736.205,4551.71C4743.045,4591.514 4741.385,4598.187 4745.498,4618.386C4748.441,4632.844 4761.645,4642.468 4768.234,4652.923C4780.828,4672.904 4807.396,4700.994 4809.118,4712.626C4809.528,4715.391 4812.803,4723.081 4815.206,4739.058C4816.352,4746.671 4817.299,4756.167 4817.643,4767.908C4817.529,4770.053 4817.435,4773.919 4817.359,4778.904C4816.962,4804.824 4817.033,4860.994 4817.164,4862.791C4818.641,4883.061 4818.3,4885.542 4806.591,4939.726C4800.218,4969.219 4802.336,4969.565 4795.426,4999.005C4793.475,5007.319 4787.58,5046.673 4783.894,5065.241C4778.753,5091.143 4779.949,5092.647 4775.235,5111.064C4768.179,5138.637 4765.289,5175.232 4756.608,5187.264C4754.155,5190.664 4730.506,5223.446 4726.331,5230.039C4724.59,5232.79 4724.122,5232.422 4703.428,5263.688C4701.242,5266.991 4700.557,5266.434 4674.466,5303.854C4665.757,5316.344 4663.877,5322.16 4641.914,5344.982C4635.752,5351.385 4633.499,5352.875 4632.663,5353.428C4628.151,5356.413 4619.5,5364.169 4619.657,5363.608C4620.702,5359.878 4623.46,5350.976 4624.335,5348.595C4630.567,5331.629 4645.47,5293.451 4650.897,5275.854C4655.176,5261.978 4676.092,5215.079 4677.138,5205.418C4678.224,5195.391 4676.212,5135.081 4678.137,5128.797C4678.979,5126.051 4694.416,5095.764 4695.468,5094.017C4703.573,5080.564 4726.45,5033.827 4751.494,4989.135C4769.641,4956.75 4769.691,4956.61 4770.78,4953.561C4772.389,4949.059 4770.688,4931.521 4767.486,4928.042C4785.892,4885.717 4790.815,4846.595 4779.928,4815.335C4780.107,4816.281 4780.277,4817.242 4780.438,4818.218C4781.948,4827.383 4783.968,4864.4 4776.358,4877.227C4776.172,4877.541 4774.391,4880.543 4773.778,4880.991C4772.97,4881.582 4772.748,4880.576 4771.966,4881.135C4770.13,4882.449 4770.824,4883.105 4768.995,4884.414C4764.027,4882.17 4764.548,4881.439 4759.88,4878.608C4755.593,4876.007 4732.142,4863.091 4727.964,4860.379C4722.787,4857.019 4704.294,4846.911 4701.228,4844.393C4700.007,4843.39 4699.198,4841.868 4697.816,4841.103C4696.827,4840.556 4695.445,4841.192 4694.456,4840.645C4695.587,4840.014 4695.774,4828.986 4691.487,4827.462C4691.466,4826.614 4691.123,4822.271 4691.102,4821.423C4691.071,4820.18 4689.301,4819.601 4688.872,4818.434C4688.736,4818.065 4689.254,4816.04 4687.644,4811.762C4684.869,4804.39 4679.366,4799.759 4680.695,4788.49C4681.858,4778.628 4682.182,4778.729 4682.593,4768.819C4683.003,4758.941 4685.772,4753.529 4681.614,4738.987C4680.942,4736.638 4680.02,4734.354 4679.526,4731.961C4679.404,4731.371 4680.177,4731.215 4678.084,4725.796C4678.984,4725.781 4679.406,4727.345 4680.306,4727.33C4680.393,4727.329 4682.136,4725.365 4688.561,4726.094Z" style="fill:rgb(255,21,55);"/>
                    </g>
                </g>
                <g id="Boca" transform="matrix(2.595781,0,0,3.496142,1743.555998,-2056.133619)">
                    <path d="M497.514,318.065C491.078,318.274 483.07,320.694 481.405,321.012C474.629,322.304 473.217,323.605 472.541,322.474C471.692,321.056 476.19,318.884 476.589,318.691C482.025,316.067 497.111,307.523 499.438,307.147C501.799,306.767 507.818,310.408 510.442,310.81C514.05,311.363 517.315,307.057 520.51,307.064C523.069,307.07 533.334,311.9 533.706,312.106C535.005,312.823 537.171,313.692 537.359,313.791C540.335,315.349 540.33,315.323 543.389,316.726C547.478,318.603 550.359,319.337 548.771,320.814C548.269,321.28 548.201,321.043 547.541,320.892C539.835,319.122 539.752,319.693 524.483,317.632C521.064,317.17 517.337,318.736 512.545,319.72C509.373,320.372 504.204,318.517 497.514,318.065Z" style="fill:rgb(4,5,4);"/>
                </g>
                <g id="Nariz" transform="matrix(2.595781,0,0,3.496142,1743.555998,-2056.133619)">
                    <path d="M501.43,280.646C499.841,279.914 499.432,279.203 495.529,279.706C493.275,279.996 493.236,280.055 491.605,281.638C491.286,280.438 491.719,280.257 490.457,278.53C488.952,276.47 489.478,276.079 491.354,274.338C493.998,271.887 495.699,273.383 500.908,277.272C501.062,277.387 501.332,277.381 501.41,277.557C501.54,277.853 501.238,278.29 501.459,278.527C501.664,278.747 502.215,278.313 502.36,278.576C502.448,278.735 502.3,278.711 501.43,280.646Z" style="fill:rgb(4,5,4);"/>
                    <path d="M516.938,276.905C519.449,275.529 519.501,275.653 521.816,273.984C524.155,272.298 525.595,273.138 526.472,273.55C530.485,275.437 529.512,277.626 525.396,279.241C523.29,280.068 519.5,278.934 519.284,278.909C518.931,278.868 518.567,279.001 518.219,278.931C516.912,278.666 517.344,278.178 516.938,276.905Z" style="fill:rgb(4,5,4);"/>
                </g>
            </g>
        </g>
    </g>
</svg>
