<?xml version="1.0" encoding="UTF-8" standalone="no"?>
<!DOCTYPE svg PUBLIC "-//W3C//DTD SVG 1.1//EN" "http://www.w3.org/Graphics/SVG/1.1/DTD/svg11.dtd">
<svg width="100%" height="100%" viewBox="0 0 2255 542" version="1.1" xmlns="http://www.w3.org/2000/svg" xmlns:xlink="http://www.w3.org/1999/xlink" xml:space="preserve" xmlns:serif="http://www.serif.com/" style="fill-rule:evenodd;clip-rule:evenodd;stroke-linejoin:round;stroke-miterlimit:2;">
    <g transform="matrix(1,0,0,1,-3633.749131,-4543.382023)">
        <g transform="matrix(1.290907,0,0,1,524.664825,5432.966582)">
            <g transform="matrix(2.708284,0,0,3.496142,1895.170926,-2347.646621)">
                <g id="Same_flat_vector_202604040619.png">
                    <path d="M605.343,419.061C606.929,417.8 609.916,416.205 613.882,417.575C636.641,425.441 698.406,450.741 698.539,451.489C698.745,452.652 699.253,452.303 709.662,457.139C711.733,458.101 734.037,468.327 736.547,469.393C743.141,472.193 742.941,472.609 749.561,475.359C750.124,475.592 750.046,475.746 756.499,478.503C759.583,479.821 759.496,479.974 762.587,481.285C763.116,481.508 777.827,488.245 779.29,488.95C779.708,489.152 779.76,489.029 784.596,491.291C786.757,492.301 786.809,492.156 792.341,494.837C800.192,498.643 800.892,497.972 802.194,500.643C803.209,502.725 810.955,519.747 811.786,521.368C812.953,523.645 821.595,542.303 821.649,542.436C822.412,544.337 826.033,551.755 827.641,555.433C828.301,556.942 828.723,557.597 832.371,565.563C832.506,565.858 834.288,569.253 834.359,569.566C834.451,569.98 834.389,570.419 834.482,570.833C832.67,570.984 832.665,570.924 832.526,570.996C832.102,571.216 831.924,571.779 831.5,571.999L192.5,571.999C192.073,571.776 191.896,571.21 191.469,570.986C191.331,570.914 191.326,570.975 189.522,570.831C190.064,569.199 189.961,569.171 190.798,567.655C191.571,566.254 210.632,524.453 214.944,515.724C217.361,510.832 221.359,500.656 223.13,499.067C224.874,497.503 240.52,491.427 247.593,487.677C248.195,487.358 248.238,487.509 255.346,484.162C259.391,482.257 259.31,482.13 263.49,480.476C263.988,480.279 263.913,480.139 269.589,477.719C272.963,476.28 275.922,474.606 281.437,472.358C284.917,470.94 284.729,470.549 296.554,465.625C297.777,465.116 297.731,465.047 311.623,458.76C315.52,456.996 315.429,456.839 319.384,455.192C324.258,453.163 388.332,425.266 409.233,417.878C411.801,416.97 414.699,418.734 416.623,420.309C414.297,421.926 412.766,422.425 415.033,424.472C430.4,438.344 455.517,459.871 466.656,469.848C468.349,471.365 468.364,471.324 488.108,488.479C490.444,490.508 490.426,490.518 499.71,498.785C500.305,499.316 500.314,499.287 507.241,505.319C511.26,508.819 511.761,509.998 514.245,507.889C515.89,506.492 527.276,496.104 528.405,495.075C529.13,494.413 538.276,486.5 539.136,485.756C540.336,484.717 546.917,479.024 554.102,472.73C555.708,471.323 555.66,471.293 557.272,469.913C561.032,466.693 561.048,466.738 564.69,463.385C565.071,463.034 587.131,443.817 590.78,440.486C591.369,439.949 591.402,440.006 598.335,433.989C603.696,429.337 603.563,429.222 608.968,424.617C609.117,424.49 610.513,423.3 609.952,422.38C609.648,421.884 609.443,422.003 605.343,419.061Z"/>
                </g>
            </g>
        </g>
    </g>
</svg>
