<?xml version="1.0" encoding="UTF-8" standalone="no"?>
<!DOCTYPE svg PUBLIC "-//W3C//DTD SVG 1.1//EN" "http://www.w3.org/Graphics/SVG/1.1/DTD/svg11.dtd">
<svg width="100%" height="100%" viewBox="0 0 2255 797" version="1.1" xmlns="http://www.w3.org/2000/svg" xmlns:xlink="http://www.w3.org/1999/xlink" xml:space="preserve" xmlns:serif="http://www.serif.com/" style="fill-rule:evenodd;clip-rule:evenodd;stroke-linejoin:round;stroke-miterlimit:2;">
    <g transform="matrix(1,0,0,1,-6503.625839,-4282.735615)">
        <g transform="matrix(3.496142,0,0,3.496142,5856.161745,3081.825811)">
            <g id="camisaPretaFundoNova" transform="matrix(0.28603,0,0,0.28603,-1675.035671,-881.493441)">
                <path d="M7349.944,4415.869C7404.138,4465.784 7487.162,4536.912 7538.877,4577.761C7539.423,4578.193 7540.862,4578.055 7540.724,4578.737C7537.497,4594.636 7719.597,4609.695 7750.764,4577.495C7771.638,4555.93 7874.062,4470.018 7936.862,4411.397C7932.206,4399.874 7922.106,4386.404 7921.13,4384.527C7920.382,4383.092 7920.25,4326.819 7920.238,4321.8C7920.18,4297.445 7920.465,4288.829 7920.692,4282.736C7920.692,4282.736 7942.479,4287.717 7942.482,4290.666C7942.193,4306.405 7939.969,4310.203 7948.051,4318.883C7949.074,4319.981 7978.405,4344.86 7986.357,4357.906L7986.397,4357.768C8022.212,4386.985 8001.351,4396.942 8014.581,4441.438C8021.28,4463.97 8013.884,4468.965 8034.685,4480.758C8035.202,4481.052 8073.49,4482.569 8118.913,4493.869C8211.077,4516.796 8383.203,4582.685 8383.203,4582.685L8540.154,4667.25L8693.176,4845.693C8693.176,4845.693 8757.726,5069.549 8758.496,5072.987C8752.241,5073.509 8753.245,5074.379 8748.072,5077.064L8484.011,5077.064L8485.267,5079.668L6533.024,5079.668L6534.25,5077.064L6514.038,5077.064C6508.831,5074.338 6509.816,5073.475 6503.626,5072.979C6508.592,5058.035 6619.289,4823.66 6621.124,4822.083C6622.678,4820.748 6667.55,4721.623 6729.202,4693.639L6902.74,4563.042L7233.416,4487.099C7245.237,4485.42 7262.193,4478.521 7263.429,4476.837C7270.533,4467.154 7283.81,4384.695 7297.067,4361.908C7303.54,4350.783 7305.397,4344.265 7314.105,4321.606C7318.077,4311.269 7335.327,4298.435 7339.955,4293.978C7345.064,4289.056 7358.751,4286.62 7358.772,4286.946C7359.993,4305.915 7360.676,4305.851 7360.168,4324.886C7361.311,4340.9 7362.626,4343.656 7363.425,4370.792C7363.863,4385.664 7363.166,4383.685 7361.335,4388.641C7357.268,4399.648 7353.475,4408.632 7349.944,4415.869Z"/>
            </g>
        </g>
    </g>
</svg>
