<?xml version="1.0" encoding="UTF-8" standalone="no"?>
<!DOCTYPE svg PUBLIC "-//W3C//DTD SVG 1.1//EN" "http://www.w3.org/Graphics/SVG/1.1/DTD/svg11.dtd">
<svg width="100%" height="100%" viewBox="0 0 1736 1546" version="1.1" xmlns="http://www.w3.org/2000/svg" xmlns:xlink="http://www.w3.org/1999/xlink" xml:space="preserve" xmlns:serif="http://www.serif.com/" style="fill-rule:evenodd;clip-rule:evenodd;stroke-linejoin:round;stroke-miterlimit:2;">
    <g transform="matrix(1,0,0,1,-8407.97074,-2830.221834)">
        <g transform="matrix(1.290907,0,0,1,524.664825,5432.966582)">
            <g id="Capacete" transform="matrix(2.625768,0,0,3.389621,5476.649039,-2602.744747)">
                <path d="M612.689,197.386L613.5,197.055C616.755,195.653 646.441,148.265 705.537,143.83C709.981,143.496 726.013,174.468 732.379,185.501C701.696,191.761 683.993,195.587 656.537,219.539C653.644,222.063 636.193,244.366 633.205,261.481C633.764,264.678 634.038,270.253 637.962,264.796C638.362,264.24 638.826,263.524 639.505,263.442C641.098,263.251 646.296,299.164 651.777,298.685C656.108,298.307 657.013,292.486 658.177,296.673C658.314,297.168 665.79,340.181 668.51,340.405C671.273,340.634 673.818,338.165 676.581,338.394L682.798,370.481C676.32,369.384 602.771,388.954 602.771,388.954L562.902,428.259L530.228,456.067L464.673,455.095L426.467,426.235C426.467,426.235 390.689,390.993 389.323,389.367C388.392,388.258 357.99,383.607 337.389,377.867C325.938,374.677 312.039,370.108 310.5,370.094L309.061,370.477C309.462,367.892 309.534,368.102 315.457,338.41C315.985,338.473 324.128,344.667 326.332,334.46C330.317,316.002 329.355,315.95 333.302,297.437C334.193,293.26 340.172,300.349 342.248,298.144C344.612,295.634 351.488,264.07 351.652,263.622C352.15,262.264 355.214,267.049 355.537,267.072C357.682,267.227 358.697,261.989 358.796,261.48L359.5,260.354C361.057,257.628 353.993,249.206 341.531,225.474C310.627,191.929 262.472,186.307 258.972,185.575C265.259,174.842 282.677,143.856 285.515,143.787C296.774,143.517 345.28,150.993 378.401,198.444C360.867,223.851 423.6,232.739 423.499,232.503C430.467,232.213 474.869,236.258 555.4,234.318C559.814,234.211 616.582,224.928 619.271,214.443C620.478,209.738 613.469,198.624 612.689,197.386Z" style="fill:rgb(10,3,3);"/>
                <path d="M295.5,0L363.5,0C364.176,0.476 364.853,0.953 365.529,1.429C365.673,1.622 365.6,1.926 365.744,2.119C365.898,2.326 365.92,2.303 370.389,5.658C372.618,7.333 373.003,6.818 375.189,5.095C376.522,4.043 378.338,2.332 378.352,2.309C378.486,2.083 378.384,1.764 378.518,1.538C378.845,1.025 379.173,0.513 379.5,0L410.5,0C397.627,11.699 396.261,30.51 397.335,38.519C398.63,48.176 398.957,48.106 401.343,57.539C401.889,59.696 407.113,75.895 410.054,81.601C413.506,91.276 422.184,105.469 422.789,106.31C422.918,106.489 423.272,106.981 424.299,108.619C425.396,110.184 428.939,115.748 433.451,120.547C438.566,125.987 438.639,125.894 444.316,130.724C446.426,132.52 454.761,137.812 456.446,138.604C456.608,138.68 457.763,139.223 458.456,139.583C469.715,145.24 476.153,145.836 486.484,147.615C486.484,147.615 488.342,147.834 488.503,147.853C496.429,148.617 500.865,148.01 503.507,147.812C517.947,145.681 521.495,145.157 532.347,140.179C532.958,139.899 532.951,139.922 533.572,139.657C539.006,137.036 545.552,132.597 548.778,129.832C551.241,127.722 555.329,124.673 562.173,116.245C562.578,115.748 564.777,113.039 566.964,109.819C569.696,106.193 571.875,102.081 580.023,86.258C580.252,85.813 580.816,84.718 582.309,80.436C585.357,74.156 584.984,74.023 587.331,67.442C589.691,60.826 594.245,44.082 594.63,36.507C595.003,29.151 594.494,24.483 591.723,16.422C590.772,13.654 588.101,6.259 581.5,-0L612.5,-0C612.815,0.464 612.444,0.583 612.757,1.043C613.012,1.418 613.223,1.124 613.508,1.484C613.668,1.688 613.568,2.015 613.702,2.237C613.96,2.665 617.105,5.352 617.41,5.613C619.559,7.45 619.963,6.787 622.251,5.145C624.939,3.216 624.943,3.242 625.152,3.046C626.569,1.714 626.351,1.548 626.475,1.437C626.697,1.239 627.053,1.258 627.296,1.086C627.736,0.773 628.059,0.313 628.5,0L695.5,0C694.826,0.561 695.134,0.806 694.456,1.371C694.071,1.691 693.94,1.336 693.545,1.627C693.373,1.754 693.453,2.069 693.303,2.222C693.134,2.395 693.021,2.202 690.768,3.872C686.228,7.239 678.127,12.648 667.425,21.405C664.247,24.006 662.046,26.164 661.6,26.601C660.664,27.52 654.486,33.579 651.399,39.442C648.323,45.287 648.197,45.213 647.947,45.73C647.682,46.276 644.663,52.504 644.638,52.564C642.606,57.349 642.137,57.543 640.724,60.605C636.124,70.572 636.082,70.532 631.32,80.416C621.49,100.818 621.188,100.646 620.374,102.437C619.491,104.377 612.015,117.1 611.272,118.366C608.096,123.86 604.426,128.822 603.779,129.696C597.481,138.21 589.178,152.119 569.268,166.155C557.009,174.798 549.625,177.618 544.618,179.775C540.577,181.515 531.274,184.668 528.435,185.211C522.063,186.429 514.983,188.311 502.504,188.682C478.127,189.407 467.302,185.92 465.498,185.51C459.935,184.245 459.947,184.271 454.525,182.424C441.998,178.155 439.5,176.967 426.772,169.084C425.88,168.531 417.798,162.827 415.354,160.67C406.569,152.916 403.714,150.377 395.66,140.379C392.033,135.877 387.812,129.689 387.162,128.736C383.935,124.005 384,123.987 380.96,119.144C380.455,118.196 373.746,106.705 372.138,103.697C368.056,96.063 368.211,95.989 367.856,95.326C365.985,91.83 366.067,91.805 363.112,85.682C358.334,75.78 358.157,75.888 356.612,72.444C356.509,72.215 355.559,70.098 355.316,69.584C354.903,68.711 351.077,60.608 350.096,58.703C349.177,56.916 346.45,51.315 346.136,50.67C339.359,36.747 337.023,33.045 330.353,26.657C319.442,16.206 307.27,8.553 301.629,4.324C298.96,2.323 298.881,2.434 298.677,2.228C298.532,2.08 298.62,1.766 298.448,1.649C297.607,1.074 297.391,1.644 296.552,1.047C296.149,0.76 295.903,0.287 295.5,0Z" style="fill:rgb(244,239,209);fill-opacity:1;"/>
                <path d="M366.478,164.52C368.855,166.613 370.786,168.867 370.953,169.027C380.327,178.015 384.642,186.856 385.592,187.345C387.185,188.166 387.516,186.547 395.433,184.294C398.395,183.451 398.254,183.02 405.439,181.26C405.888,181.15 420.807,176.585 422.483,176.698C423.078,176.738 423.133,176.742 429.174,179.986C429.267,180.036 430.193,180.534 430.288,180.681C430.438,180.916 430.278,181.27 430.428,181.504C430.253,181.635 430.19,181.882 430.016,182.013C429.538,182.37 427.037,182.429 424.416,183.225C418.043,185.162 417.989,184.892 411.567,186.723C409.318,187.365 393.871,191.38 391.307,193.192C388.676,195.051 388.476,196.163 383.792,202.703C379.024,209.362 379.119,210.729 379.175,211.524C379.529,216.6 387.411,216.848 396.491,219.528C397.52,219.832 411.024,223.053 414.444,223.766C414.55,223.788 430.143,226.231 431.508,226.445C431.745,226.482 454.851,229.412 466.521,230.221C487.779,231.694 517.146,231.162 533.493,229.436C536.048,229.166 542.332,228.727 547.452,228.073C555.338,227.066 555.59,227.623 561.487,226.431C571.355,224.436 571.638,225.487 585.391,222.085C609.945,216.01 611.177,215.971 611.908,212.579C612.773,208.566 610.588,207.508 604.034,196.825C602.316,194.024 599.85,192.947 599.397,192.749C597.136,191.762 595.924,191.697 590.444,189.668C590.417,189.658 578.821,186.02 574.614,185.026C569.654,183.853 566.158,182.483 564.572,182.229C564.253,182.178 563.925,182.193 563.609,182.127C563.462,182.096 563.346,181.962 563.197,181.941C563.046,181.92 562.885,182.068 562.745,182.007C562.704,181.988 562.811,181.897 562.369,181.576C562.258,181.496 562.089,181.53 561.978,181.449C562.042,181.191 561.729,180.931 561.793,180.673C561.865,180.382 564.092,179.284 564.302,179.181C568.381,177.169 568.246,176.919 568.617,176.785C569.607,176.427 570.113,176.245 581.471,179.598C591.478,182.553 593.409,183.301 594.422,183.693C599.076,185.496 599.826,185.152 603.707,187.069C606.772,188.583 606.924,186.424 609.599,182.571C610.24,181.649 610.209,181.65 610.843,180.733C611.844,179.284 616.542,173.484 618.47,171.471C618.857,171.068 622.85,166.69 624.875,164.821C626.912,163.125 626.937,163.184 627.107,163.031C630.774,159.715 630.814,159.784 634.643,156.674C637.517,154.341 646.908,148.067 654.384,144.278C664.105,139.351 668.041,138.499 670.498,137.495C673.703,136.187 674.033,136.454 677.465,135.377C679.937,134.602 690.929,131.152 709.508,130.741C715.044,130.619 715.731,132.249 719.638,138.415C724.997,146.872 731.766,158.568 732.791,160.339C733.264,161.156 734.707,163.175 735.425,164.545C736.715,167.004 738.003,168.564 741.857,175.305C745.511,181.699 747.498,184.459 748.617,186.432C750.412,189.6 754.462,194.16 750.246,198.225C746.872,201.477 745.972,198.701 726.509,200.604C714.698,201.758 701.457,206.95 697.309,209.126C693.123,211.322 690.884,212.113 689.674,212.831C683.814,216.306 683.662,216.029 678.138,220.003C673.186,223.564 673.22,223.589 668.429,227.377C666.884,228.627 666.889,228.616 666.735,228.757C656.899,237.817 651.962,243.292 647.371,250.421C645.772,252.904 644.574,253.363 645.463,256.511C647.098,262.3 647.733,267.193 648.582,269.47C650.391,274.325 652.467,285.632 653.292,287.661C653.357,287.822 654.28,288.291 654.436,288.247C655.049,288.074 665.188,280.011 667.189,278.164C671.087,274.566 671.215,274.726 674.971,270.971C683.491,262.454 686.341,258.055 686.683,257.628C687.579,256.898 687.633,256.589 688.685,257.095C689.446,257.461 689.272,257.628 689.733,258.337C691.656,261.299 691.499,261.611 690.193,264.278C686.053,270.619 672.422,282.635 669.389,285.375C665.594,288.804 663.77,288.356 664.602,292.48C666.854,303.645 666.833,303.642 667.046,304.609C668.684,312.034 671.786,330.131 671.886,330.284C672.289,330.904 673.383,330.559 673.508,330.52C673.724,330.452 676.089,328.454 676.309,328.268C677.93,326.899 677.968,326.976 679.626,325.665C683.391,322.691 686.205,320.289 686.767,319.809C701.027,307.639 705.933,298.04 707.81,295.715C708.553,295.018 708.463,294.712 709.476,294.802C710.153,294.862 710.163,294.896 710.547,295.452C713.476,299.69 711.839,301.159 711.301,302.357C705.763,311.122 702.922,313.426 698.908,317.867C695.478,321.661 688.92,327.386 684.488,330.485C682.94,331.566 682.696,332.114 683.985,339.421C684.715,343.554 685.595,345.879 687.091,355.561C687.314,357.005 687.428,356.959 690.392,373.519C691.471,379.553 691.892,381.457 692.403,381.636C694.129,382.239 695.009,380.706 698.523,378.533C698.704,378.421 705.678,372.843 707.344,371.325C707.826,370.887 714.632,364.28 716.521,361.516C717.789,359.659 719.979,357.67 724.13,349.33C725.667,346.241 726.218,343.016 726.315,342.447C726.339,342.305 726.585,340.867 726.789,340.711C726.886,340.637 726.892,340.722 728.307,340.866C729.341,342.212 729.379,342.172 730.253,343.634C730.835,344.609 732.975,348.189 727.651,357.59C726.186,360.176 721.323,367.562 716.336,372.328C714.983,373.621 711.708,377.303 704.22,383.13C703.388,383.777 696.156,389.14 692.415,390.205C687.452,391.618 686.04,386.975 685.864,386.395C685.487,385.154 685.081,383.82 682.798,370.481C677.575,342.045 677.526,342.061 677.164,339.574C677.058,338.842 677.285,338.638 676.581,338.394C675.465,338.006 675.124,338.268 672.66,339.774C669.351,341.796 667.013,340.178 666.33,337.546C663.744,327.585 664.559,327.427 661.266,312.554C660.699,309.996 658.698,297.657 658.177,296.673C658.114,296.554 657.671,295.719 656.651,295.947C656.088,296.072 652.239,300.129 649.698,298.214C647.022,296.197 648.107,294.805 645.202,284.584C644.214,281.108 644.291,279.326 642.523,273.492C641.522,270.19 640.662,265.213 640.537,264.486C640.389,263.63 640.375,263.441 639.505,263.442C638.349,263.444 638.413,263.733 637.962,264.796C637.737,265.325 637.567,265.876 637.368,266.415C637.106,267.122 637.21,267.313 636.475,267.413C634.903,267.627 635.173,266.935 634.517,265.491C634.398,265.229 633.414,263.409 633.264,262.547C633.202,262.197 633.266,261.832 633.205,261.481C633.326,261.11 633.021,260.974 636.95,253.73C637.586,252.557 641.426,246.569 643.614,243.583C658.576,223.163 675.038,213.568 681.343,209.262C683.721,207.639 690.816,204.249 691.657,203.847C698.037,200.799 710.726,196.299 717.58,194.897C727.101,192.949 734.064,192.789 735.509,192.756C740.526,192.641 742.27,192.779 742.543,192.581C743.585,191.822 743.307,191.567 742.745,190.394C742.655,190.205 732.691,173.67 731.567,171.465C730.898,170.153 722.701,156.698 722.575,156.456C721.932,155.213 721.733,155.357 713.63,141.419C712.108,138.801 712.156,137.8 708.512,137.89C692.313,138.292 685.212,140.617 677.576,142.737C673.456,143.882 673.558,144.153 669.475,145.426C666.874,146.237 655.842,151.443 653.656,152.758C646.651,156.975 633.174,164.284 618.255,182.305C617.92,182.71 617.927,182.712 615.184,186.262C614.733,186.845 611.653,191.328 611.547,191.529C610.478,193.543 610.626,194.416 612.689,197.386C616.146,202.869 620.542,207.86 619.271,214.443C618.591,217.963 615.469,220.808 613.615,221.72C609.445,223.77 609.104,223.286 597.526,226.589C596.7,226.824 582.477,230.236 578.548,230.79C574.458,231.366 574.49,231.41 570.398,232.113C569.486,232.353 568.574,232.593 567.662,232.833C566.935,232.801 566.207,232.768 565.479,232.735C557.191,234.209 555.279,234.485 532.516,236.689C532.142,236.725 520.334,237.5 510.514,237.831C488.155,238.585 473.412,237.508 463.526,237.067C460.772,236.944 438.159,235.075 428.452,232.981C425.993,232.451 425.999,232.399 423.499,232.503C422.06,232.238 422.078,232.243 420.637,232.055C413.577,230.718 413.524,231.049 406.539,229.348C402.035,228.251 399.542,228.083 390.485,225.556C388.341,224.958 377.791,222.956 374.968,219.145C369.128,211.262 373.131,206.081 378.401,198.444C381.33,194.137 381.603,193.694 379.941,191.203C378.589,189.177 377.26,186.728 372.248,180.704C369.185,177.023 362.839,170.647 362.048,169.97C354.12,163.186 350.322,160.671 349.718,160.197C347.023,158.08 338.954,153.129 336.342,151.826C324.859,146.096 323.258,146.025 316.481,143.551C314.688,142.897 304.555,139.892 299.544,139.209C289.562,137.848 282.498,137.691 281.603,137.962C279.903,138.476 279.487,139.671 278.31,141.368C277.91,141.943 271.922,152.441 265.115,163.261C263.42,165.955 263.657,166.082 261.915,168.754C261.563,169.293 261.71,169.369 257.813,175.685C257.38,176.386 257.399,176.391 252.608,184.563C249.056,190.623 247.972,191.251 248.804,192.22C249.465,192.99 249.72,192.236 261.469,192.9C262.72,192.97 275.272,194.917 279.577,196.25C280.643,196.58 294.78,199.938 311.278,209.867C311.81,210.187 314.061,211.644 314.303,211.8C319.341,215.062 327.561,221.434 329.146,222.893C346.52,238.897 351.478,248.8 354.183,252.719C354.269,252.843 357.803,259.122 358.117,259.68C358.193,259.814 358.167,259.813 358.796,261.48C358.762,261.654 358.887,262.254 358.412,263.462C358.374,263.557 358.406,263.557 356.591,266.594C356.143,267.344 355.974,267.096 355.537,267.072C354.89,267.038 354.85,267.02 354.56,266.448C353.296,263.951 353.467,263.853 353.282,263.696C353.082,263.526 351.811,263.485 351.652,263.622C351.289,263.934 351.652,264.085 350.299,269.44C349.405,272.978 349.501,272.989 348.58,276.521C343.471,296.114 344.315,296.717 342.248,298.144C339.686,299.913 335.597,295.99 335.324,295.892C333.81,295.349 333.659,295.87 333.302,297.437C333.03,298.632 333.218,298.655 330.342,312.465C329.962,314.288 328.74,322.43 327.501,327.5C326.4,332.002 326.483,337.556 324.504,339.504C322.307,341.665 319.62,340.174 319.251,339.969C316.361,338.365 316.338,338.199 315.457,338.41C314.808,338.565 314.522,338.675 313.351,346.477C313.107,348.104 313.137,350.193 311.557,356.514C311.282,357.615 310.691,359.981 309.061,370.477C307.761,376.993 307.753,376.978 306.666,383.526C306.267,385.928 306.157,390.748 300.518,390.294C299.178,390.186 296.447,389.965 285.893,382.016C283.398,380.136 283.656,379.849 281.175,377.931C280.588,377.477 278.118,375.567 274.458,371.537C270.165,366.811 265.157,359.783 263.633,356.433C262.703,354.39 258.105,348.124 262.172,342.24C262.766,341.381 262.649,341.258 263.561,340.764C263.824,340.621 264.177,340.721 264.44,340.579C265.904,342.743 265.08,343.086 267.305,348.577C268.536,351.615 273.615,360.035 278.656,365.35C281.216,368.049 286.106,372.875 289.551,375.434C290.25,375.953 297.856,381.601 298.471,381.679C299.879,381.858 300.148,380.569 300.183,380.402C301.103,375.997 300.775,375.948 301.734,371.553C302.153,369.636 302.03,369.634 306.132,347.424C307.326,340.96 306.995,340.914 308.471,334.494C309.22,331.234 307.943,331.413 302.387,326.632C299.288,323.965 296.046,321.779 290.011,314.914C286.492,310.911 286.421,310.982 283.282,306.658C283.085,306.386 283.15,306.35 280.937,303.178C280.229,301.678 278.564,299.656 281.427,295.424C281.51,295.3 282.114,294.407 283.231,294.931C283.325,294.975 283.315,294.992 284.563,296.461C285.867,298.429 291.449,308.307 305.658,320.316C308.947,323.097 309.003,323 312.321,325.728C314.809,327.773 314.931,327.605 317.332,329.754C319.711,331.881 319.757,329.602 320.429,326.485C323.454,312.437 322.826,312.311 324.503,306.501C324.821,305.4 324.595,305.367 327.173,292.432C327.926,288.654 326.185,289.097 317.703,281.274C316.158,279.85 306.277,270.954 301.682,264.351C299.77,261.483 300.164,261.037 302.274,258.314C303.84,256.291 304.48,257.496 305.263,257.676C306.656,259.383 306.397,259.554 307.843,261.198C316.75,271.32 316.897,271.169 320.587,274.4C327.528,280.477 327.407,280.601 334.619,286.341C335.542,287.076 335.56,287.036 336.332,287.754C338.698,289.954 338.869,286.749 338.894,286.61C340.041,280.363 346.582,256.188 346.556,254.5C346.545,253.742 346.531,252.847 341.635,246.402C340.154,244.453 338.238,241.591 331.88,235.134C327.842,231.033 324.248,228.001 323.554,227.415C320.498,224.679 310.614,217.06 300.688,212.06C282.25,202.772 268.174,199.476 249.505,199.813C246.312,199.87 243.116,200.62 240.861,197.277C239.039,194.577 240.595,191.111 240.813,190.626C241.68,188.695 243.723,185.782 244.047,185.212C246.365,181.133 255.802,165.138 259.083,160.241C259.763,159.225 266.108,147.984 269.143,143.253C269.586,142.562 269.506,142.521 274.494,134.496C277.26,130.045 281.622,130.592 287.472,130.889C291.956,131.116 304.078,132.711 308.412,133.835C309.22,134.044 309.197,134.068 318.484,136.561C319.945,136.953 327.912,139.802 330.28,140.944C343.962,147.543 343.713,147.977 345.716,149.093C346.63,149.602 350.251,151.619 356.593,156.368C361.735,160.219 361.773,160.157 366.478,164.52Z" style="fill:rgb(244,237,208);"/>
                <path d="M611.272,118.366C611.346,118.545 612.197,120.608 612.197,120.608C612.257,120.836 611.941,121.433 612.75,123.391C616.262,131.886 616.877,136.638 618.394,140.537C620.538,146.048 619.866,146.221 622.545,156.49C622.658,156.923 623.24,160.175 623.424,161.522C623.468,161.845 623.379,162.202 623.523,162.494C623.823,163.104 624.056,162.912 624.398,163.5C624.759,164.12 624.519,164.207 624.875,164.821C622.85,166.69 618.857,171.068 618.47,171.471C616.542,173.484 611.844,179.284 610.843,180.733C610.209,181.65 610.24,181.649 609.599,182.571C606.924,186.424 606.772,188.583 603.707,187.069C599.826,185.152 599.076,185.496 594.422,183.693C593.409,183.301 591.478,182.553 581.471,179.598C570.113,176.245 569.607,176.427 568.617,176.785C568.246,176.919 568.381,177.169 564.302,179.181C564.092,179.284 561.865,180.382 561.793,180.673C561.729,180.931 562.042,181.191 561.978,181.449L560.945,182.569C560.411,182.471 559.878,182.374 559.344,182.276C559.056,182.389 556.145,183.527 555.808,183.829C555.658,183.964 554.117,185.344 556.616,186.225C557.21,186.435 557.856,186.452 558.473,186.579C559.333,186.756 564.831,188.4 567.602,189.047C578.731,191.644 578.559,192.183 579.53,192.381C584.058,193.301 583.997,193.467 588.423,194.761C596.587,197.147 597.511,196.299 600.598,201.433C603.775,206.719 606.283,209.198 604.686,210.656C602.85,212.333 585.213,216.38 576.558,217.822C574.872,218.104 555.845,221.276 555.482,221.324C534.928,224.058 524.226,224.349 521.497,224.424C498.525,225.049 498.525,224.823 498.404,224.803C498.262,224.779 496.725,224.52 496.646,224.45C496.1,223.961 496.237,219.787 496.236,219.501C496.099,197.845 496.411,197.735 495.683,196.366C494.894,194.882 489.607,195.664 472.54,194.072C471,193.928 463.611,193.238 453.635,190.034C441.451,186.121 441.556,185.849 440.488,185.541C438.567,184.988 437.77,185.081 437.539,185.025C437.169,184.935 436.845,184.7 436.476,184.611C435.552,183.884 435.618,183.817 434.635,183.164C434.44,183.034 433.069,182.123 432.02,181.865C431.754,181.799 431.763,181.966 431.5,181.907C430.924,181.776 430.992,181.632 430.428,181.504C430.278,181.27 430.438,180.916 430.288,180.681C430.193,180.534 429.267,180.036 429.174,179.986C423.133,176.742 423.078,176.738 422.483,176.698C420.807,176.585 405.888,181.15 405.439,181.26C398.254,183.02 398.395,183.451 395.433,184.294C387.516,186.547 387.185,188.166 385.592,187.345C384.642,186.856 380.327,178.015 370.953,169.027C370.786,168.867 368.855,166.613 366.478,164.52C366.782,164.205 368.327,163.667 368.592,161.519C368.692,160.709 369.259,156.114 370.517,151.504C372.315,144.912 371.816,144.791 374.108,138.372C375.121,135.535 374.593,135.374 377.783,127.622C380.379,121.316 379.249,121.021 379.544,120.515C379.876,119.947 380.629,119.711 380.96,119.144C384,123.987 383.935,124.005 387.162,128.736C387.812,129.689 392.033,135.877 395.66,140.379C403.714,150.377 406.569,152.916 415.354,160.67C417.798,162.827 425.88,168.531 426.772,169.084C439.5,176.967 441.998,178.155 454.525,182.424C459.947,184.271 459.935,184.245 465.498,185.51C467.302,185.92 478.127,189.407 502.504,188.682C514.983,188.311 522.063,186.429 528.435,185.211C531.274,184.668 540.577,181.515 544.618,179.775C549.625,177.618 557.009,174.798 569.268,166.155C589.178,152.119 597.481,138.21 603.779,129.696C604.426,128.822 608.096,123.86 611.272,118.366Z" style="fill:rgb(4,3,2);"/>
                <path d="M430.428,181.504C430.992,181.632 430.924,181.776 431.5,181.907C431.763,181.966 431.754,181.799 432.02,181.865C433.069,182.123 434.44,183.034 434.635,183.164C435.618,183.817 435.552,183.884 436.476,184.611C436.845,184.7 437.169,184.935 437.539,185.025C437.77,185.081 438.567,184.988 440.488,185.541C441.556,185.849 441.451,186.121 453.635,190.034C463.611,193.238 471,193.928 472.54,194.072C489.607,195.664 494.894,194.882 495.683,196.366C496.411,197.735 496.099,197.845 496.236,219.501C496.237,219.787 496.1,223.961 496.646,224.45C496.725,224.52 498.262,224.779 498.404,224.803C498.525,224.823 498.525,225.049 521.497,224.424C524.226,224.349 534.928,224.058 555.482,221.324C555.845,221.276 574.872,218.104 576.558,217.822C585.213,216.38 602.85,212.333 604.686,210.656C606.283,209.198 603.775,206.719 600.598,201.433C597.511,196.299 596.587,197.147 588.423,194.761C583.997,193.467 584.058,193.301 579.53,192.381C578.559,192.183 578.731,191.644 567.602,189.047C564.831,188.4 559.333,186.756 558.473,186.579C557.856,186.452 557.21,186.435 556.616,186.225C554.117,185.344 555.658,183.964 555.808,183.829C556.145,183.527 559.056,182.389 559.344,182.276L560.945,182.569L561.978,181.449C562.089,181.53 562.258,181.496 562.369,181.576C562.811,181.897 562.704,181.988 562.745,182.007C562.885,182.068 563.046,181.92 563.197,181.941C563.346,181.962 563.462,182.096 563.609,182.127C563.925,182.193 564.253,182.178 564.572,182.229C566.158,182.483 569.654,183.853 574.614,185.026C578.821,186.02 590.417,189.658 590.444,189.668C595.924,191.697 597.136,191.762 599.397,192.749C599.85,192.947 602.316,194.024 604.034,196.825C610.588,207.508 612.773,208.566 611.908,212.579C611.177,215.971 609.945,216.01 585.391,222.085C571.638,225.487 571.355,224.436 561.487,226.431C555.59,227.623 555.338,227.066 547.452,228.073C542.332,228.727 536.048,229.166 533.493,229.436C517.146,231.162 487.779,231.694 466.521,230.221C454.851,229.412 431.745,226.482 431.508,226.445C430.143,226.231 414.55,223.788 414.444,223.766C411.024,223.053 397.52,219.832 396.491,219.528C387.411,216.848 379.529,216.6 379.175,211.524C379.119,210.729 379.024,209.362 383.792,202.703C388.476,196.163 388.676,195.051 391.307,193.192C393.871,191.38 409.318,187.365 411.567,186.723C417.989,184.892 418.043,185.162 424.416,183.225C427.037,182.429 429.538,182.37 430.016,182.013C430.19,181.882 430.253,181.635 430.428,181.504Z" style="fill:rgb(255,21,55);"/>
                <path d="M433.193,358.152C433.593,358.839 433.099,358.969 433.5,359.657C433.849,360.257 434.131,359.935 434.555,360.492C434.623,360.582 436.498,365.698 436.719,366.356C437.672,369.193 439.264,371.795 439.582,372.44C439.823,372.928 441.123,375.16 442.441,376.564C442.743,376.886 451.54,387.521 463.442,381.372C477.913,373.897 477.918,372.126 501.498,372.66C516.407,372.998 520.736,378.724 530.537,382.398C536.97,384.809 544.438,382.273 550.163,375.156C550.45,374.799 551.174,373.899 553.217,370.305C555.015,367.144 556.623,360.423 557.345,359.531C557.781,358.993 558.416,358.637 558.852,358.099C560.176,358.28 560.189,358.15 561.451,358.606C561.602,358.661 562.777,359.085 563.025,359.843C563.317,360.736 559.482,371.153 559.91,372.067C559.982,372.22 561.016,373.042 561.094,373.029C561.316,372.992 561.361,372.665 561.479,372.473C562.072,371.511 562.255,371.62 562.582,370.545C563.073,368.932 562.926,368.914 562.978,368.778C563.033,368.633 563.217,368.564 563.278,368.42C563.726,367.365 563.624,367.335 564.128,366.298C566.457,361.503 565.817,359.639 569.501,359.519C574.553,359.355 574.562,359.472 579.486,358.416C585.391,357.15 580.626,365.136 576.551,368.552C574.531,370.246 574.901,370.608 570.597,374.614C565.176,379.658 562.123,383.619 558.775,386.756C551.537,393.533 551.818,393.787 544.722,400.729C540.356,405.002 530.982,416.575 525.567,418.782C521.1,420.603 506.345,420.864 501.494,421.45C495.828,422.135 495.827,421.685 490.504,421.408C480.462,420.885 480.495,420.728 470.458,419.848C464.838,419.355 464.804,418.152 464.386,417.763C467.054,415.63 468.342,414.547 480.508,409.518C484.636,407.811 484.752,408.184 489.534,406.617C495.088,404.797 497.158,405.43 507.491,408.534C511.474,409.73 523.001,415.245 523.484,415.566C523.847,415.808 524.088,416.275 524.513,416.372C524.715,416.419 525.425,416.067 525.5,416.03C525.925,415.82 525.841,415.715 526.276,415.5C526.208,415.16 526.392,414.801 526.324,414.462C526.203,413.852 521.369,402.38 520.928,401.334C517.872,394.081 516.67,390.522 516.347,389.565C515.982,388.484 515.797,388.557 515.61,387.443C515.556,387.12 515.711,386.749 515.555,386.46C515.213,385.827 514.852,386.156 514.559,385.5C514.307,384.934 514.853,384.89 514.605,384.334C511.458,382.742 508.207,380.728 490.495,381.346C481.198,381.67 475.801,384.808 475.196,385.07C475.216,385.611 475.946,385.959 475.966,386.5C475.981,386.87 475.453,387.047 475.284,387.376C475.168,387.603 475.238,387.627 474.156,390.352C472.751,393.887 472.967,393.969 471.256,397.371C469.627,400.609 469.481,402.276 468.069,405.302C466.47,408.729 464.926,413.24 463.687,414.5C463.224,414.971 462.622,415.289 462.159,415.76C454.254,409.665 452.327,406.032 447.605,401.396C442.704,396.586 440.72,394.47 440.14,393.851C434.701,388.051 434.009,388.205 430.126,383.841C425.497,378.638 419.932,373.805 416.591,370.401C411.308,365.02 407.829,358.812 410.399,358.223C410.85,358.12 413.23,358.596 413.473,358.644C418.949,359.739 423.567,358.643 425.177,360.841C425.531,361.325 425.404,361.388 428.124,367.733C429.34,370.57 429.148,371.257 430.387,372.719C430.499,372.85 430.509,373.186 430.676,373.146C431.016,373.063 431.259,372.738 431.467,372.457C432.256,371.388 431.086,367.786 430.961,367.399C429.481,362.842 428.072,360.439 429.27,359.273C430.213,358.356 432.693,358.219 433.193,358.152Z" style="fill:rgb(255,21,55);"/>
                <path d="M474.739,78.911C478.741,76.442 489.064,70.655 493.225,68.058C496.623,65.936 496.916,67.359 502.565,70.39C503.072,70.662 503.005,70.75 508.718,74.111C509.334,74.473 515.87,78.319 516.404,78.676C516.559,78.765 518.344,79.79 518.344,79.79C518.769,80.041 522.309,82.049 522.655,82.245C524.658,83.257 524.566,83.388 526.531,84.447C529.888,86.256 529.484,87.897 529.494,90.5C529.497,91.317 529.456,91.315 529.518,104.5C529.376,114.242 529.586,114.231 529.476,117.499C529.416,119.278 529.173,119.403 528.474,120.471C525.224,123.219 518.989,126.206 516.642,127.731C514.488,129.131 508.068,132.737 507.315,133.16C504.743,134.604 504.828,134.71 502.239,136.102C497.271,138.522 496.922,140.824 492.358,137.713C491.663,137.239 491.658,137.28 489.685,136.218C486.988,134.675 485.799,133.752 483.438,132.625C481.868,131.876 472.162,126.181 470.211,124.979C466.63,122.771 466.417,123.098 462.926,120.09C462.078,117.89 462.315,117.849 462.352,115.499C462.38,113.677 462.304,109.058 462.295,108.498C462.272,106.17 462.261,88.395 462.434,87.489C462.701,86.092 463.373,85.34 467.761,82.898C470.641,81.257 472.218,80.509 474.739,78.911Z" style="fill:rgb(246,238,206);"/>
                <path d="M485.382,250.731C485.77,251.146 488.665,254.245 489.676,256.397C490.543,258.243 490.828,260.223 490.869,260.305C490.894,260.354 491.021,260.071 491.5,260.567C491.882,260.963 491.645,261.109 492.023,261.5L493.092,262.483C492.82,283.004 492.675,282.989 492.424,303.499C492.407,304.882 492.571,305.187 492.596,305.47L491.347,306.5L490.5,307.121C486.64,306.512 486.799,306.009 482.61,304.294C480.261,303.333 480.178,303.697 479.377,303.5C475.591,300.575 472.157,298.861 471.489,298.528L470.5,297.026L469.5,296.7C467.645,296.108 467.667,296.049 467.5,296.062C466.948,296.105 467.048,296.415 466.5,296.448C466.438,296.452 465.4,295.951 463.45,296.284C460.603,296.77 460.79,297.319 460.543,297.323C460.154,297.328 459.874,296.906 459.5,296.801C459.054,296.676 458.565,296.767 458.119,296.642C458.085,296.247 457.116,291.486 460.208,286.342C461.788,283.714 464.92,278.253 470.387,281.688C473.652,283.74 475.054,286.325 475.764,287.311C476.405,288.201 476.321,288.238 476.922,289.147C477.03,289.31 478.101,290.931 479.152,290.17C480.234,289.386 478.822,286.37 478.425,285.527C475.791,279.936 474.373,277.483 470.425,275.695C469.451,275.254 465.439,273.438 457.275,278.106C454.841,279.498 452.058,280.744 448.89,283.811C448.336,283.71 448.137,282.839 447.583,282.738C447.286,282.684 440.371,287.506 435.579,289.683C422.421,295.659 413.765,296.772 404.227,288.843C404.541,288.235 405.466,288.108 405.781,287.5C405.825,287.416 404.93,285.533 404.85,285.364C403.384,282.281 403.758,282.134 404.25,274.397C404.522,270.105 404.788,270.026 405.145,270.025C405.696,270.022 406.341,270.123 406.723,270.521C406.949,270.758 406.573,271.161 406.544,271.487C406.32,274.037 407.443,274.997 407.679,275.198C409.166,276.468 416.621,279.029 417.56,279.237C427.364,281.409 427.624,279.324 427.34,278.593C427.263,278.398 426.948,278.435 426.772,278.322C426.576,278.195 426.439,277.982 426.23,277.878C424.348,276.952 424.005,277.852 416.577,274.334C408.848,270.675 409.73,269.418 406.743,267.225C406.07,266.731 405.759,266.934 404.265,263.567C402.396,259.357 399.704,255.184 398.957,247.481C398.37,241.418 398.965,240.774 399.353,240.355C400.673,238.927 403.105,240.289 403.831,241.192C404.77,242.36 406.974,251.098 409.752,255.337C417.254,266.784 426.311,266.515 443.467,267.942C448.905,268.394 448.915,267.811 449.357,267.973C453.282,269.411 443.973,272.159 443.408,272.326C442.295,272.654 442.34,272.727 441.234,273.119C439.971,273.567 439.909,273.311 438.654,273.812C438.47,273.886 438.374,274.107 438.192,274.185C438.07,274.237 438.044,274.066 436.587,274.609C435.953,274.845 435.959,274.901 435.774,275.546C435.674,275.898 435.258,276.265 435.431,276.587C435.875,277.415 445.417,274.413 445.483,274.396C451.865,272.725 451.781,272.492 456.5,270.499C467.439,265.879 469.662,262.154 472.516,261.644C474.773,261.24 480.62,265.564 483.66,272.378C484.823,274.984 484.851,274.954 485.377,275.714C485.49,275.878 485.447,276.271 485.644,276.248C486.017,276.205 486.217,275.753 486.549,275.579C486.758,275.47 487.111,275.613 487.238,275.414C487.264,275.373 487.25,274.088 487.14,273.509C485.671,265.793 483.414,262.33 481.122,259.844C480.019,258.647 478.592,257.491 478.509,256.498C478.471,256.036 478.375,254.88 481.583,251.588C483.809,249.304 484.984,250.64 485.382,250.731Z" style="fill:rgb(255,21,55);"/>
                <path d="M510.469,47.09C513.003,47.144 512.982,47.135 515.518,47.172L515.932,48.5C519.502,52.239 519.532,52.189 523.687,55.245C536.953,65 540.42,70.52 546.562,77.449C549.932,81.251 557.995,93.434 563.335,105.622C563.746,106.559 564.006,106.762 564.067,106.884C564.664,108.078 564.617,108.092 564.879,108.362C565.02,108.508 565.033,108.47 566.964,109.819C564.777,113.039 562.578,115.748 562.173,116.245C555.329,124.673 551.241,127.722 548.778,129.832C545.552,132.597 539.006,137.036 533.572,139.657C532.932,139.056 533.128,138.905 532.5,138.315C531.534,137.409 531.375,137.65 531.325,137.549C531.11,137.111 531.482,137.047 530.558,131.49C529.34,124.166 529.656,124.126 529.507,123.499C529.45,123.261 529.207,123.088 529.173,122.846C529.112,122.401 529.358,121.931 529.231,121.5C529.111,121.092 528.594,120.88 528.474,120.471C529.173,119.403 529.416,119.278 529.476,117.499C529.586,114.231 529.376,114.242 529.518,104.5C529.456,91.315 529.497,91.317 529.494,90.5C529.484,87.897 529.888,86.256 526.531,84.447C524.566,83.388 524.658,83.257 522.655,82.245C524.535,80.627 524.581,80.689 524.682,80.5C524.819,80.244 523.927,75.528 517.301,61.586C513.119,52.788 512.613,53.077 511.38,50.55C511.255,50.293 511.01,49.791 510.469,47.09Z" style="fill:rgb(10,3,3);"/>
                <path d="M477.489,47.188C478.832,47.163 480.176,47.138 481.519,47.113L481.913,48.5C481.731,48.716 482.418,49.068 482.236,49.284C481.998,49.566 481.439,49.206 481.138,49.419C480.764,49.683 480.932,49.816 478.172,54.314C475.721,58.307 472.083,67.068 471.762,67.647C470.426,70.065 469.432,73.251 467.201,78.439C466.031,81.159 467.469,82.207 467.761,82.898C463.373,85.34 462.701,86.092 462.434,87.489C462.261,88.395 462.272,106.17 462.295,108.498C462.304,109.058 462.38,113.677 462.352,115.499C462.315,117.849 462.078,117.89 462.926,120.09L462.263,121.5C462.531,125.462 462.104,125.429 461.099,132.436C460.56,136.186 460.452,136.145 460.413,136.47C460.374,136.803 460.558,137.181 460.401,137.477C460.358,137.559 460.24,137.395 459.5,138.197C458.908,138.838 459.053,138.937 458.456,139.583C457.763,139.223 456.608,138.68 456.446,138.604C454.761,137.812 446.426,132.52 444.316,130.724C438.639,125.894 438.566,125.987 433.451,120.547C428.939,115.748 425.396,110.184 424.299,108.619L425.5,107.664C425.96,107.563 426.446,107.899 426.906,107.798C427.053,107.766 427.545,106.688 427.591,106.587C429.058,103.372 429.529,103.284 430.776,100.633C431.88,98.285 437.705,85.9 448.331,73.364C458.239,61.674 471.778,52.695 473.349,51.3C475.269,49.595 475.334,49.681 475.5,49.533C475.837,49.233 476.039,48.8 476.376,48.5L477.489,47.188Z" style="fill:rgb(11,3,4);"/>
                <path d="M711.301,302.357C711.52,302.776 711.923,303.081 712.142,303.5C712.701,304.569 711.74,306.635 713.673,310.424C714.193,311.444 716.474,315.917 719.613,323.451C719.916,324.179 720.056,324.104 723.606,332.46C723.959,333.292 726.079,337.565 726.121,337.671C726.231,337.946 726.2,338.283 726.375,338.522C726.812,339.119 726.987,338.926 727.46,339.5C727.973,340.122 727.785,340.233 728.307,340.866C726.892,340.722 726.886,340.637 726.789,340.711C726.585,340.867 726.339,342.305 726.315,342.447C726.218,343.016 725.667,346.241 724.13,349.33C719.979,357.67 717.789,359.659 716.521,361.516C714.632,364.28 707.826,370.887 707.344,371.325C705.678,372.843 698.704,378.421 698.523,378.533C695.009,380.706 694.129,382.239 692.403,381.636C691.892,381.457 691.471,379.553 690.392,373.519C687.428,356.959 687.314,357.005 687.091,355.561C685.595,345.879 684.715,343.554 683.985,339.421C682.696,332.114 682.94,331.566 684.488,330.485C688.92,327.386 695.478,321.661 698.908,317.867C702.922,313.426 705.763,311.122 711.301,302.357Z" style="fill:rgb(7,3,2);"/>
                <path d="M601.334,119.661L601.682,120.538C598.661,124.623 597.844,126.03 597.551,126.533C597.289,126.984 589.663,137.618 584.35,143.365C582.03,145.875 575.007,152.379 574.179,153.146C571.625,155.511 571.514,155.364 570.322,156.272C568.335,157.782 568.386,157.813 566.359,159.289C565.66,159.798 560.294,163.705 557.434,165.382C547.075,171.455 543.642,172.319 542.627,172.786C537.718,175.045 537.677,174.924 532.5,176.5C525.374,178.669 524.527,179.269 523.855,178.274C523.237,177.36 523.61,177.272 524.3,176.398C525.971,174.282 529.493,168.473 529.92,167.768C531.386,165.35 531.066,164.937 528.321,161.645C525.61,158.393 525.649,158.38 522.911,155.167C521.905,153.988 521.419,154.092 521.648,152.564C521.754,151.858 521.912,151.925 522.597,151.739C525.657,150.905 525.582,150.721 528.554,149.64C536.752,146.659 545.081,141.275 546.433,140.401C553.64,135.743 553.192,135.177 555.887,132.945C563.283,126.817 565.745,122.887 569.286,118.345C572.573,114.129 572.307,113.954 572.613,113.606C574.211,111.793 574.829,113.175 575.162,115.57C575.463,117.738 576.844,122.979 577.012,123.618C577.256,124.543 577.24,126.967 579.533,126.899C581.164,126.851 601.002,118.872 601.438,118.898C601.694,118.913 601.078,119.646 601.334,119.661Z" style="fill:rgb(255,21,55);"/>
                <path d="M404.607,124.25C405.232,124.501 411.666,127.088 412.543,127.063C413.874,127.026 414.29,125.633 414.345,125.448C414.66,124.393 416.455,117.251 416.634,116.537C417.403,113.478 417.162,113.305 417.783,112.951C419.058,112.224 420.243,115.966 425.645,122.381C426.331,123.195 427.959,125.627 432.79,130.187C441.005,137.941 443.822,139.408 447.356,141.73C451.37,144.368 453.805,145.464 454.396,145.73C455.106,146.05 459.214,148.278 465.482,150.547C467.356,151.226 469.975,151.81 470.162,151.973C471.153,152.84 469.686,154.383 469.541,154.535C466.09,158.166 466.218,158.26 463.116,162.191C461.139,164.696 459.91,165.187 462.74,169.345C464.245,171.556 464.954,173.056 467.485,176.507C468.15,177.413 468.688,177.407 468.131,178.368C467.469,179.511 462.484,177.322 456.464,175.627C451.773,174.306 444.542,170.87 444.354,170.764C442.115,169.502 433.873,165.799 426.694,160.234C426.462,160.055 415.982,153.424 403.3,138.675C399.382,134.117 394.724,126.889 394.037,125.824C392.492,123.426 391.023,121.702 390.735,121.365C390.633,121.244 389.776,120.239 389.848,119.593C389.87,119.394 390.182,119.365 390.317,119.217C390.408,119.117 390.382,118.834 390.514,118.863C390.707,118.905 391.734,119.708 404.607,124.25Z" style="fill:rgb(255,21,55);"/>
                <path d="M280.937,303.178C283.15,306.35 283.085,306.386 283.282,306.658C286.421,310.982 286.492,310.911 290.011,314.914C296.046,321.779 299.288,323.965 302.387,326.632C307.943,331.413 309.22,331.234 308.471,334.494C306.995,340.914 307.326,340.96 306.132,347.424C302.03,369.634 302.153,369.636 301.734,371.553C300.775,375.948 301.103,375.997 300.183,380.402C300.148,380.569 299.879,381.858 298.471,381.679C297.856,381.601 290.25,375.953 289.551,375.434C286.106,372.875 281.216,368.049 278.656,365.35C273.615,360.035 268.536,351.615 267.305,348.577C265.08,343.086 265.904,342.743 264.44,340.579C264.71,340.078 264.384,339.995 264.65,339.5C264.977,338.893 265.178,339.077 265.552,338.516C265.718,338.267 265.746,337.947 265.869,337.674C269.738,329.059 269.826,329.117 270.14,328.359C274.263,318.427 274.663,318.613 276.725,313.595C279.403,307.08 279.487,307.109 279.497,306.499C279.503,306.154 279.348,305.819 279.347,305.473C279.346,305.145 279.304,304.77 279.491,304.5C279.863,303.963 280.565,303.715 280.937,303.178Z" style="fill:rgb(7,3,2);"/>
                <path d="M612.689,197.386C610.626,194.416 610.478,193.543 611.547,191.529C611.653,191.328 614.733,186.845 615.184,186.262C617.927,182.712 617.92,182.71 618.255,182.305C633.174,164.284 646.651,156.975 653.656,152.758C655.842,151.443 666.874,146.237 669.475,145.426C673.558,144.153 673.456,143.882 677.576,142.737C685.212,140.617 692.313,138.292 708.512,137.89C712.156,137.8 712.108,138.801 713.63,141.419C721.733,155.357 721.932,155.213 722.575,156.456C722.701,156.698 730.898,170.153 731.567,171.465C732.691,173.67 742.655,190.205 742.745,190.394C743.307,191.567 743.585,191.822 742.543,192.581C742.27,192.779 740.526,192.641 735.509,192.756C734.064,192.789 727.101,192.949 717.58,194.897C710.726,196.299 698.037,200.799 691.657,203.847C690.816,204.249 683.721,207.639 681.343,209.262C675.038,213.568 658.576,223.163 643.614,243.583C641.426,246.569 637.586,252.557 636.95,253.73C633.021,260.974 633.326,261.11 633.205,261.481C632.908,261.127 632.798,260.64 632.5,260.285C632.065,259.768 631.747,260.032 630.908,258.322C630.472,257.434 630.043,256.312 630.599,254.518C632.121,249.603 635.187,245.145 635.582,244.558C643.692,232.472 647.531,228.906 649.97,225.892C652.189,223.149 655.963,220.081 656.537,219.539C661.839,214.529 662.074,214.832 668.606,209.634C670.398,208.208 673.33,206.382 673.383,206.344C673.998,205.902 678.261,202.837 681.449,201.403C685.307,199.669 685.412,199.105 688.591,197.708C698.489,193.361 707.699,190.683 709.398,190.189C721.062,186.799 727.356,187.838 730.435,187.109C730.631,187.063 732.291,186.67 732.379,185.501C732.437,184.722 730.951,182.532 730.79,182.295C727.519,177.473 725.293,172.738 723.769,170.356C722.144,167.817 720.343,164.248 719.761,163.328C717.78,160.199 717.253,158.603 715.706,156.37C713.602,153.334 713.732,152.743 711.164,148.731C708.537,144.628 708.797,143.592 705.537,143.83C689.693,144.982 686.264,146.839 676.595,149.841C664.302,153.659 653.339,160.565 652.359,161.256C649.826,163.041 642.336,166.892 629.847,178.878C623.15,185.305 616.185,195.302 615.229,196.31C614.356,197.23 613.631,196.998 613.5,197.055L612.689,197.386Z" style="fill:rgb(255,21,55);"/>
                <path d="M378.401,198.444C377.593,197.286 377.809,197.107 376.181,195.701C374.696,194.419 368.927,184.28 355.838,173.131C352.304,170.121 352.358,170.076 348.626,167.322C340.813,161.56 333.988,157.272 321.401,151.779C317.721,150.172 317.262,150.589 311.519,148.442C307.256,146.849 291.824,143.312 285.515,143.787C282.936,143.982 283.357,144.992 277.044,155.198C276.834,155.537 276.787,155.496 274.318,159.374C274.006,159.864 270.96,165.097 270.67,165.596C262.977,178.813 262.935,178.764 261.708,180.659C261.635,180.773 258.982,185.429 258.972,185.575C258.949,185.924 259.518,186.013 259.778,186.247C260.056,186.497 260.244,186.874 260.585,187.028C261.018,187.224 261.066,186.846 266.5,187.503C273.937,188.402 274.036,187.925 283.442,190.69C289.255,192.399 295.404,194.02 310.521,201.459C311.874,202.125 315.717,204.996 317.735,206.136C318.936,206.815 323.679,209.494 331.727,216.229C332.496,216.872 339.337,222.947 341.531,225.474C346.455,231.145 346.563,231.043 350.963,237.108C354.323,241.741 356.882,244.97 358.995,249.307C360.617,252.638 362.967,254.265 361.433,257.463C361.308,257.724 361.216,258.011 361.029,258.233C360.909,258.375 360.655,258.365 360.548,258.518C360.235,258.969 360.415,259.032 360.148,259.5C359.879,259.97 359.774,259.874 359.5,260.354L358.796,261.48C358.167,259.813 358.193,259.814 358.117,259.68C357.803,259.122 354.269,252.843 354.183,252.719C351.478,248.8 346.52,238.897 329.146,222.893C327.561,221.434 319.341,215.062 314.303,211.8C314.061,211.644 311.81,210.187 311.278,209.867C294.78,199.938 280.643,196.58 279.577,196.25C275.272,194.917 262.72,192.97 261.469,192.9C249.72,192.236 249.465,192.99 248.804,192.22C247.972,191.251 249.056,190.623 252.608,184.563C257.399,176.391 257.38,176.386 257.813,175.685C261.71,169.369 261.563,169.293 261.915,168.754C263.657,166.082 263.42,165.955 265.115,163.261C271.922,152.441 277.91,141.943 278.31,141.368C279.487,139.671 279.903,138.476 281.603,137.962C282.498,137.691 289.562,137.848 299.544,139.209C304.555,139.892 314.688,142.897 316.481,143.551C323.258,146.025 324.859,146.096 336.342,151.826C338.954,153.129 347.023,158.08 349.718,160.197C350.322,160.671 354.12,163.186 362.048,169.97C362.839,170.647 369.185,177.023 372.248,180.704C377.26,186.728 378.589,189.177 379.941,191.203C381.603,193.694 381.33,194.137 378.401,198.444Z" style="fill:rgb(255,21,55);"/>
                <path d="M690.193,264.278C690.395,264.734 690.695,264.761 691.245,266.65C691.866,268.78 695.049,273.867 696.276,276.607C696.642,277.424 698.046,280.556 701.375,286.566C702.488,288.576 705.506,294.454 705.532,294.48C705.68,294.625 705.7,294.571 707.81,295.715C705.933,298.04 701.027,307.639 686.767,319.809C686.205,320.289 683.391,322.691 679.626,325.665C677.968,326.976 677.93,326.899 676.309,328.268C676.089,328.454 673.724,330.452 673.508,330.52C673.383,330.559 672.289,330.904 671.886,330.284C671.786,330.131 668.684,312.034 667.046,304.609C666.833,303.642 666.854,303.645 664.602,292.48C663.77,288.356 665.594,288.804 669.389,285.375C672.422,282.635 686.053,270.619 690.193,264.278Z" style="fill:rgb(6,3,2);"/>
                <path d="M301.682,264.351C306.277,270.954 316.158,279.85 317.703,281.274C326.185,289.097 327.926,288.654 327.173,292.432C324.595,305.367 324.821,305.4 324.503,306.501C322.826,312.311 323.454,312.437 320.429,326.485C319.757,329.602 319.711,331.881 317.332,329.754C314.931,327.605 314.809,327.773 312.321,325.728C309.003,323 308.947,323.097 305.658,320.316C291.449,308.307 285.867,298.429 284.563,296.461C286.356,294.357 286.562,293.867 286.672,293.605C287.172,292.416 287.238,292.259 294.108,279.29C295.138,277.346 295.116,277.349 297.958,271.724C298.077,271.488 299.938,268.56 300.566,266.548C301.009,265.131 301.225,265.251 301.682,264.351Z" style="fill:rgb(7,3,2);"/>
                <path d="M668.429,227.377C668.806,227.855 669.491,228.022 669.868,228.5C670.011,228.681 669.784,228.973 669.859,229.19C669.933,229.402 670.071,229.319 671.322,231.594C672.183,233.161 672.069,233.219 681.852,251.297C681.944,251.467 684.254,256.091 684.664,256.403C684.939,256.614 685.007,256.351 685.308,256.533C686.062,256.991 685.917,257.163 686.683,257.628C686.341,258.055 683.491,262.454 674.971,270.971C671.215,274.726 671.087,274.566 667.189,278.164C665.188,280.011 655.049,288.074 654.436,288.247C654.28,288.291 653.357,287.822 653.292,287.661C652.467,285.632 650.391,274.325 648.582,269.47C647.733,267.193 647.098,262.3 645.463,256.511C644.574,253.363 645.772,252.904 647.371,250.421C651.962,243.292 656.899,237.817 666.735,228.757C666.889,228.616 666.884,228.627 668.429,227.377Z" style="fill:rgb(7,3,2);"/>
                <path d="M323.554,227.415C324.248,228.001 327.842,231.033 331.88,235.134C338.238,241.591 340.154,244.453 341.635,246.402C346.531,252.847 346.545,253.742 346.556,254.5C346.582,256.188 340.041,280.363 338.894,286.61C338.869,286.749 338.698,289.954 336.332,287.754C335.56,287.036 335.542,287.076 334.619,286.341C327.407,280.601 327.528,280.477 320.587,274.4C316.897,271.169 316.75,271.32 307.843,261.198C306.397,259.554 306.656,259.383 305.263,257.676C307.042,256.424 307.072,256.475 307.184,256.325C307.261,256.222 308.278,254.573 308.372,254.42C309.719,252.237 309.879,251.267 311.122,249.278C312.412,247.215 313.624,244.498 314.693,242.608C315.798,240.655 315.73,240.634 316.811,238.673C319.547,233.71 319.425,233.662 320.965,230.732C321.849,229.049 322.135,229.287 322.2,229.139C322.286,228.943 322.007,228.668 322.139,228.5C322.506,228.033 323.187,227.882 323.554,227.415Z" style="fill:rgb(6,3,2);"/>
                <path d="M514.605,384.334C514.853,384.89 514.307,384.934 514.559,385.5C514.852,386.156 515.213,385.827 515.555,386.46C515.711,386.749 515.556,387.12 515.61,387.443C515.797,388.557 515.982,388.484 516.347,389.565C516.67,390.522 517.872,394.081 520.928,401.334C521.369,402.38 526.203,413.852 526.324,414.462C526.392,414.801 526.208,415.16 526.276,415.5C525.841,415.715 525.925,415.82 525.5,416.03C525.425,416.067 524.715,416.419 524.513,416.372C524.088,416.275 523.847,415.808 523.484,415.566C523.001,415.245 511.474,409.73 507.491,408.534C497.158,405.43 495.088,404.797 489.534,406.617C484.752,408.184 484.636,407.811 480.508,409.518C468.342,414.547 467.054,415.63 464.386,417.763C463.222,416.788 463.237,416.802 462.159,415.76C462.622,415.289 463.224,414.971 463.687,414.5C464.926,413.24 466.47,408.729 468.069,405.302C469.481,402.276 469.627,400.609 471.256,397.371C472.967,393.969 472.751,393.887 474.156,390.352C475.238,387.627 475.168,387.603 475.284,387.376C475.453,387.047 475.981,386.87 475.966,386.5C475.946,385.959 475.216,385.611 475.196,385.07C475.801,384.808 481.198,381.67 490.495,381.346C508.207,380.728 511.458,382.742 514.605,384.334Z" style="fill:rgb(255,21,55);"/>
                <path d="M521.451,44.507L522.68,45.5C522.745,45.636 523.492,47.205 523.492,47.205C523.713,47.337 523.776,47.124 526.594,48.057C531.108,49.681 530.92,50.091 535.407,51.759C536.247,52.071 548.177,57.467 550.682,59.221C555.292,62.449 558.316,62.546 573.914,75.022C577.317,77.744 579.928,80.163 581.34,80.5C581.655,80.575 581.994,80.361 582.309,80.436C580.816,84.718 580.252,85.813 580.023,86.258C571.875,102.081 569.696,106.193 566.964,109.819C565.033,108.47 565.02,108.508 564.879,108.362C564.617,108.092 564.664,108.078 564.067,106.884C564.006,106.762 563.746,106.559 563.335,105.622C557.995,93.434 549.932,81.251 546.562,77.449C540.42,70.52 536.953,65 523.687,55.245C519.532,52.189 519.502,52.239 515.932,48.5L515.518,47.172C519.194,47.11 519.171,47.126 519.488,47.105C522.383,46.909 521.437,45.063 521.451,44.507Z" style="fill:rgb(255,21,55);"/>
                <path d="M481.527,181.087C478.78,180.579 478.687,180.816 477.827,180.116C477.184,179.593 474.596,175.907 474.382,175.581C470.746,170.044 470.658,170.112 469.598,168.437C467.76,165.531 468.775,165.138 472.588,160.57C476.152,156.3 476.142,156.301 476.696,155.664C479.156,152.837 480.448,154.434 487.474,154.813C501.46,155.567 509.893,154.133 511.475,154.09C514.749,154.001 514.074,155.511 521.159,162.829C524.339,166.114 523.275,167.027 521.063,170.206C514.013,180.34 513.976,181.007 510.489,181.141C496.008,181.695 496.022,181.733 481.527,181.087Z" style="fill:rgb(255,21,55);"/>
                <path d="M433.193,358.152C433.512,357.976 436.275,356.449 437.479,356.614C439.053,356.829 439.499,359.785 441.229,362.632C442.506,364.735 449.346,377.321 463.374,372.164C466.481,371.022 474.253,366.007 486.477,365.181C517.012,363.119 521.964,370.799 531.571,373.148C534.398,373.84 539.886,373.478 543.659,370.738C549.21,366.706 551.562,360.419 551.888,359.67C554.006,354.798 555.997,356.784 558.852,358.099C558.416,358.637 557.781,358.993 557.345,359.531C556.623,360.423 555.015,367.144 553.217,370.305C551.174,373.899 550.45,374.799 550.163,375.156C544.438,382.273 536.97,384.809 530.537,382.398C520.736,378.724 516.407,372.998 501.498,372.66C477.918,372.126 477.913,373.897 463.442,381.372C451.54,387.521 442.743,376.886 442.441,376.564C441.123,375.16 439.823,372.928 439.582,372.44C439.264,371.795 437.672,369.193 436.719,366.356C436.498,365.698 434.623,360.582 434.555,360.492C434.131,359.935 433.849,360.257 433.5,359.657C433.099,358.969 433.593,358.839 433.193,358.152Z" style="fill:rgb(255,21,55);"/>
                <path d="M493.347,76.249C496.457,74.649 496.672,75.414 499.713,77.121C501.477,78.112 516.359,86.559 518.745,88.123C521.545,89.959 522.531,89.67 522.6,93.497C522.661,96.847 522.625,114.083 522.57,114.508C522.237,117.083 520.272,117.359 510.369,123.259C508.065,124.632 508.072,124.608 505.756,125.947C504.171,126.863 498.28,130.38 497.632,130.767C495.569,131.998 493.336,130.145 492.391,129.693C492.793,129.53 493.097,129.172 493.5,129.009C493.813,128.883 494.176,128.936 494.5,128.84C494.768,128.76 495.089,128.705 495.258,128.483C495.923,127.615 495.846,120.211 495.839,119.49C495.726,108.637 496.018,103.124 495.942,100.447C495.693,91.64 496.331,88.414 495.863,82.431C495.842,82.161 495.892,79.734 495.862,79.443C495.634,77.172 494.577,77.378 494.5,77.303L493.347,76.249Z" style="fill:rgb(255,21,55);"/>
                <path d="M437.293,309.331C438.437,306.969 438.373,306.946 439.898,304.791C444.399,298.429 444.422,298.445 445.405,297.403C449.966,292.565 449.724,290.919 451.573,291.279C452.74,291.505 452.214,292.03 452.565,295.496C453.529,304.998 454.728,305.463 460.572,307.211C473.187,310.985 473.975,311.503 476.388,313.632C480.15,316.951 480.39,316.616 484.338,319.709C488.608,323.053 495.568,324.758 496.504,324.687C497.96,324.577 504.05,322.057 505.335,321.248C510.547,317.965 512.267,316.358 512.806,315.855C520.41,308.751 521.534,310.69 528.431,308.268C535.453,305.802 536.989,305.215 538.03,302.307C538.878,299.94 539.072,294.124 539.096,293.407C539.226,289.516 541.533,292.082 541.685,292.25C542.922,293.625 542.83,293.68 543.981,295.07C549.917,302.238 550.113,302.091 554.929,310.08L553.5,311.355C553.037,311.024 552.485,310.831 552.022,310.5C551.766,310.316 551.661,309.922 551.361,309.823C551.064,309.725 551.056,310.006 547.45,309.871C543.626,309.727 543.443,310.198 537.52,312.57C530.195,315.503 527.042,321.141 521.528,322.598C514.132,324.554 513.245,325.317 506.561,325.701C505.907,325.739 505.252,325.765 504.597,325.802C503.937,325.839 503.269,325.813 502.618,325.925C502.218,325.993 501.872,326.263 501.473,326.338C501.146,326.399 500.802,326.259 500.477,326.326C500.13,326.397 499.849,326.682 499.5,326.742C497.374,327.11 491.353,326.414 490.514,326.416C488.221,326.423 480.985,325.556 479.571,325.246C478.137,324.932 468.887,322.35 467.434,321.683C465.387,320.743 458.244,314.835 454.34,312.88C448.464,309.939 447.455,309.163 441.56,309.78C439.48,309.998 439.604,310.353 438.5,310.882L437.293,309.331Z" style="fill:rgb(255,21,55);"/>
                <path d="M467.501,47.548L467.334,48.5C467.312,48.622 467.058,50.027 467.058,50.027C466.87,50.262 466.701,49.98 463.71,51.748C463.198,52.051 454.796,57.394 450.169,62.193C450.099,62.265 441.962,70.04 437.45,77.467C435.961,79.918 432.958,83.269 431.439,86.474C430.077,89.348 422.993,101.302 423.357,102.43C423.501,102.877 423.916,103.185 424.222,103.541C425.416,104.925 425.643,104.868 425.513,105.352C425.403,105.768 424.925,106.07 424.923,106.5C424.92,106.933 425.502,107.231 425.5,107.664L424.299,108.619C423.272,106.981 422.918,106.489 422.789,106.31C422.184,105.469 413.506,91.276 410.054,81.601C410.754,81.083 410.548,80.886 411.239,80.375C411.61,80.1 411.686,80.335 412.085,80.097C412.287,79.976 412.391,79.739 412.566,79.582C412.761,79.406 412.989,79.27 413.192,79.103C413.652,78.723 417.092,75.714 417.43,75.418C417.884,75.021 422.822,71.044 423.546,70.56C426.29,68.727 429.77,65.182 443.264,58.057C448.241,55.428 448.164,55.303 453.339,53.084C463.984,48.521 463.884,48.179 467.501,47.548Z" style="fill:rgb(9,3,2);"/>
                <path d="M493.347,76.249L494.5,77.303C494.577,77.378 495.634,77.172 495.862,79.443C495.892,79.734 495.842,82.161 495.863,82.431C496.331,88.414 495.693,91.64 495.942,100.447C496.018,103.124 495.726,108.637 495.839,119.49C495.846,120.211 495.923,127.615 495.258,128.483C495.089,128.705 494.768,128.76 494.5,128.84C494.176,128.936 493.813,128.883 493.5,129.009C493.097,129.172 492.793,129.53 492.391,129.693C484.66,125.105 472.892,118.652 470.286,116.769C471.837,115.059 471.603,114.776 473.677,113.737C474.674,113.238 474.679,113.288 475.614,112.656C481.661,108.573 485.729,106.607 486.769,105.919C487.245,105.604 490.894,103.419 491.094,103.202C491.278,103.002 491.313,102.683 491.522,102.509C492.35,101.821 492.525,103.027 493.481,102.579C493.827,102.417 493.527,101.662 493.873,101.5C493.321,101.371 493.055,100.621 492.503,100.492C492.073,100.392 491.68,100.855 491.24,100.885C490.673,100.924 486.13,99.196 485.692,99.03C484.993,98.763 482.738,97.006 481.482,96.532C480.259,96.069 480.307,95.999 480.199,95.969C480.063,95.93 479.908,96.069 479.778,96.014C479.617,95.947 479.557,95.736 479.41,95.641C479.235,95.528 477.276,94.578 476.283,93.884C473.949,92.254 472.335,92.263 472.285,91.928C472.215,91.455 472.562,90.948 472.397,90.5C472.191,89.941 471.458,89.686 471.252,89.127C477.62,84.923 484.471,81.472 493.347,76.249Z" style="fill:rgb(255,21,55);"/>
                <path d="M490.487,361.158C478.757,361.641 475.825,361.675 470.391,364.229C467.97,365.368 467.479,365.148 463.372,367.223C456.759,370.565 455.166,367.898 454.815,367.31C454.286,366.423 451.993,359.062 452.922,351.556C453.215,349.191 453.011,347.305 454.503,347.484C455.478,347.601 456.351,350.03 458.557,352.449C462.446,356.713 466.282,361.788 467.449,361.872C470.105,362.065 467.469,357.794 473.401,356.149C474.772,355.768 484.053,354.127 496.5,354.199C505.179,354.249 517.788,355.387 520.183,356.985C522.432,358.485 522.705,361.209 522.792,361.359C522.884,361.517 524.057,362.141 524.327,362.148C524.465,362.152 528.333,358.074 529.056,357.156C532.978,352.176 534.046,351.684 535.032,350.151C535.129,349.999 535.089,349.978 536.184,348.222C536.689,347.413 536.551,347.11 537.522,347.113C538.404,347.116 538.649,348.301 538.677,348.439C538.747,348.779 539.171,354.849 539.04,356.47C537.908,370.503 534.442,368.968 533.466,368.894C530.992,368.708 526.543,366.357 523.567,365.337C517.775,363.35 517.72,360.546 490.487,361.158Z" style="fill:rgb(242,241,213);"/>
                <path d="M487.475,47.146C490.183,47.175 490.178,47.201 502.521,47.14C502.662,47.344 504.29,49.691 504.29,49.691C504.365,49.884 504.123,50.269 504.804,51.278C511.258,60.853 515.224,73.6 517.713,76.442C518.144,76.934 518.371,77 517.952,77.5C517.536,77.997 516.82,78.179 516.404,78.676C515.87,78.319 509.334,74.473 508.718,74.111C503.005,70.75 503.072,70.662 502.565,70.39C496.916,67.359 496.623,65.936 493.225,68.058C489.064,70.655 478.741,76.442 474.739,78.911C474.364,78.096 474.065,78.309 473.693,77.5C473.663,77.435 473.493,77.064 473.68,76.609C473.746,76.446 474.033,76.506 474.154,76.379C475.134,75.351 482.023,59.345 485.294,54.349C488.359,49.668 487.298,48.815 487.294,48.5C487.287,48.045 487.481,47.601 487.475,47.146Z" style="fill:rgb(6,3,2);"/>
                <path d="M437.293,309.331L438.5,310.882C439.604,310.353 439.48,309.998 441.56,309.78C447.455,309.163 448.464,309.939 454.34,312.88C458.244,314.835 465.387,320.743 467.434,321.683C468.887,322.35 478.137,324.932 479.571,325.246C480.985,325.556 488.221,326.423 490.514,326.416C491.353,326.414 497.374,327.11 499.5,326.742C499.849,326.682 500.13,326.397 500.477,326.326C500.802,326.259 501.146,326.399 501.473,326.338C501.872,326.263 502.218,325.993 502.618,325.925C503.269,325.813 503.937,325.839 504.597,325.802C505.252,325.765 505.907,325.739 506.561,325.701C513.245,325.317 514.132,324.554 521.528,322.598C527.042,321.141 530.195,315.503 537.52,312.57C543.443,310.198 543.626,309.727 547.45,309.871C551.056,310.006 551.064,309.725 551.361,309.823C551.661,309.922 551.766,310.316 552.022,310.5C552.485,310.831 553.037,311.024 553.5,311.355L554.929,310.08C555.613,310.981 560.39,316.038 559.426,319.461C559.244,320.107 559.117,320.054 558.451,320.12C558.175,320.147 557.897,320.315 557.628,320.247C557.353,320.177 555.125,316.787 552.444,315.629C543.323,311.69 536.891,319.612 529.433,324.393C525.534,326.892 515.376,328.864 512.474,329.093C510.644,329.237 503.553,329.968 499.49,330.048C483.67,330.361 477.504,328.983 469.553,327.227C463.399,325.868 463.689,325.097 453.743,318.145C452.721,317.431 444.771,311.875 438.286,316.152C435.628,317.905 434.528,319.302 434.424,319.353C434.256,319.435 432.405,320.341 432.224,318.584C431.963,316.046 435.591,312.319 437.293,309.331Z" style="fill:rgb(255,21,55);"/>
                <path d="M552.529,274.446C550.517,273.442 548.811,273.122 546.172,271.951C542.646,270.385 539.663,269.754 541.317,268.269C541.739,267.891 541.8,268.099 542.365,268.172C542.415,268.179 546.317,268.491 549.466,268.135C561.556,266.767 565.977,266.695 573.478,263.452C582.885,259.386 586.786,243.757 587.32,242.405C588.34,239.819 591.37,238.796 592.735,240.32C593.779,241.485 592.699,251.408 590.233,257.437C587.196,264.863 585.632,266.222 584.985,266.784C582.906,268.59 582.161,271.214 577.553,273.622C567.12,279.076 563.14,280.118 552.529,274.446Z" style="fill:rgb(255,21,55);"/>
                <path d="M567.54,354.17C559.69,352.947 556.866,351.482 551.471,348.548C545.976,345.561 539.075,337 537.462,334.529C535.814,332.004 533.843,329.016 534.33,327.421C534.532,326.758 541.774,320.365 546.478,320.109C551.711,319.824 551.021,324.247 553.178,328.645C553.415,329.13 555.849,334.095 556.219,334.668C561.844,343.381 564.989,346.13 569.72,350.251C572.435,352.617 574.201,352.458 574.256,353.549C574.334,355.103 571.511,354.54 567.54,354.17Z" style="fill:rgb(242,240,212);"/>
                <path d="M424.446,354.107C419.955,354.541 417.403,355.054 417.494,353.499C417.552,352.51 418.173,352.983 421.565,350.582C427.421,346.437 431.696,340.453 432.419,339.441C435.494,335.137 435.896,334.668 439.347,326.44C441.294,321.798 440.486,319.848 445.518,320.104C449.822,320.322 453.266,324.105 456.506,326.493C458.565,328.01 457.542,329.654 453.879,334.773C444.287,348.182 435.186,352.407 424.446,354.107Z" style="fill:rgb(243,240,213);"/>
                <path d="M512.545,333.955C516.587,333.605 516.541,333.426 520.56,332.833C527.18,331.855 529.888,329.575 530.498,329.614C530.732,329.629 531.435,330.273 531.471,330.506C531.566,331.129 530.816,332.452 530.728,332.608C529.622,334.56 529.689,334.581 528.708,336.597C527.238,339.619 526.463,339.519 518.547,340.791C511.02,342.001 488.892,343.108 474.431,340.944C465.341,339.583 464.686,339.956 463.014,336.734C460.931,332.719 460.905,332.75 460.726,332.401C460.636,332.227 459.779,330.558 460.711,329.948C462.192,328.978 462.042,331.123 470.463,332.7C476.644,333.858 487.618,334.804 488.483,334.834C503.589,335.371 511.708,334.038 512.545,333.955Z" style="fill:rgb(243,242,215);"/>
                <path d="M528.474,120.471C528.594,120.88 529.111,121.092 529.231,121.5C529.358,121.931 529.112,122.401 529.173,122.846C529.207,123.088 529.45,123.261 529.507,123.499C529.656,124.126 529.34,124.166 530.558,131.49C531.482,137.047 531.11,137.111 531.325,137.549C531.375,137.65 531.534,137.409 532.5,138.315C533.128,138.905 532.932,139.056 533.572,139.657C532.951,139.922 532.958,139.899 532.347,140.179C521.495,145.157 517.947,145.681 503.507,147.812C503.395,147.358 503.117,146.955 503.005,146.5C502.81,145.711 503.302,145.723 503.244,143.496C503.22,142.591 503.245,142.614 503.32,140.502C503.406,138.062 502.928,138.143 502.668,137.5C502.485,137.048 502.422,136.554 502.239,136.102C504.828,134.71 504.743,134.604 507.315,133.16C508.068,132.737 514.488,129.131 516.642,127.731C518.989,126.206 525.224,123.219 528.474,120.471Z" style="fill:rgb(5,5,3);"/>
                <path d="M462.926,120.09C466.417,123.098 466.63,122.771 470.211,124.979C472.162,126.181 481.868,131.876 483.438,132.625C485.799,133.752 486.988,134.675 489.685,136.218C489.529,136.633 489.485,137.085 489.33,137.5C489.11,138.087 488.694,138.084 488.571,140.507C488.241,146.99 488.47,146.981 488.503,147.853C488.342,147.834 486.484,147.615 486.484,147.615C476.153,145.836 469.715,145.24 458.456,139.583C459.053,138.937 458.908,138.838 459.5,138.197C460.24,137.395 460.358,137.559 460.401,137.477C460.558,137.181 460.374,136.803 460.413,136.47C460.452,136.145 460.56,136.186 461.099,132.436C462.104,125.429 462.531,125.462 462.263,121.5L462.926,120.09Z" style="fill:rgb(6,5,3);"/>
                <path d="M470.433,46.572C470.835,46.64 471.134,47.033 471.536,47.101C472.181,47.211 472.845,47.087 473.5,47.093C473.5,47.093 477.17,47.181 477.489,47.188L476.376,48.5C476.039,48.8 475.837,49.233 475.5,49.533C475.334,49.681 475.269,49.595 473.349,51.3C471.778,52.695 458.239,61.674 448.331,73.364C437.705,85.9 431.88,98.285 430.776,100.633C429.529,103.284 429.058,103.372 427.591,106.587C427.545,106.688 427.053,107.766 426.906,107.798C426.446,107.899 425.96,107.563 425.5,107.664C425.502,107.231 424.92,106.933 424.923,106.5C424.925,106.07 425.403,105.768 425.513,105.352C425.643,104.868 425.416,104.925 424.222,103.541C423.916,103.185 423.501,102.877 423.357,102.43C422.993,101.302 430.077,89.348 431.439,86.474C432.958,83.269 435.961,79.918 437.45,77.467C441.962,70.04 450.099,62.265 450.169,62.193C454.796,57.394 463.198,52.051 463.71,51.748C466.701,49.98 466.87,50.262 467.058,50.027C467.058,50.027 467.312,48.622 467.334,48.5L467.501,47.548C468.168,47.255 468.834,46.961 469.5,46.667L470.433,46.572Z" style="fill:rgb(255,21,55);"/>
                <path d="M587.166,339.411C583.906,350.947 584.976,353.082 582.488,352.999C581.339,352.96 581.535,352.513 575.585,348.367C571.339,345.409 572.678,344.339 574.39,339.459C576.277,334.079 576.376,334.127 577.949,328.631C581.143,317.471 581.103,317.443 581.683,316.621C582.908,314.884 584.316,314.138 591.397,308.299C592.246,307.599 592.328,307.337 593.288,307.864C594.377,308.46 593.665,308.849 592.134,316.431C590.306,325.483 590.12,325.422 588.312,334.461C588.206,334.994 588.199,334.989 587.166,339.411Z" style="fill:rgb(255,21,55);"/>
                <path d="M417.429,340.526C418.852,344.693 419.785,345.508 416.272,348.161C415.136,349.019 412.545,350.893 412.219,351.128C409.638,352.995 408.742,352.795 408.42,352.723C407.059,352.418 406.915,349.272 406.03,345.617C404.291,338.436 401.881,327.105 401.538,325.492C400.543,320.812 400.389,320.859 399.279,315.538C398.25,310.605 396.579,307.442 398.476,307.348C400.074,307.269 399.465,308.493 406.218,312.951C409.548,315.15 410.245,317.062 410.416,317.529C410.87,318.773 414.471,332.739 415.826,336.36C415.951,336.694 415.985,336.678 417.429,340.526Z" style="fill:rgb(255,21,55);"/>
                <path d="M603.322,269.76C604.012,270.595 604.04,270.572 604.067,270.662C604.121,270.838 603.953,271.023 603.97,271.206C603.984,271.347 604.131,271.448 604.156,271.587C604.213,271.907 604.189,272.236 604.214,272.56C604.414,275.234 604.575,275.548 603.384,277.421C602.046,279.525 602.171,279.572 600.915,281.72C596.641,289.026 592.3,293.383 591.351,294.36C589.434,296.334 585.45,299.219 583.323,300.076C575.604,303.189 572.353,301.808 568.452,300.654C562.898,299.011 557.285,294.956 557.219,294.913C551.505,291.142 551.898,290.63 546.332,286.655C543.197,284.417 543.165,283.661 543.09,283.57C543.889,283.564 544.689,283.559 545.489,283.554C548.703,285.521 552.444,288.11 555.557,289.361C561.03,291.559 568.656,295.713 577.438,294.188C581.504,293.482 586.081,290.233 588.245,288.205C595.921,281.015 601.061,273.285 601.437,272.456C602.442,270.24 602.733,270.454 603.322,269.76Z" style="fill:rgb(242,236,207);"/>
                <path d="M387.79,270.686C388.042,270.728 388.305,270.628 388.558,270.67C389.54,270.833 389.526,272.189 392.299,275.647C397.805,282.513 398.83,283.722 404.227,288.843C413.765,296.772 422.421,295.659 435.579,289.683C440.371,287.506 447.286,282.684 447.583,282.738C448.137,282.839 448.336,283.71 448.89,283.811C447.252,285.232 447.333,285.314 445.499,286.499C444.845,286.921 439.687,290.94 439.303,291.267C431.836,297.625 420.342,303.547 413.447,301.707C406.167,299.764 403.025,296.39 399.756,293.232C395.414,289.037 390.105,280.624 389.49,279.506C386.907,274.801 387.034,274.595 387.79,270.686Z" style="fill:rgb(243,237,209);"/>
                <path d="M702.615,157.028C703.983,157.41 707.561,157.738 711.187,163.687C715.116,170.133 711.994,179.674 702.532,178.309C695.452,177.288 687.948,168.847 691.284,161.393C692.785,158.042 696.616,155.813 701.452,156.753C701.843,156.829 702.224,156.952 702.615,157.028Z" style="fill:rgb(243,240,209);"/>
                <path d="M301.16,164.534C301.161,166.861 301.433,167.791 299.422,171.454C295.671,178.288 283.443,181.969 279.762,173.402C278.726,170.99 278.841,166.508 280.656,163.592C286.213,154.667 296.625,155.36 299.435,159.549C300.925,161.772 300.599,161.908 301.16,164.534Z" style="fill:rgb(243,241,210);"/>
                <path d="M498.264,248.916C498.336,249.107 498.538,249.231 498.609,249.423C499.16,250.895 498.833,250.932 498.836,252.513C498.855,262.513 498.827,262.499 498.95,272.504C499.156,277.148 499.381,303.858 499.298,304.477C499.249,304.848 498.93,307.245 495.503,307.217C492.925,307.197 492.63,305.521 492.596,305.47C492.571,305.187 492.407,304.882 492.424,303.499C492.675,282.989 492.82,283.004 493.092,262.483C493.118,257.475 493.024,257.492 492.892,252.473C492.856,251.085 492.926,251.106 492.96,249.728C493.578,248.895 493.545,248.866 493.626,248.829C494.072,248.627 496.268,248.613 496.498,248.612C497.902,248.603 497.894,248.852 498.264,248.916Z" style="fill:rgb(243,233,207);"/>
                <path d="M495.49,40.594C506.855,40.706 506.838,40.493 518.499,40.696C518.785,40.814 519.132,40.715 519.418,40.833C521.056,41.507 521.157,43.35 521.451,44.507C521.437,45.063 522.383,46.909 519.488,47.105C519.171,47.126 519.194,47.11 515.518,47.172C512.982,47.135 513.003,47.144 510.469,47.09C508.043,47.08 508.056,47.048 502.521,47.14C490.178,47.201 490.183,47.175 487.475,47.146C484.496,47.088 484.517,47.089 481.519,47.113C480.176,47.138 478.832,47.163 477.489,47.188C477.17,47.181 473.5,47.093 473.5,47.093C472.845,47.087 472.181,47.211 471.536,47.101C471.134,47.033 470.835,46.64 470.433,46.572C470.427,46.523 469.844,45.765 470.288,43.463C470.922,40.169 472.723,40.696 478.497,40.708C489.864,40.731 494.131,40.627 495.49,40.594Z" style="fill:rgb(246,238,205);"/>
                <path d="M471.252,89.127C471.458,89.686 472.191,89.941 472.397,90.5C472.562,90.948 472.215,91.455 472.285,91.928C472.335,92.263 473.949,92.254 476.283,93.884C477.276,94.578 479.235,95.528 479.41,95.641C479.557,95.736 479.617,95.947 479.778,96.014C479.908,96.069 480.063,95.93 480.199,95.969C480.307,95.999 480.259,96.069 481.482,96.532C482.738,97.006 484.993,98.763 485.692,99.03C486.13,99.196 490.673,100.924 491.24,100.885C491.68,100.855 492.073,100.392 492.503,100.492C493.055,100.621 493.321,101.371 493.873,101.5C493.527,101.662 493.827,102.417 493.481,102.579C492.525,103.027 492.35,101.821 491.522,102.509C491.313,102.683 491.278,103.002 491.094,103.202C490.894,103.419 487.245,105.604 486.769,105.919C485.729,106.607 481.661,108.573 475.614,112.656C474.679,113.288 474.674,113.238 473.677,113.737C471.603,114.776 471.837,115.059 470.286,116.769C470.145,116.578 469.914,116.465 469.773,116.274C469.081,115.337 469.206,115.221 469.237,100.501C469.253,93.121 469.236,93.126 469.251,92.485C469.308,90.035 470.514,89.729 471.252,89.127Z" style="fill:rgb(255,21,55);"/>
                <path d="M567.662,232.833C568.574,232.593 569.486,232.353 570.398,232.113L571.5,232.666C571.622,232.897 573.569,232.99 571.456,240.487C570.451,244.051 567.429,249.396 564.42,252.421C561.011,255.849 553.384,260.066 546.491,260.131C542.02,260.174 538.323,258.351 534.5,257.124C532.573,256.506 529.941,255.029 529.5,254.527C529.156,254.135 529.021,253.588 528.677,253.197C534.788,254.438 542.684,256.411 547.519,255.62C556.193,254.2 560.055,249.411 560.724,248.697C564.759,244.391 565.892,239.873 565.963,239.661C567.88,233.951 567.589,233.88 567.662,232.833Z" style="fill:rgb(255,21,55);"/>
                <path d="M420.637,232.055C422.078,232.243 422.06,232.238 423.499,232.503C423.6,232.739 423.534,232.762 424.652,235.492C426.722,243.895 429.063,248.106 435.572,252.39C443.145,257.374 449.745,256.204 462.36,253.225C462.089,253.835 462.56,253.893 462.29,254.5C462.257,254.575 462.228,254.639 461.5,255.158C459.612,256.505 459.509,256.292 457.344,257.113C455.029,257.992 448.584,262.115 439.32,258.999C434.887,257.508 434.887,257.503 431.49,255.519C424.815,251.622 420.956,244.31 419.894,237.46C419.852,237.189 419.507,233.536 419.517,233.5C419.678,232.912 420.475,232.642 420.637,232.055Z" style="fill:rgb(255,21,55);"/>
                <path d="M481.519,47.113C484.517,47.089 484.496,47.088 487.475,47.146C487.481,47.601 487.287,48.045 487.294,48.5C487.298,48.815 488.359,49.668 485.294,54.349C482.023,59.345 475.134,75.351 474.154,76.379C474.033,76.506 473.746,76.446 473.68,76.609C473.493,77.064 473.663,77.435 473.693,77.5C474.065,78.309 474.364,78.096 474.739,78.911C472.218,80.509 470.641,81.257 467.761,82.898C467.469,82.207 466.031,81.159 467.201,78.439C469.432,73.251 470.426,70.065 471.762,67.647C472.083,67.068 475.721,58.307 478.172,54.314C480.932,49.816 480.764,49.683 481.138,49.419C481.439,49.206 481.998,49.566 482.236,49.284C482.418,49.068 481.731,48.716 481.913,48.5L481.519,47.113Z" style="fill:rgb(255,21,55);"/>
                <path d="M502.521,47.14C508.056,47.048 508.043,47.08 510.469,47.09C511.01,49.791 511.255,50.293 511.38,50.55C512.613,53.077 513.119,52.788 517.301,61.586C523.927,75.528 524.819,80.244 524.682,80.5C524.581,80.689 524.535,80.627 522.655,82.245C522.309,82.049 518.769,80.041 518.344,79.79C518.344,79.79 516.559,78.765 516.404,78.676C516.82,78.179 517.536,77.997 517.952,77.5C518.371,77 518.144,76.934 517.713,76.442C515.224,73.6 511.258,60.853 504.804,51.278C504.123,50.269 504.365,49.884 504.29,49.691C504.29,49.691 502.662,47.344 502.521,47.14Z" style="fill:rgb(255,21,55);"/>
                <path d="M495.49,40.594C495.987,39.079 496.121,39.099 496.083,37.503C495.989,33.555 496.31,33.559 495.982,29.535C495.51,23.726 500.307,29.198 504.478,31.535C510.503,34.911 513.466,36.97 515.38,37.673C518.232,38.72 517.785,39.305 518.499,40.696C506.838,40.493 506.855,40.706 495.49,40.594Z" style="fill:rgb(16,4,2);"/>
                <path d="M491.37,172.635C491.173,172.443 487.796,169.332 487.595,168.465C487.209,166.795 488.108,166.641 493.748,160.741C496.297,158.074 497.198,160.132 497.999,161.017C499.062,162.191 503.897,166.465 504.101,167.59C504.238,168.348 504.289,168.631 498.159,175.168C495.51,177.994 494.394,175.719 491.37,172.635Z" style="fill:rgb(244,237,207);"/>
                <path d="M489.685,136.218C491.658,137.28 491.663,137.239 492.358,137.713C496.922,140.824 497.271,138.522 502.239,136.102C502.422,136.554 502.485,137.048 502.668,137.5C502.928,138.143 503.406,138.062 503.32,140.502C503.245,142.614 503.22,142.591 503.244,143.496C503.302,145.723 502.81,145.711 503.005,146.5C503.117,146.955 503.395,147.358 503.507,147.812C500.865,148.01 496.429,148.617 488.503,147.853C488.47,146.981 488.241,146.99 488.571,140.507C488.694,138.084 489.11,138.087 489.33,137.5C489.485,137.085 489.529,136.633 489.685,136.218Z" style="fill:rgb(255,21,55);"/>
                <path d="M427.091,325.568C428.359,332.937 430.688,333.431 427.803,336.792C426.39,338.438 425.852,340.189 424.27,338.733C423.534,338.056 424.044,337.033 422.15,329.582C421.97,328.872 420.904,324.678 420.89,320.504C420.884,319.014 421.029,317.068 423.707,314.793C426.105,312.755 427.057,314.383 426.683,317.508C426.283,320.85 426.544,321.72 427.091,325.568Z" style="fill:rgb(255,21,55);"/>
                <path d="M568.791,332.566C567.809,338.193 567.708,339.634 566.505,339.647C565.243,339.66 565.539,339.104 563.607,336.412C560.915,332.661 564.126,331.252 564.915,322.536C565.418,316.976 563.833,314.986 565.528,314.559C567.136,314.154 567.137,314.543 568.333,315.696C571.482,318.73 571.052,322.263 568.791,332.566Z" style="fill:rgb(255,21,55);"/>
                <path d="M589.387,161.505C589.476,160.758 589.112,159.687 590.702,157.7C592.289,155.715 593.338,156.516 593.445,156.585C593.853,156.845 594.245,157.985 595.116,162.554C596.714,170.929 598.538,178.964 597.553,179.531C597.228,179.718 596.811,179.417 596.438,179.377C594.518,179.176 592.264,179.585 591.707,176.453C590.289,168.482 589.542,162.705 589.387,161.505Z" style="fill:rgb(255,21,55);"/>
                <path d="M402.378,162.484C402.289,163.187 400.491,176.47 400.128,177.352C399.443,179.014 395.043,178.403 394.82,178.242C394.059,177.693 393.804,177.435 395.906,166.562C397.732,157.114 397.846,157.005 398.57,156.612C399.618,156.043 402.427,157.238 402.509,160.5C402.513,160.659 402.499,160.647 402.378,162.484Z" style="fill:rgb(255,21,55);"/>
                <path d="M677.327,310.559C675.344,304.804 675.019,304.947 673.183,299.592C673.049,299.202 671.76,295.441 674.538,294.615C676.742,293.958 677.326,295.846 678.04,297.704C683.252,311.265 683.335,311.25 683.514,312.499C683.556,312.794 683.929,315.4 681.52,315.638C678.612,315.924 677.671,311.452 677.327,310.559Z" style="fill:rgb(255,21,55);"/>
                <path d="M314.619,309.547C313.381,313.04 312.952,314.586 311.67,314.992C310.36,315.407 307.35,314.665 308.269,311.477C308.97,309.05 312.027,303.133 313.71,297.59C315.489,291.733 319.484,294.589 319.119,297.469C318.937,298.899 315.743,306.743 314.619,309.547Z" style="fill:rgb(255,21,55);"/>
                <path d="M337.736,260.614C333.584,269.515 332.973,273.347 330.596,273.981C329.15,274.367 326.75,273.218 327.78,270.518C328.185,269.454 328.24,269.487 333.411,257.453C333.499,257.25 334.422,255.101 334.625,254.972C336.092,254.04 339.811,255.154 338.246,259.423C338.098,259.829 337.885,260.208 337.736,260.614Z" style="fill:rgb(255,21,55);"/>
                <path d="M301.339,306.464C301.457,306.156 302.684,302.94 302.803,302.614C303.199,301.525 307.258,291.446 307.824,290.786C308.834,289.608 313.561,289.02 311.804,293.552C309.496,299.506 309.23,300.127 308.989,300.691C305.864,308.001 305.991,308.039 305.694,308.662C304.573,311.012 301.233,310.02 301.191,307.506C301.185,307.155 301.345,306.815 301.339,306.464Z" style="fill:rgb(255,21,55);"/>
                <g transform="matrix(1,0,0,1,-19.984857,46.214981)">
                    <path d="M314.619,309.547C313.381,313.04 312.952,314.586 311.67,314.992C310.36,315.407 307.35,314.665 308.269,311.477C308.97,309.05 312.027,303.133 313.71,297.59C315.489,291.733 319.484,294.589 319.119,297.469C318.937,298.899 315.743,306.743 314.619,309.547Z" style="fill:rgb(255,21,55);"/>
                </g>
                <g transform="matrix(1,0,0,1,-19.984857,46.214981)">
                    <path d="M301.339,306.464C301.457,306.156 302.684,302.94 302.803,302.614C303.199,301.525 307.258,291.446 307.824,290.786C308.834,289.608 313.561,289.02 311.804,293.552C309.496,299.506 309.23,300.127 308.989,300.691C305.864,308.001 305.991,308.039 305.694,308.662C304.573,311.012 301.233,310.02 301.191,307.506C301.185,307.155 301.345,306.815 301.339,306.464Z" style="fill:rgb(255,21,55);"/>
                </g>
                <path d="M655.694,264.393C655.089,263.129 653.128,259.398 653.245,257.477C653.393,255.073 656.61,253.597 657.635,256.388C658.059,257.545 658.097,257.526 663.848,270.481C663.949,270.71 664.898,272.847 663.588,273.609C659.366,276.066 658.416,270.602 655.694,264.393Z" style="fill:rgb(255,21,55);"/>
                <path d="M690.235,306.543C690.272,308.188 690.738,308.406 689.559,309.56C689.534,309.584 687.858,310.729 686.465,309.555C685.951,309.121 686.073,309.018 680.317,294.546C680.269,294.426 679.099,292.317 680.067,291.145C681.09,289.908 682.974,289.681 684.192,291.708C685.754,294.308 685.228,294.532 688.133,300.67C689.259,303.049 690.101,306.062 690.235,306.543Z" style="fill:rgb(255,21,55);"/>
                <g transform="matrix(1,0,0,1,20.297118,47.927029)">
                    <path d="M677.327,310.559C675.344,304.804 675.019,304.947 673.183,299.592C673.049,299.202 671.76,295.441 674.538,294.615C676.742,293.958 677.326,295.846 678.04,297.704C683.252,311.265 683.335,311.25 683.514,312.499C683.556,312.794 683.929,315.4 681.52,315.638C678.612,315.924 677.671,311.452 677.327,310.559Z" style="fill:rgb(255,21,55);"/>
                </g>
                <g transform="matrix(1,0,0,1,20.297118,47.927029)">
                    <path d="M690.235,306.543C690.272,308.188 690.738,308.406 689.559,309.56C689.534,309.584 687.858,310.729 686.465,309.555C685.951,309.121 686.073,309.018 680.317,294.546C680.269,294.426 679.099,292.317 680.067,291.145C681.09,289.908 682.974,289.681 684.192,291.708C685.754,294.308 685.228,294.532 688.133,300.67C689.259,303.049 690.101,306.062 690.235,306.543Z" style="fill:rgb(255,21,55);"/>
                </g>
                <path d="M669.392,262.555C669.707,263.316 671.978,267.259 669.221,269.052C667.612,270.098 666.746,269.386 666.583,269.252C666.334,269.047 664.371,263.902 663.72,262.408C662.833,260.372 659.741,254.022 659.817,252.588C659.912,250.792 662.919,249.487 664.569,252.458C665.003,253.24 664.958,253.258 669.392,262.555Z" style="fill:rgb(255,21,55);"/>
                <path d="M321.856,263.627C322.205,262.838 326.625,252.737 327.574,251.566C329.248,249.499 332.659,250.955 331.874,253.501C331.754,253.888 328.497,261.235 327.796,262.636C325.645,266.932 325.593,270.344 322.424,268.626C320.024,267.326 321.845,263.659 321.856,263.627Z" style="fill:rgb(255,21,55);"/>
                <path d="M492.96,249.728C492.926,251.106 492.856,251.085 492.892,252.473C493.024,257.492 493.118,257.475 493.092,262.483L492.023,261.5C491.645,261.109 491.882,260.963 491.5,260.567C491.021,260.071 490.894,260.354 490.869,260.305C490.828,260.223 490.543,258.243 489.676,256.397C488.665,254.245 485.77,251.146 485.382,250.731C487.465,248.954 487.414,248.91 487.629,248.814C487.942,248.674 488.315,248.791 488.653,248.735C488.942,248.688 489.209,248.523 489.502,248.505C489.853,248.483 490.209,248.702 490.55,248.619C490.914,248.531 491.16,247.865 491.5,248.021C492.18,248.334 492.28,249.415 492.96,249.728Z" style="fill:rgb(255,21,55);"/>
                <path d="M458.119,296.642C458.565,296.767 459.054,296.676 459.5,296.801C459.874,296.906 460.154,297.328 460.543,297.323C460.79,297.319 460.603,296.77 463.45,296.284C465.4,295.951 466.438,296.452 466.5,296.448C467.048,296.415 466.948,296.105 467.5,296.062C467.667,296.049 467.645,296.108 469.5,296.7L470.5,297.026L471.489,298.528C471.169,298.543 470.868,298.312 470.548,298.327C469.851,298.359 469.176,298.587 468.484,298.667C466.728,298.871 466.726,298.776 466.593,298.849C466.285,299.018 465.722,302.056 464.455,302.355C462.713,302.766 460.709,300.783 460.453,300.583C458.129,298.773 458.487,298.167 458.119,296.642Z" style="fill:rgb(255,21,55);"/>
                <path d="M511.827,288.441C512.404,288.573 512.981,288.704 513.558,288.836C513.422,288.936 513.565,289.227 513.429,289.328C512.963,289.67 511.879,289.497 511.797,289.355C511.645,289.09 511.979,288.705 511.827,288.441Z" style="fill:rgb(255,21,55);"/>
            </g>
        </g>
    </g>
</svg>
