<?xml version="1.0" encoding="UTF-8" standalone="no"?>
<!DOCTYPE svg PUBLIC "-//W3C//DTD SVG 1.1//EN" "http://www.w3.org/Graphics/SVG/1.1/DTD/svg11.dtd">
<svg width="100%" height="100%" viewBox="0 0 2255 825" version="1.1" xmlns="http://www.w3.org/2000/svg" xmlns:xlink="http://www.w3.org/1999/xlink" xml:space="preserve" xmlns:serif="http://www.serif.com/" style="fill-rule:evenodd;clip-rule:evenodd;stroke-linejoin:round;stroke-miterlimit:2;">
    <g transform="matrix(1,0,0,1,0,-4260.597534)">
        <g transform="matrix(1.290907,0,0,1,524.664825,5432.966582)">
            <g transform="matrix(2.708284,0,0,3.496142,-919.710258,-2347.646621)">
                <path d="M831.5,571.999L192.5,571.999C192.073,571.776 191.896,571.21 191.469,570.986C191.331,570.914 191.326,570.975 189.522,570.831C190.064,569.199 189.961,569.171 190.798,567.655C191.571,566.254 210.632,524.453 214.944,515.724C217.361,510.832 221.359,500.656 223.13,499.067C224.874,497.503 240.52,491.427 247.593,487.677C248.195,487.358 248.238,487.509 255.346,484.162C259.391,482.257 259.31,482.13 263.49,480.476C263.988,480.279 263.913,480.139 269.589,477.719C272.963,476.28 275.922,474.606 281.437,472.358C284.917,470.94 284.729,470.549 296.554,465.625C297.777,465.116 297.731,465.047 311.623,458.76C315.52,456.996 315.429,456.839 319.384,455.192C325.263,452.745 325.342,452.05 325.406,451.488C325.632,449.512 319.802,440.52 319.688,438.482C319.613,437.134 321.563,433.228 327.294,420.413C328.143,418.515 337.801,396.919 337.913,396.69C340.662,391.068 340.332,390.931 343.026,385.287C346.138,378.767 347.966,374.402 348.368,373.444C349.159,371.555 349.456,371.538 350.334,369.428C351.815,365.87 352.775,366.467 359.597,363.755C361.406,363.035 361.46,363.207 382.41,355.266C409.064,345.163 423.578,340.585 424.863,338.832C425.227,338.337 593.32,335.298 596.14,336.405C602.629,338.952 606.158,341.541 612.6,344.254C613.859,344.784 613.927,344.598 628.605,350.214C631.99,351.509 632.02,351.389 635.392,352.756C636.755,353.308 636.763,353.238 652.578,359.284C653.689,359.709 653.7,359.66 666.514,364.462C671.536,366.344 672.16,365.913 673.763,369.384C677.893,378.326 677.63,378.426 681.821,387.345C683.658,391.254 686.097,396.7 686.462,397.516C687.832,400.576 687.934,400.517 689.187,403.621C690.019,405.683 694.25,415.081 694.833,416.352C695.606,418.039 704.031,436.413 704.254,437.539C704.426,438.408 704.54,438.984 699.909,447.726C698.885,449.658 698.371,450.543 698.539,451.489C698.745,452.652 699.253,452.303 709.662,457.139C711.733,458.101 734.037,468.327 736.547,469.393C743.141,472.193 742.941,472.609 749.561,475.359C750.124,475.592 750.046,475.746 756.499,478.503C759.583,479.821 759.496,479.974 762.587,481.285C763.116,481.508 777.827,488.245 779.29,488.95C779.708,489.152 779.76,489.029 784.596,491.291C786.757,492.301 786.809,492.156 792.341,494.837C800.192,498.643 800.892,497.972 802.194,500.643C803.209,502.725 810.955,519.747 811.786,521.368C812.953,523.645 821.595,542.303 821.649,542.436C822.412,544.337 826.033,551.755 827.641,555.433C828.301,556.942 828.723,557.597 832.371,565.563C832.506,565.858 834.288,569.253 834.359,569.566C834.451,569.98 834.389,570.419 834.482,570.833C832.67,570.984 832.665,570.924 832.526,570.996C832.102,571.216 831.924,571.779 831.5,571.999Z" style="fill:rgb(1,1,1);"/>
            </g>
        </g>
    </g>
</svg>
