<?xml version="1.0" encoding="UTF-8" standalone="no"?>
<!DOCTYPE svg PUBLIC "-//W3C//DTD SVG 1.1//EN" "http://www.w3.org/Graphics/SVG/1.1/DTD/svg11.dtd">
<svg width="100%" height="100%" viewBox="0 0 1291 792" version="1.1" xmlns="http://www.w3.org/2000/svg" xmlns:xlink="http://www.w3.org/1999/xlink" xml:space="preserve" xmlns:serif="http://www.serif.com/" style="fill-rule:evenodd;clip-rule:evenodd;stroke-linejoin:round;stroke-miterlimit:2;">
    <g transform="matrix(1,0,0,1,-7001.14809,-4290.289846)">
        <g transform="matrix(3.496142,0,0,3.496142,5856.161745,3081.825811)">
            <path d="M696.5,571.999L689.5,571.999C689.322,571.686 689.3,571.3 689.122,570.988C688.997,570.767 688.744,570.64 688.607,570.426C688.533,570.311 678.486,551.247 678.182,550.685C676.889,548.298 676.39,546.335 676.086,545.809C675.972,545.612 675.717,545.535 675.563,545.367C675.452,545.244 675.464,544.939 675.298,544.946C674.287,544.988 674.196,546.247 674.185,546.393C674.098,547.599 674.647,547.58 674.64,561.501C674.637,566.761 674.672,566.74 674.5,571.999L668.5,571.999C668.611,563.741 668.483,563.756 668.487,555.501L668.523,554.499C668.548,543.488 668.333,543.51 668.385,532.499C668.439,521.071 668.397,517.37 667.518,514.494C665.263,507.115 661.802,503.126 656.435,499.597C652.846,497.237 646.675,496.302 644.519,496.185C636.272,495.74 635.668,497.542 635.096,498.003C629.864,502.211 619.613,507.292 616.666,508.848C601.422,516.892 584.987,522.199 583.598,522.745C580.054,524.138 575.87,525.113 575.421,525.26C571.045,526.693 570.99,526.419 566.519,527.575C554.661,530.641 554.552,530.047 548.471,531.365C547.607,531.552 543.208,532.506 537.525,532.827C524.006,533.592 524.031,534.015 510.496,533.945C497.754,533.88 497.78,533.51 486.473,532.859C479.909,532.482 471.297,530.486 468.417,529.982C461.342,528.743 461.471,528.239 454.443,526.76C451.71,526.184 449.158,525.22 447.419,524.775C440.749,523.064 426.357,517.432 425.66,517.136C417.307,513.585 417.349,513.522 416.622,513.217C410.155,510.504 406.395,508.202 404.552,507.389C401.542,506.06 392.851,501.021 391.719,500.201C388.516,497.88 387.921,496.421 384.517,496.208C383.239,496.129 375.348,495.636 368.746,498.96C362.535,502.086 359.603,507.325 359.078,508.262C354.478,516.482 356.076,517.076 355.74,554.506L355.77,556.53C355.641,565.374 355.934,565.372 355.5,571.999L349.5,571.999C349.373,567.868 349.504,566.858 349.507,563.5C349.525,545.806 350.202,545.419 349.259,544.927C348.761,544.667 348.706,544.78 348.35,545.205C347.111,546.681 347.716,546.98 346.75,548.654C345.459,550.891 335.434,570.258 335.413,570.441C335.355,570.958 335.558,571.482 335.5,571.999L327.5,571.999C327.772,571.38 327.619,571.35 327.896,570.721C327.954,570.589 328.132,570.54 328.198,570.412C328.479,569.862 328.665,569.267 328.925,568.707C329.679,567.084 329.844,567.184 330.574,565.534C331.436,563.587 336.178,554.854 338.409,550.451C341.326,544.692 348.643,530.878 349.132,529.38C350.51,525.155 346.767,510.839 357.379,499.389C364.326,491.893 373.015,490.878 374.504,490.517C376.119,490.324 376.101,490.269 381.519,490.157C384.236,490.102 384.223,490.143 384.453,490.097C385.697,489.848 386.122,489.378 386.227,489.262C386.56,488.894 386.63,488.816 388.733,483.59C389.161,482.813 392.891,476.041 393.979,473.817C395.561,470.632 397.439,467.208 397.751,466.639C403.668,455.849 403.381,455.698 403.952,454.794C407.719,448.821 407.574,448.594 409.527,447.546C413.167,445.592 414.82,446.708 427.582,452.252C430.069,453.335 430.039,453.345 432.564,454.363C434.501,455.103 434.483,455.081 436.408,455.819C438.474,456.635 438.462,456.631 440.554,457.361C443.138,458.16 443.144,458.094 445.676,459.032C451.129,461.05 451.563,460.707 455.414,461.812C460.444,463.256 460.435,463.207 465.512,464.435C467.526,464.916 467.51,464.922 469.542,465.351C472.02,465.914 471.997,465.947 474.518,466.355C474.922,466.423 476.625,466.711 479.591,467.064C487.933,468.185 487.867,468.872 505.503,469.574C506.832,469.603 508.161,469.632 509.49,469.661C512.016,469.656 511.992,469.654 514.511,469.672C516.505,469.636 516.492,469.651 518.497,469.565C524.228,469.347 524.218,469.328 527.485,469.162C537.554,468.651 537.984,468.033 545.43,467.089C548.298,466.722 548.277,466.721 548.525,466.693C551.536,466.144 551.525,466.154 554.513,465.546C556.265,465.146 556.254,465.149 556.405,465.114C556.991,464.976 556.971,464.953 557.566,464.813C558.032,464.676 560.374,463.985 563.45,463.291C567.487,462.38 567.389,462.06 571.412,461.11C577.559,459.658 577.411,459.22 583.465,457.409C584.572,457.024 584.576,457.095 587.6,455.824C589.956,454.926 589.934,454.917 592.317,454.071C594.37,453.13 594.359,453.153 596.42,452.267C603.447,449.509 608.412,446.672 611.497,446.728C616.698,446.823 618.557,452.469 623.038,460.735C627.303,468.601 627.762,470.255 630.007,473.871C630.383,474.633 631.447,476.789 634.929,483.286C636.12,485.219 636.108,485.217 636.903,487.353C638.137,490.665 638.978,490.169 643.486,490.216C646.5,490.354 646.484,490.29 649.475,490.61C651.985,491.038 651.949,491.116 654.427,491.772C660.627,493.414 665.707,498.097 667.553,500.456C677.207,512.786 673.48,522.002 674.701,528.458C675.187,531.03 693.232,565.397 693.774,566.357C695.3,569.061 695.363,569.679 695.786,570.395C696.234,571.153 696.138,571.186 696.5,571.999Z" style="fill:rgb(245,234,207);"/>
            <path d="M404.12,466.273L405.742,467.5L406.638,466.5L407.272,465.5L407.971,464.5L408.517,463.5L409.28,462.5C409.438,462.144 409.728,461.856 409.886,461.5C410.052,461.127 410.018,460.67 410.243,460.33C410.369,460.139 410.469,460.238 412.247,458.288C414.403,455.922 415.482,456.053 419.403,457.692C423.971,459.601 423.778,460.027 428.47,461.594C430.99,462.435 440.668,466.01 445.532,467.395C447.261,467.887 449.403,468.929 451.534,469.342C457.615,470.52 457.399,471.351 463.505,472.477C477.613,475.078 477.626,474.989 479.556,475.131C483.527,475.422 483.504,476.873 491.507,477.411C500.999,478.049 500.976,478.132 510.504,478.263C512.343,478.289 521.682,478.417 533.482,477.364C539.656,476.813 540.377,475.628 544.462,475.204C545.913,475.053 548.423,474.793 562.439,472.216C565.741,471.609 569.186,470.046 571.509,469.536C580.157,467.637 583.634,465.575 589.537,463.63C595.774,461.574 595.833,461.759 601.744,458.93C608.339,455.774 609.647,456.571 610.244,456.935C610.574,457.136 611.245,457.545 613.54,460.474C613.708,460.689 613.811,460.951 613.988,461.158C614.295,461.516 614.719,461.773 614.983,462.163C615.155,462.418 614.95,462.533 616.888,465.5C616.998,465.67 618.205,467.516 618.442,467.5C619.098,467.455 619.304,466.285 619.96,466.239C620.999,468.247 621.044,468.206 621.989,470.266C623.691,473.981 624.388,474.805 625.247,476.612C627.907,482.207 627.978,482.15 628.193,482.642C631.526,490.267 631.924,491.151 631.252,492.347C630.481,493.719 614.075,503.085 605.294,507.034C588.747,514.474 580.018,516.938 570.581,519.775C567.815,520.606 553.956,523.643 551.416,524.038C537.014,526.277 537.077,526.843 522.496,527.39C492.494,528.515 480.424,525.206 476.478,524.647C469.338,523.636 464.984,522.293 462.441,521.768C454.895,520.211 453.318,519.702 439.573,515.268C434.468,513.622 434.54,513.451 425.391,509.784C421.839,508.361 421.901,508.246 418.381,506.779C415.126,505.422 405.347,500.33 404.376,499.718C402.757,498.698 396.475,495.387 394.295,493.788C391.416,491.676 392.547,490.961 393.825,487.625C395.304,483.763 395.542,483.888 399.904,474.683C400.226,474.003 400.365,474.097 404.12,466.273Z" style="fill:rgb(3,2,2);"/>
            <path d="M355.74,554.506C356.076,517.076 354.478,516.482 359.078,508.262C359.603,507.325 362.535,502.086 368.746,498.96C375.348,495.636 383.239,496.129 384.517,496.208C387.921,496.421 388.516,497.88 391.719,500.201C392.851,501.021 401.542,506.06 404.552,507.389C406.395,508.202 410.155,510.504 416.622,513.217C417.349,513.522 417.307,513.585 425.66,517.136C426.357,517.432 440.749,523.064 447.419,524.775C449.158,525.22 451.71,526.184 454.443,526.76C461.471,528.239 461.342,528.743 468.417,529.982C471.297,530.486 479.909,532.482 486.473,532.859C497.78,533.51 497.754,533.88 510.496,533.945C524.031,534.015 524.006,533.592 537.525,532.827C543.208,532.506 547.607,531.552 548.471,531.365C554.552,530.047 554.661,530.641 566.519,527.575C570.99,526.419 571.045,526.693 575.421,525.26C575.87,525.113 580.054,524.138 583.598,522.745C584.987,522.199 601.422,516.892 616.666,508.848C619.613,507.292 629.864,502.211 635.096,498.003C635.668,497.542 636.272,495.74 644.519,496.185C646.675,496.302 652.846,497.237 656.435,499.597C661.802,503.126 665.263,507.115 667.518,514.494C668.397,517.37 668.439,521.071 668.385,532.499C668.333,543.51 668.548,543.488 668.523,554.499L668.487,555.501C665.55,556.271 665.529,556.018 662.492,555.982C657.453,555.922 624.759,555.534 599.5,555.535C532.662,555.536 532.684,554.991 371.502,555.905C358.573,555.979 358.575,556.135 358.462,556.121C358.419,556.115 357.642,555.434 356.5,555.953C356.218,556.081 356.053,556.402 355.77,556.53L355.74,554.506Z" style="fill:rgb(255,21,55);"/>
            <path d="M668.5,571.999L661.5,571.999C660.809,571.652 660.119,571.305 659.428,570.958C659.475,568.635 660.38,563.403 656.468,562.877C653.633,562.497 653.445,566.116 653.425,566.494C653.365,567.645 653.413,567.624 653.553,570.934C651.991,570.957 652.012,570.958 650.442,570.94C650.191,565.995 650.244,565.995 650.187,565.568C649.741,562.193 643.66,561.092 643.98,568.485C644.04,569.884 644.541,570.89 644.549,570.925C644.388,570.931 642.536,571 642.536,571C642.107,571.213 641.93,571.785 641.5,571.999L615.5,571.999C614.814,571.645 614.128,571.291 613.442,570.937C613.481,570.668 613.873,570.019 613.779,567.492C613.525,560.649 608.865,563.504 608.678,563.692C607.616,564.759 607.721,567.171 607.719,567.506C607.709,569.232 607.636,569.216 607.552,570.941C605.989,570.952 606.009,570.95 604.453,570.925C604.755,568.19 604.99,568.198 604.647,565.466C604.326,562.912 602.153,562.476 600.369,563.238C597.755,564.354 598.515,569.094 598.573,570.955C597.882,571.303 597.191,571.651 596.5,571.999L569.5,571.999C568.812,571.644 568.124,571.289 567.435,570.935C567.479,570.433 567.715,569.96 567.759,569.459C568.223,564.188 566.124,563.383 565.63,563.194C564.121,562.615 561.719,562.711 561.421,565.473C561.231,567.228 561.367,567.222 561.54,570.914C559.982,570.935 560.003,570.934 558.459,570.917C558.533,567.266 558.684,567.272 558.435,565.525C558.391,565.214 558.071,562.969 555.495,562.932C551.472,562.873 552.124,568.889 552.187,569.471C552.241,569.971 552.506,570.431 552.56,570.931C551.874,571.287 551.187,571.643 550.5,571.999L521.5,571.999L520.424,570.98C520.307,570.291 520.111,570.325 519.918,567.478C519.898,567.177 520.273,563.113 516.503,562.878C513.988,562.721 513.726,565.246 513.694,565.555C513.65,565.983 513.768,565.979 513.552,570.939C511.984,570.951 512.005,570.95 510.456,570.922C510.809,568.19 511.044,568.191 510.638,565.46C510.59,565.139 510.194,562.47 507.529,562.851C502.975,563.502 504.491,569.8 504.567,570.946C503.878,571.297 503.189,571.648 502.5,571.999L473.5,571.999L472.432,570.974C472.359,570.447 472.051,569.971 471.978,569.444C471.841,568.458 472.683,564.04 469.628,563.092C467.372,562.392 465.978,563.848 465.78,565.593C465.732,566.018 465.859,566.001 465.544,570.933C463.995,570.946 464.014,570.945 462.462,570.92C462.544,570.306 462.868,570.331 462.773,566.465C462.763,566.081 462.671,562.348 459.55,562.902C456.081,563.518 456.584,566.864 456.57,570.959C455.88,571.306 455.19,571.652 454.5,571.999L427.5,571.999C426.812,571.646 426.124,571.293 425.437,570.94C425.508,569.965 427.065,563.571 422.53,563.002C419.917,562.674 419.582,565.201 419.541,565.511C419.295,567.368 419.451,567.355 419.553,570.932C417.994,570.956 418.016,570.956 416.449,570.941C416.321,565.812 416.57,563.882 414.649,563.148C412.957,562.501 410.48,563.207 410.149,566.475C410.088,567.068 410.089,569.209 410.129,569.419C410.225,569.935 410.456,570.42 410.553,570.936C409.869,571.291 409.184,571.645 408.5,571.999L382.5,571.999C382.069,571.784 381.893,571.21 381.462,570.995C381.462,570.995 379.613,570.927 379.452,570.921C379.571,570.141 379.848,570.236 379.969,569.45C379.993,569.294 380.007,569.198 379.981,567.477C379.902,562.479 376.387,562.951 375.432,563.357C374.101,563.921 373.897,566.25 373.872,566.532C373.741,568.034 373.987,568.017 373.856,569.519C373.814,570.002 373.593,570.457 373.551,570.94C371.989,570.95 372.006,570.948 370.459,570.918C370.505,570.622 370.85,570.166 370.837,568.502C370.835,568.257 370.815,565.8 370.768,565.437C370.347,562.213 365.834,561.818 364.825,565.571C364.713,565.988 364.729,565.988 364.571,570.962C363.881,571.308 363.19,571.653 362.5,571.999L355.5,571.999C355.934,565.372 355.641,565.374 355.77,556.53C356.053,556.402 356.218,556.081 356.5,555.953C357.642,555.434 358.419,556.115 358.462,556.121C358.575,556.135 358.573,555.979 371.502,555.905C532.684,554.991 532.662,555.536 599.5,555.535C624.759,555.534 657.453,555.922 662.492,555.982C665.529,556.018 665.55,556.271 668.487,555.501C668.483,563.756 668.611,563.741 668.5,571.999Z" style="fill:rgb(5,2,2);"/>
            <g>
                <g transform="matrix(0.28603,0,0,0.28603,-790.842498,5.721436)">
                    <path d="M5103.866,1601.419C5102.195,1600.763 5093.626,1605.96 5084.347,1606.046C5077.802,1606.106 5039.571,1594.412 5035.724,1593.235C5031.471,1592.35 5031.77,1591.323 4983.185,1579.522C4965.662,1574.568 4934.034,1569.382 4939.334,1524.612C4939.821,1520.502 4964.409,1392.794 4966.842,1383.856C4967.194,1381.741 4970.405,1362.445 4977.869,1359.431C4989.526,1354.724 4992.498,1371.558 4992.78,1373.155C4990.866,1393.376 4989.819,1393.146 4964.88,1519.876C4960.497,1542.149 4960.097,1547.151 4981.725,1554.135C5082.14,1586.564 5085.649,1582.649 5090.428,1575.191C5098.305,1562.897 5122.334,1421.819 5124.621,1408.391C5125.213,1406.123 5126.017,1395.279 5136.833,1394.176C5153.084,1392.519 5146.769,1422.583 5146.237,1425.115C5129.728,1524.621 5121.598,1532.034 5129.656,1529.476C5119.433,1548.298 5103.866,1601.419 5103.866,1601.419Z" style="fill:rgb(244,233,207);"/>
                </g>
                <g transform="matrix(0.28603,0,0,0.28603,-1544.135452,-882.492871)">
                    <path d="M6616.894,4632.346C6615.283,4624.212 6596.746,4530.679 6596.746,4530.679C6596.426,4528.373 6593.345,4506.141 6599.399,4501.691C6613.798,4491.109 6618.469,4515.226 6618.847,4517.179C6627.165,4550.57 6645.35,4667.178 6653.757,4680.733C6658.309,4688.074 6661.781,4692.173 6759.879,4660.816C6785.735,4652.551 6782.03,4645.301 6777.261,4618.447C6764.772,4548.126 6762.046,4548.859 6750.134,4478.487C6750.363,4476.916 6752.596,4461.585 6764.859,4465.182C6766.723,4465.728 6768.622,4466.647 6769.894,4468.115C6772.874,4471.555 6776.496,4490.544 6776.876,4492.54C6780.175,4510.371 6805.149,4629.715 6805.487,4635.261C6808.123,4678.422 6765.453,4683.615 6760.327,4685.001C6746.241,4688.361 6746.337,4688.419 6732.488,4692.671C6730.513,4693.156 6709.147,4698.404 6707.795,4698.72C6703.723,4699.918 6667.062,4710.703 6655.896,4709.777C6642.756,4708.688 6642.608,4706.827 6637.897,4694.648C6629.789,4673.69 6613.26,4621.563 6616.894,4632.346Z" style="fill:rgb(244,233,207);"/>
                </g>
                <path d="M386.603,398.487C387.291,402.555 387.574,402.486 388.253,406.542C390.179,418.049 390.559,417.966 391.223,422.548C392.548,431.694 393.269,431.537 394.362,438.52C395.245,444.165 395.937,446.431 394.285,448.314C392.9,449.894 385.835,451.708 384.629,451.987C380.002,453.058 380.167,453.573 375.547,454.692C362.523,457.847 360.303,460.189 358.231,454.596C356.424,449.717 353.868,432.871 352.661,427.459C350.673,418.54 351.263,418.437 349.051,409.554C349.814,409.521 349.74,409.211 350.5,409.178C351.038,409.155 350.965,409.43 351.494,409.447C351.75,409.456 358.246,407.875 359.497,407.492C369.53,404.417 369.582,404.612 370.445,404.315C376.29,402.308 376.803,402.976 383.559,400.63C385.401,399.99 385.033,399.299 385.5,398.922C385.807,398.674 386.295,398.735 386.603,398.487Z" style="fill:rgb(255,21,55);"/>
                <path d="M637.24,398.484C638.54,399.671 638.913,400.382 640.388,400.805C647.405,402.821 647.458,402.567 654.449,404.689C657.037,405.475 660,405.831 664.547,407.364C666.947,408.173 669.25,408.502 671.536,409.271C672.317,409.534 672.359,409.729 673.5,409.254C673.995,409.048 674.456,408.769 674.951,408.563C674.553,410.901 667.532,448.829 666.255,453.439C664.932,458.219 663.603,458.887 656.441,456.686C651.441,455.151 651.381,455.415 646.364,453.92C643.46,453.055 643.516,452.92 640.579,452.191C636.055,451.069 631.039,449.193 630.766,449.023C628.551,447.632 628.187,446.096 629.26,440.451C629.915,437.011 630.347,437.119 632.109,426.434C632.268,425.474 632.326,425.507 634.294,414.467C635.278,408.947 636.762,403.539 637.24,398.484Z" style="fill:rgb(255,21,55);"/>
                <path d="M649.524,461.434C653.023,462.504 652.98,462.576 656.476,463.61C656.381,463.891 656.556,464.219 656.462,464.5C656.31,464.952 655.911,465.293 655.759,465.745C655.689,465.953 655.884,465.985 655.277,468.444C654.492,471.624 653.372,477.342 651.543,484.51C650.611,488.163 650.797,488.204 650.667,488.504C650.591,488.682 650.579,488.66 649.475,490.61C646.484,490.29 646.5,490.354 643.486,490.216C643.42,489.836 643.669,489.87 643.606,489.5C643.512,488.952 643.249,489.062 643.19,488.5C643.167,488.276 644.04,484.93 644.367,483.466C646.145,475.506 646.06,475.507 647.846,467.565C648.965,462.589 649.323,462.561 649.343,462.5C649.456,462.158 649.411,461.776 649.524,461.434Z" style="fill:rgb(255,21,55);"/>
                <path d="M374.493,461.48C374.589,461.806 374.413,462.174 374.51,462.5C374.617,462.86 374.946,463.121 375.084,463.47C375.518,464.57 377.009,470.919 377.162,471.57C378.245,476.186 379.151,481.543 380.578,486.477C380.67,486.796 381.06,488.401 381.074,488.5C381.123,488.83 381.041,489.178 381.128,489.5C381.194,489.746 381.453,489.911 381.519,490.157C376.101,490.269 376.119,490.324 374.504,490.517C374.366,490.191 374.343,489.825 374.205,489.5C373.786,488.512 373.687,488.568 373.438,487.517C372.817,484.902 372.54,484.987 371.77,481.443C369.885,472.771 369.451,471.596 368.74,468.447C368.149,465.831 368.499,465.79 368.433,465.568C368.313,465.158 367.908,464.886 367.726,464.5C367.602,464.236 367.655,463.91 367.53,463.646C371.025,462.588 370.981,462.513 374.493,461.48Z" style="fill:rgb(255,21,55);"/>
                <path d="M634.496,457.511C638.506,458.485 638.503,458.422 642.468,459.622C640.202,464.42 640.738,464.595 638.68,472.546C637.919,475.488 637.995,475.489 637.363,478.463C636.787,481.179 636.725,481.193 634.929,483.286C631.447,476.789 630.383,474.633 630.007,473.871C630.663,473.04 630.97,473.409 631.623,472.583C631.671,472.522 631.671,472.522 631.784,471.622C631.98,470.072 631.774,470.051 634.12,458.5L634.496,457.511Z" style="fill:rgb(255,21,55);"/>
                <path d="M389.518,457.556L389.87,458.5C392.653,470.513 391.738,470.71 392.2,471.676C392.222,471.723 392.332,471.546 392.745,472.043C393.442,472.882 393.282,472.978 393.979,473.817C392.891,476.041 389.161,482.813 388.733,483.59C388.553,483.245 388.497,482.845 388.317,482.5C387.561,481.055 386.996,481.219 385.57,473.486C384.581,468.128 383.763,466.889 382.274,460.5L381.555,459.75C385.517,458.534 385.489,458.517 389.518,457.556Z" style="fill:rgb(255,21,55);"/>
                <path d="M382.405,436.338C382.812,436.242 383.172,435.992 383.579,435.896C384.294,435.727 387.2,435.853 388.048,438.616C388.302,439.443 387.959,441.802 386.612,442.65C382.861,445.011 380.16,441.837 380.313,439.486C380.443,437.492 380.954,437.702 382.405,436.338Z" style="fill:rgb(244,223,197);"/>
                <path d="M367.443,448.033C367.147,447.983 366.839,448.094 366.543,448.045C363.671,447.56 361.66,443.673 365.215,441.077C368.72,438.518 372.908,443.495 369.77,446.762C368.715,447.86 367.714,447.916 367.443,448.033Z" style="fill:rgb(247,229,205);"/>
                <path d="M636.194,439.485C636.342,438.969 636.214,438.961 636.359,438.454C636.379,438.386 636.466,438.081 636.724,437.638C638.701,434.239 644.337,436.307 643.531,440.505C642.858,444.009 637.982,444.558 636.629,441.44C636.19,440.428 636.197,439.498 636.194,439.485Z" style="fill:rgb(245,229,202);"/>
                <path d="M656.559,448.023C656.196,447.863 655.791,447.812 655.428,447.652C652.618,446.41 652.432,441.513 655.502,440.505C660.627,438.824 662.517,447.191 657.464,448.042C657.166,448.092 656.856,447.973 656.559,448.023Z" style="fill:rgb(246,229,201);"/>
            </g>
            <path d="M404.12,466.273C404.577,465.349 409.365,455.669 409.925,454.768C412.257,451.016 414.033,450.964 419.423,453.646C421.844,454.851 430.49,458.226 431.46,458.604C448.543,465.273 456.003,466.561 459.482,467.563C466.374,469.55 466.471,469.076 473.456,470.68C482,472.642 501.221,474.711 514.499,474.448C524.006,474.259 523.995,474.196 533.462,473.2C546.644,471.812 546.583,471.454 559.579,468.914C562.055,468.43 572.51,465.573 572.523,465.569C582.209,462.544 585.604,461.159 586.606,460.854C589.664,459.92 589.558,459.695 592.55,458.637C596.584,457.21 596.505,457.063 600.484,455.459C607.162,452.767 610.265,449.986 613.386,453.593C614.45,454.822 619.437,465.074 619.96,466.239C619.304,466.285 619.098,467.455 618.442,467.5C618.205,467.516 616.998,465.67 616.888,465.5C614.95,462.533 615.155,462.418 614.983,462.163C614.719,461.773 614.295,461.516 613.988,461.158C613.811,460.951 613.708,460.689 613.54,460.474C611.245,457.545 610.574,457.136 610.244,456.935C609.647,456.571 608.339,455.774 601.744,458.93C595.833,461.759 595.774,461.574 589.537,463.63C583.634,465.575 580.157,467.637 571.509,469.536C569.186,470.046 565.741,471.609 562.439,472.216C548.423,474.793 545.913,475.053 544.462,475.204C540.377,475.628 539.656,476.813 533.482,477.364C521.682,478.417 512.343,478.289 510.504,478.263C500.976,478.132 500.999,478.049 491.507,477.411C483.504,476.873 483.527,475.422 479.556,475.131C477.626,474.989 477.613,475.078 463.505,472.477C457.399,471.351 457.615,470.52 451.534,469.342C449.403,468.929 447.261,467.887 445.532,467.395C440.668,466.01 430.99,462.435 428.47,461.594C423.778,460.027 423.971,459.601 419.403,457.692C415.482,456.053 414.403,455.922 412.247,458.288C410.469,460.238 410.369,460.139 410.243,460.33C410.018,460.67 410.052,461.127 409.886,461.5C409.728,461.856 409.438,462.144 409.28,462.5L408.517,463.5L407.971,464.5L407.272,465.5L406.638,466.5L405.742,467.5L404.12,466.273Z" style="fill:rgb(255,21,55);"/>
            <path d="M422.611,496.762C419.615,497.981 418.797,498.454 417.398,495.553C416.824,494.362 414.802,490.17 410.732,480.418C409.869,478.352 410.043,477.295 412.665,475.786C413.186,475.486 427.64,468.949 429.507,468.818C431.199,468.7 431.84,470.767 433.257,473.63C434.741,476.628 437.848,483.723 438.235,484.606C439.433,487.34 440.162,488.969 437.365,490.218C430.441,493.312 428.638,494.274 422.611,496.762ZM426.604,487.748C429.146,486.582 429.158,486.611 429.434,486.406C429.607,486.277 430.216,485.517 430.255,485.405C430.442,484.874 430.759,483.969 428.073,478.723C426.904,476.439 425.099,477.578 421.426,479.369C418.073,481.004 419.31,482.698 420.786,486.387C422.182,489.874 423.278,489.19 426.604,487.748Z" style="fill:rgb(255,21,55);"/>
            <path d="M548.674,488.64C552.6,483.308 552.582,483.303 552.93,482.845C554.82,480.357 555.759,481.065 562.257,485.847C568.631,490.537 569.064,490.823 569.676,491.227C571.151,492.201 572.754,492.727 572.397,494.476C572.313,494.885 562.98,509.277 561.757,510.736C559.45,513.491 558.663,511.746 549.548,505.433C542.791,500.752 541.613,499.853 541.895,498.564C542.212,497.11 547.799,489.721 548.674,488.64ZM552.222,495.328C550.646,497.994 551.38,498.541 555.556,501.413C558.624,503.522 559.197,502.345 561.705,498.627C562.868,496.903 563.492,496.016 562.542,494.47C562.495,494.393 557.862,490.202 555.757,490.958C555.457,491.066 554.364,492.162 553.891,492.796C553.746,492.991 553.813,493.032 552.222,495.328Z" style="fill:rgb(255,21,55);"/>
            <path d="M588.571,478.534C590.53,474.703 591.294,472.228 592.326,470.389C593.488,468.318 595.114,468.559 600.319,470.899C610.863,475.641 610.89,475.588 611.747,476.113C613.812,477.379 614.243,478.183 612.813,481.62C610.403,487.415 610.086,488.095 609.828,488.649C606.532,495.729 606.091,498.258 603.45,497.751C602.841,497.634 590.188,491.71 587.465,490.579C583.941,489.116 584.206,488.098 585.801,484.62C588.366,479.022 588.334,479.014 588.571,478.534ZM594.661,481.571C593.827,483.466 592.484,485.301 595.357,486.749C599.748,488.962 601.506,490.135 602.735,487.63C602.893,487.307 603.837,485.383 604.545,483.518C605.835,480.119 603.267,479.526 599.65,478.104C596.272,476.776 596.382,478.376 594.661,481.571Z" style="fill:rgb(255,21,55);"/>
            <path d="M500.367,506.632C499.035,505.291 496.523,503.039 496.624,501.514C496.718,500.104 500.035,497.398 509.301,488.294C511.404,486.227 512.12,485.783 514.652,488.345C519.852,493.605 525.942,499.348 526.266,499.711C527.853,501.486 528.123,502.287 524.173,506.167C514.293,515.873 513.379,517.98 511.475,517.589C510.527,517.394 505.438,511.586 500.367,506.632ZM508.555,498.56C505.968,501.021 505.216,501.754 507.696,504.32C511.074,507.814 511.788,508.667 513.783,506.871C514.519,506.209 517.558,503.292 517.741,502.582C518.175,500.895 516.805,500.162 514.84,498.153C512.58,495.843 511.898,495.324 509.573,497.578C509.326,497.818 509.367,497.835 509.112,498.081C508.847,498.336 508.835,498.29 508.555,498.56Z" style="fill:rgb(255,21,55);"/>
            <path d="M462.474,485.463C464.15,484.279 464.164,484.302 464.308,484.198C466.631,482.527 468.118,481.261 469.481,481.564C470.368,481.76 470.285,481.97 477.839,492.26C477.843,492.265 481.435,497.342 481.512,497.494C483.16,500.785 478.852,501.85 474.41,505.387C472.667,506.775 468.327,509.623 467.788,509.976C465.249,511.642 464.105,513.646 461.401,509.572C457.722,504.03 457.699,504.054 457.391,503.564C452.047,495.058 451.481,495.157 451.699,493.549C451.878,492.22 452.662,492.817 462.474,485.463ZM471.719,495.36C470.614,493.886 469.009,491.012 467.51,490.962C466.615,490.932 462.526,493.372 461.569,494.55C461.463,494.681 460.89,495.386 461.101,496.601C461.175,497.025 461.214,497.249 463.937,501.18C466.067,504.256 468.667,501.528 469.68,500.747C473.007,498.179 473.005,497.555 471.719,495.36Z" style="fill:rgb(255,21,55);"/>
            <path d="M642.468,459.622C645.955,460.681 645.935,460.687 649.524,461.434C649.411,461.776 649.456,462.158 649.343,462.5C649.323,462.561 648.965,462.589 647.846,467.565C646.06,475.507 646.145,475.506 644.367,483.466C644.04,484.93 643.167,488.276 643.19,488.5C643.249,489.062 643.512,488.952 643.606,489.5C643.669,489.87 643.42,489.836 643.486,490.216C638.978,490.169 638.137,490.665 636.903,487.353C636.108,485.217 636.12,485.219 634.929,483.286C636.725,481.193 636.787,481.179 637.363,478.463C637.995,475.489 637.919,475.488 638.68,472.546C640.738,464.595 640.202,464.42 642.468,459.622Z" style="fill:rgb(8,3,2);"/>
            <path d="M381.555,459.75L382.274,460.5C383.763,466.889 384.581,468.128 385.57,473.486C386.996,481.219 387.561,481.055 388.317,482.5C388.497,482.845 388.553,483.245 388.733,483.59C386.63,488.816 386.56,488.894 386.227,489.262C386.122,489.378 385.697,489.848 384.453,490.097C384.223,490.143 384.236,490.102 381.519,490.157C381.453,489.911 381.194,489.746 381.128,489.5C381.041,489.178 381.123,488.83 381.074,488.5C381.06,488.401 380.67,486.796 380.578,486.477C379.151,481.543 378.245,476.186 377.162,471.57C377.009,470.919 375.518,464.57 375.084,463.47C374.946,463.121 374.617,462.86 374.51,462.5C374.413,462.174 374.589,461.806 374.493,461.48C374.879,461.39 380.99,459.889 381.555,459.75Z" style="fill:rgb(8,2,2);"/>
            <g>
                <path d="M689.5,571.999L674.5,571.999C674.672,566.74 674.637,566.761 674.64,561.501C674.647,547.58 674.098,547.599 674.185,546.393C674.196,546.247 674.287,544.988 675.298,544.946C675.464,544.939 675.452,545.244 675.563,545.367C675.717,545.535 675.972,545.612 676.086,545.809C676.39,546.335 676.889,548.298 678.182,550.685C678.486,551.247 688.533,570.311 688.607,570.426C688.744,570.64 688.997,570.767 689.122,570.988C689.3,571.3 689.322,571.686 689.5,571.999Z" style="fill:rgb(255,21,55);"/>
                <path d="M520.424,570.98L521.5,571.999L502.5,571.999L504.567,570.946C504.491,569.8 502.975,563.502 507.529,562.851C510.194,562.47 510.59,565.139 510.638,565.46C511.044,568.191 510.809,568.19 510.456,570.922C512.005,570.95 511.984,570.951 513.552,570.939C513.768,565.979 513.65,565.983 513.694,565.555C513.726,565.246 513.988,562.721 516.503,562.878C520.273,563.113 519.898,567.177 519.918,567.478C520.111,570.325 520.307,570.291 520.424,570.98Z" style="fill:rgb(255,21,55);"/>
                <path d="M567.435,570.935L569.5,571.999L550.5,571.999L552.56,570.931C552.506,570.431 552.241,569.971 552.187,569.471C552.124,568.889 551.472,562.873 555.495,562.932C558.071,562.969 558.391,565.214 558.435,565.525C558.684,567.272 558.533,567.266 558.459,570.917C560.003,570.934 559.982,570.935 561.54,570.914C561.367,567.222 561.231,567.228 561.421,565.473C561.719,562.711 564.121,562.615 565.63,563.194C566.124,563.383 568.223,564.188 567.759,569.459C567.715,569.96 567.479,570.433 567.435,570.935Z" style="fill:rgb(255,21,55);"/>
                <path d="M472.432,570.974L473.5,571.999L454.5,571.999L456.57,570.959C456.584,566.864 456.081,563.518 459.55,562.902C462.671,562.348 462.763,566.081 462.773,566.465C462.868,570.331 462.544,570.306 462.462,570.92C464.014,570.945 463.995,570.946 465.544,570.933C465.859,566.001 465.732,566.018 465.78,565.593C465.978,563.848 467.372,562.392 469.628,563.092C472.683,564.04 471.841,568.458 471.978,569.444C472.051,569.971 472.359,570.447 472.432,570.974Z" style="fill:rgb(255,21,55);"/>
                <path d="M613.442,570.937L615.5,571.999L596.5,571.999L598.573,570.955C598.515,569.094 597.755,564.354 600.369,563.238C602.153,562.476 604.326,562.912 604.647,565.466C604.99,568.198 604.755,568.19 604.453,570.925C606.009,570.95 605.989,570.952 607.552,570.941C607.636,569.216 607.709,569.232 607.719,567.506C607.721,567.171 607.616,564.759 608.678,563.692C608.865,563.504 613.525,560.649 613.779,567.492C613.873,570.019 613.481,570.668 613.442,570.937Z" style="fill:rgb(255,21,55);"/>
                <path d="M425.437,570.94L427.5,571.999L408.5,571.999L410.553,570.936C410.456,570.42 410.225,569.935 410.129,569.419C410.089,569.209 410.088,567.068 410.149,566.475C410.48,563.207 412.957,562.501 414.649,563.148C416.57,563.882 416.321,565.812 416.449,570.941C418.016,570.956 417.994,570.956 419.553,570.932C419.451,567.355 419.295,567.368 419.541,565.511C419.582,565.201 419.917,562.674 422.53,563.002C427.065,563.571 425.508,569.965 425.437,570.94Z" style="fill:rgb(255,21,55);"/>
                <path d="M659.428,570.958L661.5,571.999L641.5,571.999C641.93,571.785 642.107,571.213 642.536,571L644.549,570.925C644.541,570.89 644.04,569.884 643.98,568.485C643.66,561.092 649.741,562.193 650.187,565.568C650.244,565.995 650.191,565.995 650.442,570.94C652.012,570.958 651.991,570.957 653.553,570.934C653.413,567.624 653.365,567.645 653.425,566.494C653.445,566.116 653.633,562.497 656.468,562.877C660.38,563.403 659.475,568.635 659.428,570.958Z" style="fill:rgb(255,21,55);"/>
                <path d="M379.452,570.921L381.462,570.995C381.893,571.21 382.069,571.784 382.5,571.999L362.5,571.999L364.571,570.962C364.729,565.988 364.713,565.988 364.825,565.571C365.834,561.818 370.347,562.213 370.768,565.437C370.815,565.8 370.835,568.257 370.837,568.502C370.85,570.166 370.505,570.622 370.459,570.918C372.006,570.948 371.989,570.95 373.551,570.94C373.593,570.457 373.814,570.002 373.856,569.519C373.987,568.017 373.741,568.034 373.872,566.532C373.897,566.25 374.101,563.921 375.432,563.357C376.387,562.951 379.902,562.479 379.981,567.477C380.007,569.198 379.993,569.294 379.969,569.45C379.848,570.236 379.571,570.141 379.452,570.921Z" style="fill:rgb(255,21,55);"/>
            </g>
            <path d="M548.525,466.693C548.277,466.721 548.298,466.722 545.43,467.089C543.977,465.011 544.049,464.955 543.615,462.472C541.558,450.705 541.559,450.555 541.564,449.504C541.586,445.404 546.618,444.911 547.147,448.669C547.768,453.084 549.977,462.983 549.819,464.5C549.78,464.871 549.358,465.129 549.32,465.5L548.525,466.693Z" style="fill:rgb(255,21,55);"/>
            <path d="M474.518,466.355L474.563,465.5C474.52,465.146 474.225,464.854 474.182,464.5C474.069,463.571 474.338,463.599 476.428,450.484C476.52,449.906 476.614,446.052 479.521,446.249C483.471,446.516 481.976,451.825 481.1,457.442C480.002,464.484 479.939,464.47 479.914,464.554C479.459,466.104 479.327,466.078 479.36,466.962C479.363,467.046 479.587,466.98 479.591,467.064C476.625,466.711 474.922,466.423 474.518,466.355Z" style="fill:rgb(255,21,55);"/>
            <path d="M587.6,455.824C584.576,457.095 584.572,457.024 583.465,457.409C581.982,455.593 581.953,455.63 581.863,455.448C581.795,455.309 581.939,455.265 581.295,453.595C577.718,444.332 577.842,444.293 577.515,443.494C574.565,436.294 580.193,436.751 581.24,437.878C581.42,438.072 587.38,452.915 587.443,453.535C587.476,453.859 587.279,454.176 587.302,454.5C587.333,454.951 587.569,455.373 587.6,455.824Z" style="fill:rgb(255,21,55);"/>
            <path d="M465.512,464.435C465.551,464.107 465.799,463.828 465.838,463.5C465.847,463.427 465.607,462.393 465.896,460.561C466.048,459.602 467.185,452.394 467.999,448.613C469.128,443.371 472.938,444.19 473.985,446.251C474.266,446.805 474.081,447.604 473.287,451.455C471.009,462.514 471.628,462.642 471.194,463.521C471.194,463.521 469.674,465.204 469.542,465.351C467.51,464.922 467.526,464.916 465.512,464.435Z" style="fill:rgb(255,21,55);"/>
            <path d="M436.408,455.819C436.458,455.364 436.741,454.955 436.791,454.5C436.824,454.204 436.607,453.912 436.653,453.618C436.775,452.827 442.232,438.43 442.766,437.91C443.75,436.95 449.008,436.146 446.427,443.476C446.09,444.434 442.246,455.352 442.196,455.452C441.979,455.893 441.563,456.375 441.5,456.449C441.067,456.952 440.993,456.85 440.554,457.361C438.462,456.631 438.474,456.635 436.408,455.819Z" style="fill:rgb(255,21,55);"/>
            <path d="M505.503,469.574C505.262,468.998 505.166,469.068 504.928,468.5C504.898,468.428 504.711,467.983 504.662,467.568C504.505,466.263 504.878,454.646 504.914,453.523C505.124,446.991 509.705,449.435 510.096,449.95C510.896,451.004 510.584,451.163 510.449,466.499C510.434,468.178 510.165,468.116 509.49,469.661C508.161,469.632 506.832,469.603 505.503,469.574Z" style="fill:rgb(255,21,55);"/>
            <path d="M514.511,469.672C513.182,466.257 513.621,466.172 513.526,462.501C513.502,461.538 513.236,451.243 513.439,450.459C513.812,449.018 518.626,447.184 518.837,452.477C519.52,469.627 518.497,469.565 518.497,469.565C516.492,469.651 516.505,469.636 514.511,469.672Z" style="fill:rgb(255,21,55);"/>
            <path d="M557.566,464.813C556.971,464.953 556.991,464.976 556.405,465.114C556.254,465.149 556.265,465.146 554.513,465.546C554.199,465.167 553.786,464.879 553.472,464.5C552.549,463.388 552.982,463.213 551.925,458.396C551.388,455.949 550.824,452.16 550.094,448.5C549.862,447.332 549.469,447.277 550.057,446.23C551.183,444.227 554.614,444.165 555.58,447.473C555.726,447.972 558.24,461.904 558.202,462.749C558.194,462.922 558.155,462.902 557.566,464.813Z" style="fill:rgb(255,21,55);"/>
            <path d="M427.582,452.252C428.424,450.617 428.447,450.639 428.491,450.487C428.563,450.239 428.284,449.927 428.898,448.688C431.373,443.691 432.693,438.952 433.867,436.695C434.042,436.359 435.604,433.355 438.252,434.883C441.419,436.711 437.707,440.212 434.089,451.362C433.483,453.232 433.116,453.031 432.834,453.5C432.678,453.758 432.719,454.105 432.564,454.363C430.039,453.345 430.069,453.335 427.582,452.252Z" style="fill:rgb(255,21,55);"/>
            <path d="M596.42,452.267C594.359,453.153 594.37,453.13 592.317,454.071C592.032,453.84 591.661,453.731 591.376,453.5C589.949,452.341 589.555,450.451 589.215,449.631C587.315,445.058 587.433,445.035 585.477,440.509C584.595,438.466 583.715,436.577 585.282,435.213C587.933,432.906 590.123,437.193 590.326,437.59C590.925,438.763 594.035,446.753 594.347,447.554C594.762,448.618 594.861,448.559 595.221,449.633C595.315,449.911 595.284,450.221 595.375,450.5C595.543,451.017 595.784,451.424 595.828,451.5C596.082,451.929 596.171,451.846 596.42,452.267Z" style="fill:rgb(255,21,55);"/>
            <path d="M381.26,525.262C380.685,525.81 379.848,526.802 378.495,526.513C377.774,526.36 377.882,526.175 375.253,523.734C373.231,521.857 374.854,520.935 377.333,518.343C380.19,515.354 380.91,514.119 383.314,516.67C383.465,516.831 385.005,518.465 385.132,518.744C385.241,518.984 385.525,520.35 385.006,521.097C384.813,521.375 384.707,521.274 382.189,524.248C382.118,524.332 382.12,524.323 381.26,525.262Z" style="fill:rgb(245,235,209);"/>
            <path d="M626.482,524.518C624.957,523.004 624.823,522.64 624.749,522.436C624.313,521.249 625.006,521.346 628.95,516.89C631.252,514.289 632.126,514.949 634.37,517.604C636.339,519.934 635.784,520.454 633.739,522.705C631.274,525.42 630.341,526.951 628.543,526.413C628.328,526.348 628.118,526.286 626.482,524.518Z" style="fill:rgb(244,231,202);"/>
            <path d="M647.222,525.195C643.901,528.236 643.43,525.905 640.405,522.581C638.419,520.397 638.112,519.764 640.391,517.403C641.995,515.742 642.812,514.149 645.255,516.73C649.306,521.009 649.332,521.023 649.462,521.516C649.755,522.631 649.401,523.125 647.222,525.195Z" style="fill:rgb(246,236,213);"/>
            <path d="M376.323,531.32C376.839,530.816 376.802,530.811 377.35,530.318C379.036,528.802 380.109,529.283 384.253,533.727C386.305,535.927 385.761,536.729 383.258,539.257C380.926,541.613 380.367,540.318 378.029,537.973C374.714,534.649 373.814,533.85 375.301,532.326C375.804,531.811 375.8,531.834 376.323,531.32Z" style="fill:rgb(245,235,207);"/>
            <path d="M641.288,532.282C643.522,530.028 644.511,528.217 647.322,530.701C649.775,532.869 649.905,533.784 648.438,535.446C643.933,540.553 643.142,540.445 642.533,540.361C642.257,540.323 641.839,540.266 639.81,538.198C637.352,535.692 638.958,534.622 641.288,532.282Z" style="fill:rgb(244,232,205);"/>
            <path d="M390.29,522.697C389.562,521.92 387.401,520.337 389.177,518.256C392.198,514.716 392.846,515.262 393.499,515.502C393.962,515.672 393.893,515.769 394.999,517.069C396.586,518.933 396.712,518.799 398.329,520.653C400.171,522.764 399.106,523.145 397.125,525.117C394.269,527.96 393.633,526.132 390.29,522.697Z" style="fill:rgb(244,233,205);"/>
            <path d="M395.413,538.408C395.254,538.563 393.558,540.224 393.384,540.301C391.87,540.973 390.838,539.362 390.237,538.774C387.796,536.386 387.777,535.629 390.164,533.177C392.54,530.736 393.561,529.131 395.447,529.638C396.149,529.826 397.289,531.058 398.592,532.42C400.238,534.139 398.345,535.377 396.895,536.872C396.633,537.142 396.682,537.158 396.42,537.422C396.341,537.502 396.346,537.495 395.413,538.408Z" style="fill:rgb(245,237,214);"/>
            <path d="M632.434,531.569C635.819,534.619 635.895,535.351 635.536,536.518C635.485,536.686 632.971,540.334 631.494,540.358C630.592,540.373 629.47,539.409 626.144,535.818C623.842,533.334 624.998,532.77 627.443,530.436C629.28,528.682 630.326,529.55 632.434,531.569Z" style="fill:rgb(246,236,211);"/>
            <path d="M349.5,571.999L335.5,571.999C335.558,571.482 335.355,570.958 335.413,570.441C335.434,570.258 345.459,550.891 346.75,548.654C347.716,546.98 347.111,546.681 348.35,545.205C348.706,544.78 348.761,544.667 349.259,544.927C350.202,545.419 349.525,545.806 349.507,563.5C349.504,566.858 349.373,567.868 349.5,571.999Z" style="fill:rgb(255,21,55);"/>
            <g transform="matrix(1,0,0,1,0.041146,0.180289)">
                <path d="M596.737,345.597C596.897,345.615 597.371,345.215 598.376,345.778C598.623,345.917 598.529,346.032 601.18,347.94C604.363,350.229 605.225,352.077 605.436,352.531C607.798,357.594 609.539,364.422 609.552,364.492C609.616,364.828 609.562,365.179 609.627,365.514C608.668,368.927 608.383,368.866 603.1,374.078C594.953,382.114 574.462,400.379 572.869,401.881C571.882,402.813 571.876,402.803 560.198,413.16C559.517,413.764 559.466,413.689 551.6,420.615C547.024,424.644 547.05,424.651 542.229,428.363C542.075,428.481 541.77,428.453 541.718,428.639C541.685,428.76 542.291,430.141 542.551,430.106C543.194,430.019 543.099,429.651 550.424,428.15C553.952,427.428 560.628,425.774 561.513,425.555C562.398,425.335 562.359,425.244 572.428,422.263C581.927,419.45 587.86,414.953 595.801,420.025C599.179,422.183 598.465,422.858 600.738,426.355C601.865,428.09 605.374,436.158 606.276,437.625C606.729,438.362 608.048,440.353 605.528,441.553C602.723,442.89 602.876,441.301 601.244,438.648C599.228,435.371 599.848,435.072 597.758,431.364C596.272,428.725 594.638,420.383 584.385,424.162C580.516,425.587 580.503,425.495 576.63,426.871C575.436,427.295 565.377,430.868 561.523,431.614C554.083,433.054 552.418,434.076 547.541,434.747C540.935,435.656 535.799,437.48 522.524,437.93C510.805,438.327 509.805,438.62 491.544,437.112C490.091,436.992 489.561,436.948 473.551,434.213C470.136,433.629 468.787,432.922 463.442,431.779C457.835,430.581 457.974,430.162 452.463,428.625C448.568,427.539 448.709,427.15 444.398,425.852C438.712,424.139 434.485,421.107 430.096,425.045C428.213,426.735 426.542,430.316 424.185,435.359C422.791,438.343 422.923,438.398 421.25,441.243C420.468,441.61 420.491,442.483 418.456,441.592C415.261,440.191 417.876,437.501 419.571,433.532C420.441,431.494 424.265,423.156 426.787,420.818C428.339,419.38 431.034,418.446 431.433,418.308C435.299,416.968 439.813,418.262 440.511,418.463C448.578,420.775 448.394,421.301 456.478,423.575C461.036,424.857 460.933,425.163 465.565,426.197C472.957,427.846 478.384,429.317 479.491,429.617C479.645,429.659 481.301,430.108 481.419,430.085C481.433,430.082 482.152,428.74 482.151,428.718C482.145,428.519 481.779,428.562 481.623,428.439C481.424,428.282 481.301,428.04 481.099,427.887C480.209,427.209 477.198,425.359 472.167,420.858C471.786,420.518 471.7,420.632 467.28,416.752C460.639,410.923 458.752,409.956 447.697,400.275C426.348,381.58 424.345,378.901 421.491,376.51C421.012,376.109 421.295,375.838 415.928,371.042C414.517,369.781 412.356,367.311 412.132,366.99C411.958,365.419 412.21,365.635 413.461,362.485C416.257,355.442 415.118,351.813 421.534,347.55C421.792,347.379 422.059,347.219 422.3,347.024C422.415,346.931 422.464,346.762 422.594,346.691C423.672,346.105 424.257,346.556 424.396,346.545C424.677,351.108 424.704,351.105 424.703,351.502C424.7,352.914 424.232,352.831 422.724,355.617C418.289,363.81 420.76,364.732 422.089,365.947C423.144,366.91 423.12,366.913 427.17,370.839C429.627,373.219 478.14,416.386 478.14,416.386C478.14,416.386 484.882,422.746 487.166,425.145C488.49,426.537 489.943,430.48 491.841,430.783C497.529,431.692 519.627,431.601 522.498,431.63C526.278,431.669 526.475,431.749 529.311,429.269C546.386,414.338 546.509,414.496 549.597,411.607C552.368,409.015 556.496,405.629 558.144,404.124C566.251,396.723 567.017,396.574 583.465,381.461C587.601,377.66 587.698,377.783 591.738,373.883C593.505,372.24 595.371,370.745 598.627,367.63C602.449,363.974 603.314,363.484 601.212,358.614C599.723,355.164 598.642,354.003 598.33,353.668C596.018,351.186 596.654,350.099 596.737,345.597Z" style="fill:rgb(244,233,207);"/>
            </g>
        </g>
    </g>
</svg>
