<?xml version="1.0" encoding="UTF-8" standalone="no"?>
<!DOCTYPE svg PUBLIC "-//W3C//DTD SVG 1.1//EN" "http://www.w3.org/Graphics/SVG/1.1/DTD/svg11.dtd">
<svg width="100%" height="100%" viewBox="0 0 762 608" version="1.1" xmlns="http://www.w3.org/2000/svg" xmlns:xlink="http://www.w3.org/1999/xlink" xml:space="preserve" xmlns:serif="http://www.serif.com/" style="fill-rule:evenodd;clip-rule:evenodd;stroke-linejoin:round;stroke-miterlimit:2;">
    <g transform="matrix(1,0,0,1,-6446.395488,-3130.817024)">
        <g transform="matrix(1.290907,0,0,1,524.664825,5432.966582)">
            <g id="Mascara" transform="matrix(0.774649,0,0,1,-1706.756241,-4820.623247)">
                <g transform="matrix(2.542969,0,0,2.542969,7215.994325,1774.898606)">
                    <g transform="matrix(0.393241,0,0,0.419743,-3675.380218,-921.9445)">
                        <path d="M10978.846,2918.678C10978.846,2918.678 10989.667,2900.118 10995.344,2896.406C11000.242,2893.203 11010.451,2891.092 11012.903,2896.406C11015.404,2901.827 11010.327,2913.092 11010.35,2928.93C11011.009,2938.637 11012.056,2938.464 11016.843,2967.314C11016.813,2977.415 11016.364,2977.348 11014.504,2987.256C11014.427,2987.666 11009.237,3005.263 11001.342,3040.548C10998.424,3053.59 10983.922,3111.701 10980.692,3126.944C10977.861,3140.302 10977.033,3140.066 10972.484,3162.954C10972.171,3164.525 10962.876,3208.886 10959.902,3219.03C10955.59,3233.734 10951.991,3239.774 10951.004,3241.43C10950.44,3242.377 10908.57,3286.113 10902.605,3292.071C10898.236,3296.435 10873.525,3322.391 10870.425,3325.944C10858.652,3339.435 10848.865,3348.657 10839.645,3358.786C10825.704,3374.102 10825.696,3374.023 10811.866,3389.465C10791.901,3411.755 10788.62,3412.956 10784.766,3418.074C10776.28,3429.347 10775.191,3428.674 10753.256,3435.733C10751.225,3436.387 10662.608,3459.864 10643.576,3461.655C10632.995,3462.651 10623.149,3458.792 10577.34,3448.472C10558.353,3444.195 10558.65,3443.106 10539.61,3438.993C10498.702,3430.158 10498.697,3427.51 10491.409,3419.338C10487.796,3415.286 10488.029,3415.152 10484.465,3411.122C10481.06,3407.273 10446.845,3371.835 10444.639,3369.363C10442.231,3366.665 10442.087,3366.84 10439.718,3364.103C10434.457,3358.026 10408.857,3335.603 10393.95,3318.327L10336.963,3255.99C10336.963,3255.99 10322.961,3245.417 10317.91,3228.995C10311.598,3208.473 10309.505,3198.356 10308.946,3195.651C10306.828,3185.411 10306.451,3181.495 10302.349,3168.048C10301.37,3164.837 10301.675,3164.793 10292.127,3127.337C10290.179,3119.697 10275.617,3060.907 10275.617,3060.907L10275.204,3061.005L10275.199,3060.988C10265.865,3030.342 10261.108,3011.056 10261.108,3011.056C10261.108,3011.056 10260.042,2991.601 10257.627,2984.991C10257.485,2984.074 10257.864,2983.126 10257.722,2982.209C10256.489,2974.27 10254.116,2974.278 10257.202,2954.292C10259.451,2939.726 10253.431,2930.035 10256.05,2924.323C10258.468,2919.049 10266.526,2915.554 10272.914,2920.019C10279.106,2924.347 10278.351,2925.03 10283.702,2931.269C10289.627,2937.805 10288.872,2938.75 10304.504,2957.125C10314.649,2969.052 10317.098,2970.185 10324.119,2976.718C10334.008,2985.92 10358.01,3004.214 10380.085,3010.071C10420.792,3020.871 10440.611,3016.424 10458.895,3014.507C10480.383,3012.253 10491.1,3009.226 10511.773,2999.502C10544.515,2984.101 10563.872,2956.582 10565.191,2954.966C10566.019,2955.842 10578.872,2933.721 10581.467,2929.294C10590.943,2913.126 10591.373,2912.889 10596.619,2907.945C10601.441,2903.402 10651.755,2930.745 10662.229,2908.826C10662.434,2908.396 10693.267,2924.963 10704.673,2939.21C10711.562,2947.815 10712.86,2958.437 10725.831,2964.951C10730.011,2967.051 10729.79,2967.322 10736.121,2971.896C10745.027,2977.868 10744.517,2978.567 10754.189,2983.325C10767.429,2989.838 10767.22,2990.318 10781.514,2994.496C10784.505,2995.37 10803.388,3000.89 10819.95,3001.519C10832.067,3001.979 10864.139,3003.999 10896.573,2989.087C10897.706,2988.566 10908.391,2983.145 10921.506,2973.99C10932.295,2966.459 10943.213,2957.689 10960.588,2934.23C10964.896,2928.414 10971.995,2910.166 10978.846,2918.678Z" style="fill:rgb(4,2,1);fill-opacity:1;"/>
                    </g>
                    <path d="M470.607,498.778C463.97,500.995 459.333,503.018 458.627,503.619C458.315,503.886 458.132,504.284 457.819,504.551C457.331,504.194 456.989,503.661 456.5,503.304C456.416,503.243 456.324,503.43 455.346,502.721C452.542,500.689 447.191,494.522 441.369,488.63C433.615,480.784 433.047,479.432 432.632,478.442C430.091,472.392 430.022,469.102 427.253,460.582C427.116,460.159 423.144,446.14 422.399,442.52C421.026,435.855 420.859,435.914 418.951,429.374C418.723,428.593 418.812,428.585 416.445,419.515C415.255,414.956 417.108,413.574 426.373,397.426C430.624,390.015 432.757,387.758 441.128,373.29C441.485,372.672 444.111,368.134 445.78,365.682C447.889,362.585 450.3,357.291 451.622,356.931C453.412,356.442 453.962,359.318 454.016,359.599C455.314,366.378 454.987,371.628 459.438,373.637C462.96,375.227 469.496,377.232 478.715,382.066C485.174,385.454 486.855,385.848 490.352,387.793C491.57,388.47 494.914,390.015 496.326,390.826C497.102,391.271 504.006,394.657 506.561,395.005C511.418,395.667 516.076,391.844 530.649,384.817C530.731,384.778 541.744,379.074 554.545,373.599C558.149,372.058 558.264,371.274 560.549,360.51C560.703,359.782 560.889,355.699 563.397,356.717C564.48,357.157 567.36,362.578 567.814,363.322C568.201,363.955 570.602,368.525 571.749,370.355C572.113,370.936 572.063,370.95 576.217,377.668C576.405,377.972 578.069,380.663 578.545,381.47C578.748,381.813 579.973,383.888 581.148,385.715C581.399,386.107 582.815,388.307 584.179,390.682C586.163,394.136 594.968,408.673 595.914,410.233C598.105,413.851 598.868,414.26 594.671,431.542C593.445,436.592 593.115,436.486 590.224,448.426C589.794,450.201 588.689,453.084 587.211,459.427C585.669,466.045 585.281,465.929 583.645,472.537C582.322,477.881 582.391,478.471 574.656,486.647C571.824,489.64 568.443,493.292 567.905,493.873C559.987,502.424 559.254,501.789 557.009,505.346C556.943,505.449 556.889,505.559 556.824,505.663C556.706,505.261 556.96,504.808 556.842,504.407C556.345,502.715 543.803,498.578 542.624,498.189C530.218,493.175 514.087,488.039 512.703,487.152C509.408,485.039 510.399,482.198 510.24,466.502C510.22,464.503 510.215,464.527 510.143,462.516C510.096,461.179 510.264,461.132 509.506,459.492C509.774,459.494 509.909,459.934 510.178,459.936C511.579,459.947 511.423,458.783 515.516,459.002C525.848,459.553 530.115,457.596 536.724,462.27C541.037,462.617 541.115,463.471 547.64,466.159C554.597,469.026 558.997,472.41 561.574,471.971C566.174,471.188 581.397,454.706 584.672,451.692C586.207,450.28 586.077,450.177 587.026,448.306C587.866,446.65 587.151,445.703 585.557,446.638C584.055,447.52 578.848,452.874 570.389,459.346C561.976,465.782 561.149,466.006 558.368,464.797C557.809,464.554 557.847,464.491 551.582,461.332C549.975,460.521 548.585,459.625 544.441,457.615C543.894,457.349 543.95,457.257 537.672,454.163C534.054,452.381 532.278,450.318 527.481,449.966C518.971,449.343 500.435,449.921 493.485,450.039C488.181,450.13 484.203,449.354 469.634,457.755C469.141,458.04 457.415,464.263 456.546,464.61C453.704,465.745 452.241,465.423 447.394,461.642C446.397,460.865 446.328,460.96 434.859,452.025C434.742,451.933 432.737,449.915 431.614,450.653C428.546,452.666 438.149,460.055 443.242,464.784C446.863,468.148 450.644,471.099 451.474,471.543C454.807,473.326 456.111,471.853 460.642,469.817C461.949,469.229 471.197,464.869 473.65,463.864C474.087,463.685 475.622,463.055 479.371,462.384C479.643,462.145 479.525,462.014 480.452,461.436C484.94,458.637 485.913,459.629 498.516,458.926C503.613,458.642 503.508,460.906 503.965,461.575C503.613,481.164 505.069,485.756 501.549,487.588C498.806,489.016 493.038,490.613 483.411,494.255C482.395,494.639 482.392,494.608 470.607,498.778ZM383.091,408.601C382.183,405.192 377.87,386.781 377.802,386.432C376.545,379.999 373.644,371.807 372.912,368.421C372.213,365.191 374.335,364.961 375.541,366.457C377.999,369.506 378.018,369.473 380.577,372.435C384.304,376.748 384.347,376.693 387.999,381.07C390.412,383.963 396.816,389.98 399.029,395.689C399.144,395.986 402.219,405.49 402.243,405.578C404.16,412.56 406.072,417.925 407.118,421.61C408.046,424.881 411.653,436.011 412.602,438.46C413.914,441.845 413.678,441.916 418.136,455.62C420.031,461.445 423.412,466.071 420.471,466.312C418.824,466.448 418.519,464.634 410.169,455.812C402.877,448.109 402.859,448.152 395.601,440.406C388.993,433.352 389.27,433.014 387.501,426.5C384.814,416.601 385.07,416.55 383.091,408.601ZM636.883,380.586C634.052,393.035 633.801,392.958 631.291,405.456C631.186,405.982 627.596,421.972 626.1,427.387C624.199,434.273 623.857,434.274 615.713,442.705C595.684,463.436 596.687,464.324 595.448,465.446C595.309,465.572 594.004,466.755 593.153,465.923C591.959,464.754 593.037,464.442 595.701,455.565C595.992,454.595 596.07,454.625 599.568,443.522C601.525,437.308 601.826,437.42 603.939,430.636C606.148,423.541 605.878,423.469 608.383,416.46C610.139,411.545 609.877,411.475 611.759,406.603C614.196,400.295 615.139,393.286 618.851,388.786C622.242,384.675 627.664,378.348 628.437,377.446C638.433,365.782 638.951,364.63 640.18,365.82C641.405,367.005 639.495,369.6 637.854,376.582C637.513,378.03 636.962,380.266 636.883,380.586Z" style="fill:rgb(255,21,55);"/>
                    <path d="M473.536,402.055C487.133,402.469 541.056,402.209 541.434,402.137C547.034,401.072 559.342,390.751 562.433,390.185C565.954,389.54 568.441,394.064 571.744,398.32C572.479,399.268 572.393,399.325 580.705,410.35C586.214,417.657 586.197,418.108 585.148,422.412C583.579,428.853 582.847,430.191 580.49,434.494C579.122,436.991 569.104,448.856 566.516,450.522C559.926,454.763 556.693,450.548 544.579,445.32C532.552,440.13 526.391,441.34 514.491,440.934C509.891,440.777 486.423,440.902 483.489,441.425C478.058,442.393 474.214,443.906 465.34,448.15C454.608,453.283 453.222,454.863 446.388,448.624C439.703,442.522 436.555,439.626 431.601,429.447C429.725,425.591 429.485,425.689 428.441,421.515C427.372,417.239 428.749,416.574 435.408,407.432C446.954,391.58 447.988,390.156 450.486,390.075C452.02,390.026 452.585,390.228 463.566,397.403C469.074,401.001 469.93,401.45 473.536,402.055ZM503.541,293.801L510.567,293.801C510.281,295.529 510.323,299.723 510.337,310.5C510.413,369.664 510.696,369.846 509.646,371.623C508.869,372.939 504.228,373.789 504.068,367.519C503.777,356.165 503.955,295.531 503.739,294.451C503.69,294.204 503.623,293.988 503.541,293.801ZM509.506,459.492C510.264,461.132 510.096,461.179 510.143,462.516C510.215,464.527 510.22,464.503 510.24,466.502C510.399,482.198 509.408,485.039 512.703,487.152C514.087,488.039 530.218,493.175 542.624,498.189C543.803,498.578 556.345,502.715 556.842,504.407C556.96,504.808 556.706,505.261 556.824,505.663C556.462,505.929 556.472,507.776 549.53,505.407C545.492,504.029 545.527,503.991 541.416,502.785C534.799,500.844 534.906,500.536 529.362,499C524.316,497.601 524.405,497.389 519.388,495.86C509.608,492.879 509.606,492.693 506.529,492.857C503.986,492.992 494.173,496.74 486.594,498.841C480.979,500.397 463.896,505.721 461.453,506.265C457.208,507.21 457.848,504.709 457.819,504.551C458.132,504.284 458.315,503.886 458.627,503.619C459.333,503.018 463.97,500.995 470.607,498.778C482.392,494.608 482.395,494.639 483.411,494.255C493.038,490.613 498.806,489.016 501.549,487.588C505.069,485.756 503.613,481.164 503.965,461.575C504.41,460.112 503.905,459.648 505.35,459.122C506.338,458.762 508.103,458.896 508.376,458.979C508.771,459.099 509.11,459.372 509.506,459.492ZM642.817,307.53C641.422,311.115 641.089,310.931 639.013,314.18C636.094,318.748 628.982,326.93 625.133,330.069C619.18,334.925 613.407,339.275 605.615,340.99C604.66,341.2 601.784,341.833 593.524,342.722C583.158,343.836 576.969,342.526 575.562,342.229C574.132,341.926 569.738,341.663 557.496,336.511C552.726,334.504 547.601,332.172 545.483,328.51C545.385,328.342 544.541,326.881 545.003,326.125C545.403,325.468 545.422,325.46 545.484,325.434C545.982,325.223 546.002,325.701 546.505,325.488C550.007,327.995 549.806,328.288 553.61,330.285C558.816,333.019 558.734,333.22 564.355,334.974C565.531,335.341 572.957,337.658 579.469,337.922C584.234,338.115 596.846,338.963 609.601,332.704C610.046,332.485 614.248,330.209 619.406,326.367C623.648,323.206 627.942,319.524 634.774,309.678C636.468,307.236 639.26,299.577 641.954,303.15C642.409,303.753 642.352,303.764 642.552,304.485C642.95,305.921 642.777,305.933 642.817,307.53ZM364.816,329.928C367.615,331.469 367.261,331.892 369.545,334.46C372.8,338.12 378.813,344.183 381.159,346.803C381.802,347.522 381.811,347.504 389.344,355.642C389.647,355.969 400.154,366.807 401.435,367.593C403.869,369.087 404.586,368.697 414.448,364.391C418.82,362.483 419.562,362.425 422.642,360.785C423.372,360.396 428.844,358.056 430.356,357.219C431.538,356.566 438.298,353.525 442.684,350.818C442.984,350.633 445.579,349.031 446.554,348.718C447.889,348.289 447.858,348.76 449.088,349.411C448.645,349.973 448.976,350.301 446.688,351.781C442.827,354.28 442.857,354.318 442.511,354.518C429.645,361.94 429.719,362.034 428.595,362.667C425.367,364.486 416.481,370.057 408.75,373.996C403.739,376.548 402.913,377.745 399.043,373.968C386.641,361.865 379.8,353.634 379.1,352.853C364.445,336.503 364.387,334.992 364.079,333.589C363.487,330.897 364.71,330.123 364.816,329.928Z" style="fill:rgb(244,237,211);"/>
                    <g transform="matrix(1,0,0,1,-0.357975,-0.593684)">
                        <path d="M516.5,434.088C486.821,434.209 479.617,433.935 470.632,437.814C468.471,438.747 463.965,440.994 463.39,441.281C455.516,445.207 454.159,446.915 449.532,442.466C441.461,434.706 440.182,431.779 437.823,427.334C434.836,421.706 435.576,419.269 435.785,418.581C436.165,417.333 436.485,416.28 445.112,405.205C450.331,398.504 451.541,397.575 455.684,400.188C456.38,400.627 461.482,403.844 464.303,405.8C470.016,409.761 471.19,409.317 482.5,409.331C542.724,409.403 542.818,409.451 545.456,408.398C547.568,407.554 549.444,405.962 554.578,402.619C559.17,399.628 561.837,396.379 566.061,401.844C574.065,412.203 580.307,418.04 578.728,422.578C577.375,426.465 574.442,431.12 573.999,431.823C571.343,436.038 571.364,436.069 565.82,441.809C561.368,446.417 560.272,445.52 553.268,441.953C536.255,433.29 532.695,434.176 516.5,434.088ZM519.637,327.979C521.981,323.531 522.302,322.69 523.55,320.889C525.004,318.792 528.707,311.787 531.514,315.359C534.732,319.456 531.378,321.922 529.489,323.698C523.065,329.737 522.151,332.234 520.856,334.092C519.688,335.769 517.724,335.246 517.808,333.093C517.855,331.886 519.457,328.374 519.637,327.979ZM479.646,318.975C481.69,315.969 481.535,315.887 483.57,312.86C485.208,313.623 486.121,312.771 491.352,320.783C494.132,325.042 499.2,335.196 494.773,334.406C493.805,334.233 492.123,330.802 488.806,327.141C485.159,323.117 482.171,321.861 480.604,320.094C480.279,319.726 479.971,319.343 479.646,318.975Z" style="fill:rgb(2,3,2);"/>
                    </g>
                    <path d="M368.595,308.435C370.925,311.178 370.628,311.575 376.775,319.288C380.765,324.294 381.728,324.769 384.488,327.512C388.377,331.374 397.816,339.053 406.497,341.511C422.504,346.045 430.298,344.178 437.488,343.373C445.938,342.427 450.152,341.157 458.282,337.075C471.157,330.611 478.769,319.06 479.288,318.382C479.613,318.749 479.921,319.133 480.246,319.5C481.813,321.268 484.801,322.523 488.448,326.547C491.765,330.208 493.447,333.639 494.415,333.812C498.842,334.603 493.774,324.448 490.994,320.19C485.763,312.177 484.85,313.03 483.212,312.267C483.406,311.892 484.668,309.464 485.688,307.606C489.415,300.82 489.584,300.72 491.647,298.645C493.543,296.738 496.432,294.905 498.51,293.801C499.411,293.324 500.16,292.983 500.609,292.832C500.85,292.751 502.794,292.1 503.541,293.801C503.623,293.988 503.69,294.204 503.739,294.451C503.955,295.531 503.777,356.165 504.068,367.519C504.228,373.789 508.869,372.939 509.646,371.623C510.696,369.846 510.413,369.664 510.337,310.5C510.323,299.723 510.281,295.529 510.567,293.801C510.736,292.783 511.019,292.622 511.488,292.475C512.723,292.087 520.761,293.231 523.615,297.647C527.674,303.927 529.653,305.788 534.138,311.768C536.847,315.38 537.357,319.838 542.458,322.573C544.102,323.454 544.015,323.568 546.505,325.488C546.002,325.701 545.982,325.223 545.484,325.434C545.422,325.46 545.403,325.468 545.003,326.125C544.541,326.881 545.385,328.342 545.483,328.51C547.601,332.172 552.726,334.504 557.496,336.511C569.738,341.663 574.132,341.926 575.562,342.229C576.969,342.526 583.158,343.836 593.524,342.722C601.784,341.833 604.66,341.2 605.615,340.99C613.407,339.275 619.18,334.925 625.133,330.069C628.982,326.93 636.094,318.748 639.013,314.18C641.089,310.931 641.422,311.115 642.817,307.53L643.5,307.528C643.897,307.968 644.593,308.059 644.99,308.5C645.365,308.916 646.311,312.542 647.022,319.546C647.58,325.043 647.807,325.03 647.481,330.548C647.652,330.712 647.968,330.65 648.139,330.813C648.822,331.462 648.884,334.717 645.667,338.632C645.088,339.336 641.815,343.32 638.31,347.336C633.206,353.184 633.207,353.179 632.749,353.711C626.485,360.989 626.572,361.05 620.113,368.145C618.459,369.962 618.377,369.856 616.7,371.681C613.994,374.624 612.74,377.486 602.758,372.02C592.142,366.206 592.137,366.25 581.724,360.112C568.526,352.333 568.628,352.198 567.453,351.574C565.033,350.289 565.45,349.783 562.151,346.902C561.981,346.754 553.679,340.497 553.563,340.415C551.1,338.665 546.316,334.961 546.251,334.926C538.897,330.964 536.636,332.579 531.89,342.676C530.453,345.731 526.845,353.172 527.18,354.632C527.324,355.264 528.481,355.776 529.317,355.205C530.872,354.143 538.429,343.208 541.659,341.937C544.212,340.933 547.526,344.196 548.529,345.474C550.648,348.175 553.313,350.71 554.007,352.661C554.936,355.267 552.621,365.019 552.456,365.486C552.368,365.737 551.673,368.849 548.549,369.677C544.358,370.787 545.69,366.046 544.459,364.533C542.254,361.823 536.706,365.571 536.581,365.642C521.233,374.348 514.811,382.217 506.505,381.446C505.478,381.351 501.866,381.016 494.773,376.106C491.799,374.047 491.733,374.174 488.708,372.189C474.417,362.809 471.33,361.565 469.718,365.572C469.552,365.985 469.472,370.892 465.598,369.245C464.039,368.582 462.76,367.63 461.836,364.408C461.256,362.386 459.996,355.725 459.982,355.467C459.695,350.15 467.649,342.029 470.501,342.021C471.107,342.02 472.611,342.016 476.864,346.123C483.72,352.745 483.531,355.6 485.494,355.465C487.86,355.302 485.033,349.648 484.92,349.343C483.423,345.313 483.362,345.355 481.607,341.448C480.031,337.941 478.463,336.251 478.105,335.865C477.518,335.232 474.396,331.869 467.322,336.19C463.554,338.491 463.061,337.756 461.534,339.536C460.999,340.16 459.51,341.124 458.803,341.807C458.094,342.493 454.916,345.564 449.088,349.411C447.858,348.76 447.889,348.289 446.554,348.718C445.579,349.031 442.984,350.633 442.684,350.818C438.298,353.525 431.538,356.566 430.356,357.219C428.844,358.056 423.372,360.396 422.642,360.785C419.562,362.425 418.82,362.483 414.448,364.391C404.586,368.697 403.869,369.087 401.435,367.593C400.154,366.807 389.647,355.969 389.344,355.642C381.811,347.504 381.802,347.522 381.159,346.803C378.813,344.183 372.8,338.12 369.545,334.46C367.261,331.892 367.615,331.469 364.816,329.928C364.916,329.583 364.827,329.202 364.927,328.857C364.992,328.635 365.273,328.499 365.297,328.269C365.329,327.97 365.079,327.693 365.083,327.393C365.095,326.356 365.605,326.421 366.316,314.489C366.513,311.184 367.334,310.95 367.565,310.518C367.821,310.036 367.68,309.999 367.927,309.5C368.209,308.931 368.309,309.013 368.595,308.435ZM519.279,327.385C519.099,327.78 517.497,331.292 517.45,332.5C517.366,334.652 519.33,335.175 520.498,333.498C521.793,331.64 522.707,329.143 529.131,323.104C531.02,321.328 534.374,318.863 531.156,314.766C528.349,311.194 524.646,318.198 523.192,320.296C521.944,322.097 521.623,322.937 519.279,327.385Z" style="fill:rgb(255,21,55);"/>
                </g>
            </g>
        </g>
    </g>
</svg>
