<?xml version="1.0" encoding="UTF-8" standalone="no"?>
<!DOCTYPE svg PUBLIC "-//W3C//DTD SVG 1.1//EN" "http://www.w3.org/Graphics/SVG/1.1/DTD/svg11.dtd">
<svg width="100%" height="100%" viewBox="0 0 748 281" version="1.1" xmlns="http://www.w3.org/2000/svg" xmlns:xlink="http://www.w3.org/1999/xlink" xml:space="preserve" xmlns:serif="http://www.serif.com/" style="fill-rule:evenodd;clip-rule:evenodd;stroke-linejoin:round;stroke-miterlimit:2;">
    <g transform="matrix(1,0,0,1,-107.662384,-1000)">
        <g transform="matrix(1.346855,0,0,1,0,2567.10941)">
            <g transform="matrix(1.030926,0,0,1.377729,20.783637,-1610.015293)">
                <g id="Oculos">
                    <path d="M581.506,114.221C580.334,117.532 580.519,126.362 580.502,126.5C574.432,174.662 562.444,176.736 557.428,190.331C555.675,191.84 518.131,248.35 439.458,228.675C431.991,226.807 415.003,222.394 395.537,204.427C377.507,184.565 371.095,180.929 360.145,143.596C353.987,122.603 357.852,100.678 347.264,93.996C336.677,87.314 296.343,91.018 296.621,103.504C296.846,113.658 304.654,182.061 239.278,222.097C217.89,235.195 143.533,251.697 99.801,196.262C61.282,147.434 81.69,112.219 60.555,107.219C56.003,106.142 56.662,74.213 60.505,74.056C103.118,72.318 115.858,17.92 219.541,38.333C232.148,40.815 247.068,46.913 249.388,47.861C268.276,56.298 268.517,56.322 281.921,72.119C284.489,75.145 286.612,75.786 287.104,75.935C299.909,80.564 302.512,70.666 338.463,73.979C342.551,74.356 354.094,77.027 354.094,77.027C354.094,77.027 364.659,78.237 372.905,67.815C390.696,45.327 405.551,45.206 417.826,40.347C431.585,34.902 469.069,29 492.811,31.913C516.554,34.827 541.179,40.185 559.199,53.494C564.463,57.381 568.437,61.426 571.44,65.456C583.092,70.862 593.139,68.822 593.139,68.822C593.139,68.822 598.39,106.549 593.139,107.601C588.13,108.605 582.517,111.364 581.506,114.221ZM191.517,218.939C192.518,218.848 193.528,218.875 194.53,218.784C257.012,213.071 282.008,157.515 279.786,115.492C276.137,46.439 191.9,45.874 156.457,51.231C61.927,65.519 87.147,154.623 109.918,184.186C141.249,224.861 189.325,218.949 191.517,218.939ZM463.501,46.928C375.266,51.385 374.283,106.482 374.122,115.493C372.038,232.241 533.836,255.984 561.148,144.421C587.152,38.198 467.664,47.023 463.501,46.928Z" style="fill:rgb(3,2,1);"/>
                </g>
            </g>
        </g>
    </g>
</svg>
