<?xml version="1.0" encoding="UTF-8" standalone="no"?>
<!DOCTYPE svg PUBLIC "-//W3C//DTD SVG 1.1//EN" "http://www.w3.org/Graphics/SVG/1.1/DTD/svg11.dtd">
<svg width="100%" height="100%" viewBox="0 0 556 31" version="1.1" xmlns="http://www.w3.org/2000/svg" xmlns:xlink="http://www.w3.org/1999/xlink" xml:space="preserve" xmlns:serif="http://www.serif.com/" style="fill-rule:evenodd;clip-rule:evenodd;stroke-linejoin:round;stroke-miterlimit:2;">
    <g transform="matrix(1,0,0,1,-169.24019,-857.053904)">
        <g transform="matrix(1.346855,0,0,1,0,2567.10941)">
            <g id="OlhosFechados" transform="matrix(0.782898,0,0,1.05445,-3210.334133,-6824.705885)">
                <g transform="matrix(2.49104,0,0,2.49104,4101.260578,4530.698073)">
                    <path d="M133.355,129.818C134.082,130.543 134.408,130.429 134.334,131.459C134.267,132.379 132.822,132.768 132.655,132.813C131.094,133.233 131.067,133.051 129.498,133.491C129.325,133.54 129.345,133.556 127.434,134.364C124.989,135.74 124.841,135.358 121.535,136.615C117.26,138.241 115.353,137.851 106.454,139.188C105.815,139.284 88.196,140.699 81.461,139.748C74.29,138.736 64.5,135.975 64.215,134.617C64.187,134.479 63.945,133.329 64.718,132.93C65.421,132.567 76.036,132.438 77.494,132.559C81.032,132.852 81.038,132.606 84.562,133.075C86.564,133.341 98.522,134.114 103.494,133.446C118.259,131.463 126.231,127.213 130.47,128.709C130.704,128.791 130.684,128.791 133.355,129.818Z" style="fill:rgb(13,10,7);"/>
                </g>
                <g transform="matrix(2.49104,0,0,2.49104,4101.260578,4530.698073)">
                    <path d="M270.827,130.889C272.127,131.351 272.106,131.347 273.448,131.624C273.68,131.672 275.814,132.113 275.73,133.522C275.689,134.214 275.456,134.095 274.73,134.744C274.585,134.874 274.535,135.085 274.399,135.224C274.154,135.473 273.902,135.728 273.597,135.899C273.254,136.09 272.829,136.1 272.487,136.291C268.281,136.93 267.8,137.65 263.467,138.284C259.009,138.937 259.01,138.864 254.499,138.981C246.383,139.189 246.396,139.248 235.498,138.545C222.709,137.72 222.789,137.088 210.551,133.323C210.276,133.238 205.955,131.909 208.427,130.421C213.978,127.079 218.872,129.27 226.491,130.554C234.539,131.911 241.907,134.065 250.543,132.741C259.727,131.333 259.779,132.184 268.516,131.674C270.694,131.546 270.65,130.981 270.827,130.889Z" style="fill:rgb(14,12,9);"/>
                </g>
            </g>
        </g>
    </g>
</svg>
