<?xml version="1.0" encoding="UTF-8" standalone="no"?>
<!DOCTYPE svg PUBLIC "-//W3C//DTD SVG 1.1//EN" "http://www.w3.org/Graphics/SVG/1.1/DTD/svg11.dtd">
<svg width="100%" height="100%" viewBox="0 0 556 66" version="1.1" xmlns="http://www.w3.org/2000/svg" xmlns:xlink="http://www.w3.org/1999/xlink" xml:space="preserve" xmlns:serif="http://www.serif.com/" style="fill-rule:evenodd;clip-rule:evenodd;stroke-linejoin:round;stroke-miterlimit:2;">
    <g transform="matrix(1,0,0,1,-168.974747,-589.713457)">
        <g transform="matrix(1.346855,0,0,1,0,2567.10941)">
            <g id="OlhosAbertos">
                <g transform="matrix(2.595781,0,0,3.496142,-982.727513,-2692.722087)">
                    <path d="M577.421,210.765C578.143,211.24 578.418,210.818 580.37,212.704C581.149,213.457 585.832,216.142 585.845,217.454C585.857,218.734 585.484,218.615 584.322,219.126C582.393,219.975 582.413,219.981 580.507,220.902C578.981,221.052 578.988,220.967 577.459,221.202C575.943,221.435 575.994,221.583 574.474,221.802C574.34,221.822 572.976,222.018 572.842,221.33C572.584,220 575.759,217.984 576.127,217.32C576.706,216.275 575.614,215.6 575.484,215.519C571.602,213.119 571.647,213.053 571.304,212.854C567.512,210.655 567.816,213.443 567.7,214.523C567.265,218.565 563.114,222.721 557.43,221.95C546.664,220.491 548.901,212.929 548.152,211.74C547.322,210.422 543.655,212.306 542.378,213.345C538.458,216.536 539.008,218.012 535.489,217.785C533.916,217.684 534.011,217.341 533.654,217.284C533.338,217.233 533.016,217.443 532.7,217.392C532.877,217.057 533.188,216.805 533.365,216.47C533.399,216.407 533.081,216.175 534.641,214.652C535.208,214.097 536.445,212.89 541.91,207.902C545.635,204.502 546.717,204.913 554.505,204.718C560.6,204.567 561.099,204.475 565.558,205.058C568.595,205.456 568.428,205.977 577.421,210.765Z" style="fill:rgb(4,4,4);"/>
                </g>
                <g transform="matrix(2.595781,0,0,3.496142,-982.727513,-2692.722087)">
                    <path d="M467.493,206.645C468.969,207.318 469.255,206.88 473.456,210.548C477.602,214.167 478.88,215.139 479.51,215.491C480.733,216.174 480.513,216.548 479.728,217.692C479.153,218.531 478.942,218.138 477.562,218.208L476.223,217.744L475.607,217.432C475.416,217.292 475.318,217.047 475.126,216.908C473.733,215.894 473.648,216.043 470.366,213.695C468.362,212.261 466.214,211.671 465.673,211.954C463.661,213.007 466.726,214.574 463.495,219.496C462.147,221.549 456.525,224.39 451.51,222.475C445.618,220.226 446.027,215.113 445.872,214.365C445.651,213.295 445.562,213.096 444.467,213.188C443.941,213.233 443.994,213.387 439.124,217.071C436.252,219.242 440.867,221.167 441.114,221.732C441.363,222.302 440.51,223.188 440.433,223.211C439.816,223.39 437.567,222.394 434.435,221.88C429.083,221.001 429.055,221.243 428.596,221.139C425.058,220.339 428.185,218.458 428.377,218.342C431.959,216.187 431.538,215.527 440.251,210.096C444.247,207.605 445.525,206.817 452.473,206.208C461.681,205.401 461.77,205.079 467.493,206.645Z" style="fill:rgb(5,5,4);"/>
                </g>
            </g>
        </g>
    </g>
</svg>
