<?xml version="1.0" encoding="UTF-8" standalone="no"?>
<!DOCTYPE svg PUBLIC "-//W3C//DTD SVG 1.1//EN" "http://www.w3.org/Graphics/SVG/1.1/DTD/svg11.dtd">
<svg width="100%" height="100%" viewBox="0 0 556 52" version="1.1" xmlns="http://www.w3.org/2000/svg" xmlns:xlink="http://www.w3.org/1999/xlink" xml:space="preserve" xmlns:serif="http://www.serif.com/" style="fill-rule:evenodd;clip-rule:evenodd;stroke-linejoin:round;stroke-miterlimit:2;">
    <g transform="matrix(1,0,0,1,-169.24019,-739.313996)">
        <g transform="matrix(1.346855,0,0,1,0,2567.10941)">
            <g id="OlhosSerrados" transform="matrix(2.595781,0,0,3.496142,-985.063299,-2534.134093)">
                <g transform="matrix(0.750835,0,0,0.750835,293.641595,47.483367)">
                    <path d="M385.471,215.313C385.774,215.386 386.1,215.167 386.404,215.24C386.878,215.353 388.443,216.236 388.614,216.333C388.762,216.416 392.413,218.906 389.183,221.049C388.084,221.778 388.198,221.913 387.5,222.32C387.163,222.517 386.735,222.517 386.397,222.714C386.375,222.706 385.303,221.82 382.441,222.21C380.847,222.427 380.898,222.565 379.357,223.076C375.425,224.38 374.9,223.664 374.679,223.362C373.756,222.102 376.219,220.257 376.781,219.729C376.943,219.577 378.625,217.996 377.152,216.971C376.375,216.43 376.297,216.715 374.489,216.631C372.061,216.518 370.297,215.213 368.541,215.635C366.771,216.06 365.837,220.249 363.179,222.015C360.621,223.714 356.145,223.971 354.472,223.832C342.34,222.827 343.395,216.702 341.536,213.475C339.604,210.121 331.371,216.73 328.299,218.002C324.741,219.474 319.646,217.847 322.374,215.377C327.86,210.41 330.628,209.709 333.349,208.199C340.574,204.187 352.376,206.27 360.52,207.348C364.634,207.892 364.601,207.982 368.593,209.146C374.688,210.924 374.683,210.896 380.602,213.221C384.426,214.724 384.243,215.058 384.574,215.184C384.856,215.291 385.188,215.206 385.471,215.313Z" style="fill:rgb(13,10,9);"/>
                </g>
                <g transform="matrix(0.750835,0,0,0.750835,293.641595,47.483367)">
                    <path d="M238.508,208.845C243.049,210.854 242.909,211.111 246.673,214.33C247.57,215.098 248.772,215.893 248.443,217.477C248.188,218.701 245.136,219.553 243.704,219.099C243.541,219.047 241.733,218.473 241.662,218.455C241.387,218.144 241.718,217.726 240.27,216.882C240.232,216.859 233.555,213.095 230.506,213.536C227.551,213.965 229.007,218.051 225.586,221.581C222.613,224.648 216.468,225.986 212.397,224.865C202.828,222.229 205.309,215.179 200.499,215.487C198.373,215.623 192.872,218.151 193.74,220.426C194.203,221.641 196.624,223.275 196.524,224.503C196.36,226.519 192.443,224.832 191.475,224.623C190.753,224.467 190.742,224.538 182.43,222.75C179.955,222.217 179.817,222.467 179.146,221.767C177.412,219.961 182.601,218.288 187.37,215.287C188.35,214.67 193.987,211.73 194.507,211.515C197.916,210.106 203.194,207.179 224.499,206.478C227.28,206.386 232.619,206.832 234.52,207.437C236.538,208.081 236.473,208.229 238.508,208.845Z" style="fill:rgb(10,8,6);"/>
                </g>
            </g>
        </g>
    </g>
</svg>
