<?xml version="1.0" encoding="UTF-8" standalone="no"?>
<!DOCTYPE svg PUBLIC "-//W3C//DTD SVG 1.1//EN" "http://www.w3.org/Graphics/SVG/1.1/DTD/svg11.dtd">
<svg width="100%" height="100%" viewBox="0 0 746 709" version="1.1" xmlns="http://www.w3.org/2000/svg" xmlns:xlink="http://www.w3.org/1999/xlink" xml:space="preserve" xmlns:serif="http://www.serif.com/" style="fill-rule:evenodd;clip-rule:evenodd;stroke-linejoin:round;stroke-miterlimit:2;">
    <g transform="matrix(1,0,0,1,-10504.220568,-4269.029288)">
        <g transform="matrix(1,0,0,1,2854.445658,-79.987487)">
            <g id="OmbreiraD" transform="matrix(-3.496142,0,0,3.496142,8886.417348,3058.219034)">
                <path d="M346.401,481.461C321.44,508.745 261.523,571.907 261.5,571.999L142.5,571.999L140.44,570.926C140.446,570.858 140.231,569.863 140.643,568.542C140.805,568.024 148.29,546.156 149.761,542.616C150.132,541.723 152.451,536.141 154.243,531.398C156.61,525.133 156.788,524.827 158.732,522.288C158.905,520.359 158.871,520.338 159.731,518.599C161.033,515.966 161.87,517.207 164.472,518.547C165.092,518.867 165.063,518.881 165.683,519.231C167.036,517.866 167.26,518.038 168.071,516.302C168.736,514.877 172.557,506.693 176.914,498.741C184.253,485.344 183.965,485.203 192.016,472.195C192.14,471.996 193.287,470.143 193.757,469.832C193.983,469.682 194.27,469.411 194.514,469.531C194.712,469.628 194.386,470.004 196.583,471.35C198.743,472.675 196.776,467.597 196.676,466.442C196.557,465.071 197.964,463.517 198.153,463.237C198.837,462.221 198.557,461.754 199.574,461.777C200.541,461.798 201.332,462.456 203.292,463.786C203.869,464.178 203.86,464.157 204.456,464.545C204.73,464.239 204.834,463.806 205.108,463.5C205.345,463.236 205.691,463.095 205.961,462.865C206.33,462.55 208.33,459.772 209.391,458.416C216.686,449.094 216.71,449.133 224.174,440.245C226.936,436.955 226.987,437.019 229.846,433.826C235.974,426.984 236.824,426.105 237.453,425.455C240.782,422.013 241.099,422.1 242.45,421.298C242.971,420.908 243.027,421.034 243.54,420.65C244.537,419.902 244.427,419.781 244.527,419.741C244.831,419.62 245.179,419.937 245.5,419.871C245.938,419.781 246.272,419.382 246.71,419.292C246.629,418.795 245.606,418.235 247.172,416.28C249.856,412.929 250.839,414.107 254.102,416.912C254.347,416.581 255.002,414.752 255.941,412.037C255.636,411.054 255.443,400.487 257.301,392.447C258.726,386.281 259.88,380.967 265.451,373.459C267.655,370.489 272.368,368.279 276.474,369.595C280.485,370.88 283.949,371.701 295.357,381.662C297.17,383.245 301.978,387.04 311.186,396.796C311.733,397.375 311.683,397.405 317.808,404.237C321.476,408.327 321.397,408.382 330.158,418.684C335.044,424.902 336.602,427.021 337.144,427.759C339.123,430.452 344.576,437.149 346.465,441.533C346.523,441.668 357.994,461.238 351.961,473.728C349.917,477.959 349.116,478.681 346.401,481.461Z"/>
                <path d="M254.5,571.999L246.5,571.999C246.055,571.712 245.735,571.257 245.291,570.97C245.016,570.792 244.665,570.769 244.373,570.623C243.922,570.399 243.057,569.394 241.064,567.979C241.635,567.499 242.218,567.033 242.789,566.553C243.164,566.238 246.034,560.403 247.732,556.606C249.559,552.525 249.654,552.596 251.719,548.606C251.935,548.19 253.932,544.332 251.339,542.761C247.786,540.609 245.785,547.794 243.262,552.369C241.413,555.722 241.694,555.843 240.017,559.278C237.776,563.87 238.725,564.145 238.521,564.532C238.238,565.067 237.591,565.348 237.309,565.883C235.752,564.848 235.757,564.866 234.232,563.786C236.79,559.705 237.837,556.414 239.653,552.563C241.805,547.999 242.165,546.857 244.226,543.366C244.768,542.448 246.328,540.216 244.523,538.476C241.784,535.837 239.593,540.044 239.391,540.434C238.646,541.864 232.073,554.49 230.605,558.569C230.05,560.113 229.805,559.959 229.388,560.682C227.537,559.241 218.844,553.851 217.697,553.172C215.552,551.902 215.66,551.76 213.557,550.418C213.741,550.153 213.682,549.765 213.867,549.5C214.121,549.134 214.527,548.901 214.836,548.58C214.861,548.554 217.477,543.072 217.706,542.593C217.937,542.109 219.236,539.387 220.544,536.522C223.964,529.031 224.187,529.145 224.469,528.487C224.619,528.135 225.992,524.93 223.343,523.838C221.838,523.217 221.723,523.438 220.457,524.447C219.077,525.545 211.958,540.938 211.187,542.33C209.46,545.452 209.926,545.639 209.739,545.883C209.369,546.366 208.641,546.484 208.271,546.967C207.29,546.328 207.312,546.332 206.391,545.626C206.524,545.198 206.367,544.715 206.5,544.288C206.676,543.722 206.94,543.861 209.933,537.731C217.454,522.33 218.127,522.302 217.524,520.49C216.988,518.877 214.135,517.608 212.445,520.464C212.025,521.173 212.185,521.238 207.76,529.633C207.431,530.257 203.337,538.435 202.574,540.563C202.509,540.745 202.553,540.74 202.28,542.956C200.951,542.139 200.97,542.134 199.691,541.229C197.054,539.366 195.178,538.408 194.746,538.12C188.289,533.82 187.703,533.395 187.106,532.962C187.246,532.494 187.028,531.967 187.168,531.5C187.275,531.141 187.578,531.298 188.717,528.594C191.111,522.908 191.16,522.933 191.361,522.436C192.963,518.469 196.559,511.836 197.296,510.398C199.857,505.397 195.902,503.596 194.335,505.244C192.88,506.775 184.944,523.027 184.381,524.46C182.954,528.093 183.271,528.187 183.144,528.5C182.936,529.011 182.508,529.412 182.301,529.923C180.719,528.928 180.718,528.958 179.187,527.869C179.461,527.437 179.609,526.932 179.883,526.5C180.43,525.637 180.541,525.721 180.957,524.777C184.57,516.561 188.229,510.052 189.405,507.45C190.288,505.498 192.88,502.545 190.414,500.611C188.907,499.428 187.739,500.436 187.566,500.585C186.298,501.679 184.292,505.936 181.78,510.648C181.528,511.122 181.587,511.129 178.699,516.607C177.226,519.402 177.518,519.516 176.1,522.334C176.031,522.471 175.882,522.562 175.828,522.706C175.731,522.959 175.813,523.279 175.657,523.5C175.303,524.001 174.704,524.294 174.35,524.794C170.056,521.937 170.224,521.696 165.683,519.231C167.036,517.866 167.26,518.038 168.071,516.302C168.736,514.877 172.557,506.693 176.914,498.741C184.253,485.344 183.965,485.203 192.016,472.195C192.14,471.996 193.287,470.143 193.757,469.832C193.983,469.682 194.27,469.411 194.514,469.531C194.712,469.628 194.386,470.004 196.583,471.35C198.743,472.675 202.162,475.301 205.381,477.665C215.57,485.147 215.825,484.77 222.801,490.098C223.305,490.484 227.92,493.469 229.359,494.664C229.976,495.177 230.499,495.611 237.556,500.425C238.156,500.834 239.242,501.763 240.476,502.537C243.181,504.235 243.189,504.198 245.793,506.066C247.287,507.138 247.253,507.153 248.718,508.252C248.922,508.405 249.186,508.465 249.387,508.622C249.558,508.755 249.643,508.982 249.818,509.11C250.032,509.267 250.312,509.312 250.532,509.459C250.771,509.62 250.712,509.671 253.393,511.642C255.625,513.282 255.846,513.13 256.432,513.598C256.485,513.641 256.725,514.123 257.5,514.585C258.676,515.284 258.704,515.221 259.76,516.111C260.413,516.661 263.392,518.807 264.384,519.639C264.548,519.777 264.64,519.995 264.821,520.111C264.923,520.177 265.832,520.334 267.81,522.02C268.615,522.706 268.644,522.641 269.5,523.277L270.5,523.821L271.727,524.583C271.206,525.858 260.638,553.201 258.039,561.353C257.795,562.116 256.502,565.352 256.454,565.482C254.769,570.065 254.626,571.495 254.5,571.999Z" style="fill:rgb(5,2,2);"/>
                <path d="M311.436,478.47C311.132,479.015 310.316,480.721 309.751,481.642C309.602,481.886 308.595,483.526 307.951,484.74C302.737,494.553 302.695,494.522 302.271,495.389C299.084,501.915 297.951,503.577 296.162,507.353C295.108,509.577 294.951,509.483 293.886,511.693C291.201,517.257 291.083,517.181 290.852,517.664C288.358,522.88 288.37,522.881 288.147,523.331C281.196,537.338 281.433,537.453 280.768,538.639C278.74,542.259 279.24,542.476 276.722,547.596L275.953,546.5C275.901,545.987 276.034,546.002 275.982,545.5C275.929,544.982 275.828,545.026 275.748,544.495C275.597,543.498 275.72,543.507 275.821,542.492C275.969,540.983 275.809,541.003 275.588,539.5L275.21,538.5L274.561,537.5L274.273,536.415C274.344,536.249 278.91,524.315 279.169,523.413C280.062,520.304 279.568,518.634 275.852,516.085C276.837,514.909 276.83,514.932 277.74,513.675C278.548,512.56 286.372,501.756 287.735,499.661C287.97,499.299 290.487,495.43 287.616,494.264C286.793,493.93 285.665,493.359 282.927,496.797C281.672,498.372 271.696,512.281 271.333,512.8C270.994,512.538 270.979,512.581 270.629,512.311C270.542,512.244 270.549,512.248 269.541,511.454C269.558,511.215 269.003,511.199 269.02,510.96C269.078,510.13 270.849,508.278 272.226,506.322C272.889,505.38 279.449,496.061 280.653,494.64C280.845,494.414 282.548,492.405 282.634,491.502C282.779,489.983 280.269,486.562 276.754,490.696C275.329,492.373 275.553,492.529 274.118,494.188C271.532,497.178 266.709,504.337 266.099,505.243C265.922,505.506 265.868,505.438 265.705,505.684C265.594,505.851 265.603,505.839 264.337,507.77C263.696,507.29 261.985,506.169 260.74,505.186C260.002,504.603 254.695,500.812 249.192,496.819C253.418,491.503 255.407,488.506 255.907,487.755C259.258,482.707 263.623,477.924 263.836,476.544C264.104,474.797 261.935,471.082 258.809,474.8C253.535,481.071 250.731,485.252 250.092,486.206C247.54,490.011 247.163,489.771 245.244,493.93C244.999,493.766 245.009,493.76 242.21,491.849C242.925,490.832 242.796,490.756 243.755,489.651C244.467,488.83 244.365,488.763 251.879,478.766C253.982,475.969 254.054,476.044 256.135,473.246C259.468,468.766 255.112,467.739 253.562,468.626C250.818,470.198 246.186,477.437 240.68,484.625C238.712,487.195 238.877,487.287 238.696,487.5C238.351,487.907 237.821,488.128 237.476,488.535C234.457,486.054 234.417,486.139 231.263,483.841C230.613,483.367 224.84,479.16 223.09,477.971C223.686,477.496 224.319,477.068 224.915,476.592C225.348,476.247 225.133,475.915 227.16,473.239C233.939,464.287 233.782,464.184 234.38,463.413C234.761,462.922 239.088,457.347 239.133,457.271C240.469,455.014 238.396,453.609 237.515,453.445C235.575,453.084 235.092,454.035 226.763,464.719C223.626,468.743 223.452,469.134 223.287,469.35C219.313,474.564 220.325,475.035 220.209,475.911C219.085,475.063 216.487,473.13 216.163,472.888C218.391,471.222 218.355,471.183 219.994,468.919C222.13,465.968 226.645,460.077 227.23,459.313C232.103,452.954 234.58,451.387 232.64,449.363C232.419,449.132 230.889,447.536 228.666,449.679C227.564,450.741 222.608,457.102 218.351,462.382C215.086,466.43 213.744,469.386 213.649,469.5C213.355,469.852 212.878,470.019 212.584,470.371C208.539,467.409 208.47,467.533 204.456,464.545C204.73,464.239 204.834,463.806 205.108,463.5C205.345,463.236 205.691,463.095 205.961,462.865C206.33,462.55 208.33,459.772 209.391,458.416C216.686,449.094 216.71,449.133 224.174,440.245C226.936,436.955 226.987,437.019 229.846,433.826C235.974,426.984 236.824,426.105 237.453,425.455C240.782,422.013 241.099,422.1 242.45,421.298C242.971,420.908 243.027,421.034 243.54,420.65C244.537,419.902 244.427,419.781 244.527,419.741C244.831,419.62 245.179,419.937 245.5,419.871C245.938,419.781 246.272,419.382 246.71,419.292C252.214,423.784 252.21,423.769 257.567,428.42C260.206,430.711 265.626,435.327 268.435,437.583C271.468,440.018 274.888,443.205 275.9,444.041C296.721,461.232 299.361,464.058 303.14,466.966C306.183,469.307 305.91,469.597 308.897,472.008C311.955,474.477 313.714,474.743 311.436,478.47Z" style="fill:rgb(5,2,2);"/>
                <g transform="matrix(0.28603,0,0,0.28603,-1544.135452,-882.492871)">
                    <path d="M6609.806,4628.983C6610.008,4629.454 6650.113,4697.872 6629.021,4741.539C6620.753,4758.656 6618.304,4759.346 6604.567,4773.768C6584.838,4794.48 6501.077,4880.995 6497.644,4883.572C6492.729,4887.26 6489.486,4887.712 6483.87,4884.358C6480.601,4882.406 6476.981,4876.635 6478.013,4873.722C6479.635,4869.142 6487.278,4862.725 6516.027,4832.109C6517.496,4830.544 6531.481,4817.112 6535.139,4812.981C6545.097,4801.735 6545.707,4802.383 6555.579,4791.127C6556.878,4789.646 6557.306,4790.094 6572.911,4773.638C6597.062,4748.169 6617.782,4733.539 6614.052,4695.228C6611.807,4672.169 6595.963,4647.67 6592.945,4642.546C6584.124,4627.571 6558.13,4593.832 6554.953,4589.707C6554.224,4588.761 6513.836,4538.29 6507.911,4531.501C6483.179,4503.161 6442.548,4450.71 6378.84,4409.104C6375.433,4406.879 6360.324,4394.821 6347.714,4401.61C6344.712,4403.227 6341.823,4408.542 6339.819,4411.423C6332.531,4422.52 6323.985,4443.481 6322.887,4446.955C6322.035,4449.649 6313.938,4478.333 6306.962,4499.937C6302.839,4512.708 6300.946,4517.257 6298.538,4527.379L6295.42,4527.884C6294.927,4527.124 6293.897,4526.821 6293.404,4526.06C6292.295,4524.349 6291.412,4486.208 6298.077,4457.37C6303.059,4435.812 6307.093,4417.234 6326.57,4390.985C6334.276,4380.601 6350.754,4372.877 6365.107,4377.475C6379.132,4381.969 6391.244,4384.838 6431.126,4419.665C6437.463,4425.199 6454.276,4438.468 6486.465,4472.574C6488.377,4474.601 6488.203,4474.704 6509.619,4498.588C6522.441,4512.888 6522.164,4513.081 6552.794,4549.097C6569.878,4570.839 6575.323,4578.246 6577.22,4580.828C6584.139,4590.24 6603.204,4613.653 6609.806,4628.983Z" style="fill:rgb(244,233,207);"/>
                </g>
                <path d="M233.5,571.999L230.5,571.999C230.033,571.756 229.948,571.036 229.481,570.793C229.188,570.64 228.832,570.922 228.503,570.957C228.171,570.991 227.799,570.845 227.504,570.998C227.085,571.217 226.919,571.781 226.5,571.999L203.5,571.999C202.819,571.649 202.137,571.299 201.456,570.949C201.46,570.874 201.096,569.884 201.575,568.53C203.169,564.022 207.243,561.059 202.204,557.934C201.844,557.711 201.839,557.726 197.608,555.308C194.882,553.749 194.112,553.814 192.756,556.629C189.073,564.272 187.809,565.487 191.756,568.1C193.748,569.42 193.76,569.407 193.827,569.5C194.123,569.916 194.207,570.459 194.504,570.875C194.264,570.884 191.511,570.985 191.511,570.985C191.087,571.206 190.923,571.779 190.5,571.999L142.5,571.999C141.813,571.641 141.127,571.283 140.44,570.926C140.446,570.858 140.231,569.863 140.643,568.542C140.805,568.024 148.29,546.156 149.761,542.616C150.132,541.723 152.451,536.141 154.243,531.398C156.61,525.133 156.788,524.827 158.732,522.288C159.071,522.577 159.338,522.945 159.676,523.234C160.058,523.56 171.411,530.93 172.435,531.594C173.31,532.162 181.808,537.679 183.395,538.666C192.726,544.469 209.641,556.116 214.299,558.854C216.379,560.076 217.499,561.048 218.431,561.609C218.735,561.793 220.804,563.041 222.212,563.95C230.569,569.345 230.704,569.127 231.359,569.689C232.949,571.053 233.08,570.857 233.204,570.988C233.445,571.243 233.259,571.744 233.5,571.999Z" style="fill:rgb(4,3,2);"/>
                <path d="M254.102,416.912C261.245,422.706 285.521,443.469 288.24,445.794C298.76,454.792 298.752,454.779 309.327,463.712C310.016,464.295 309.935,464.363 317.839,471.121C322.484,475.092 319.034,477.312 314.412,486.451C313.07,489.105 304.582,504.282 298.732,516.606C297.569,519.057 297.403,518.948 296.292,521.406C295.529,523.095 290.801,532.311 290.339,533.431C289.414,535.675 285.75,542.9 284.222,546.381C281.705,552.118 280.028,551.731 278.496,551.744C274.635,551.776 276.188,549.039 276.722,547.596C279.24,542.476 278.74,542.259 280.768,538.639C281.433,537.453 281.196,537.338 288.147,523.331C288.37,522.881 288.358,522.88 290.852,517.664C291.083,517.181 291.201,517.257 293.886,511.693C294.951,509.483 295.108,509.577 296.162,507.353C297.951,503.577 299.084,501.915 302.271,495.389C302.695,494.522 302.737,494.553 307.951,484.74C308.595,483.526 309.602,481.886 309.751,481.642C310.316,480.721 311.132,479.015 311.436,478.47C313.714,474.743 311.955,474.477 308.897,472.008C305.91,469.597 306.183,469.307 303.14,466.966C299.361,464.058 296.721,461.232 275.9,444.041C274.888,443.205 271.468,440.018 268.435,437.583C265.626,435.327 260.206,430.711 257.567,428.42C252.21,423.769 252.214,423.784 246.71,419.292C246.629,418.795 245.606,418.235 247.172,416.28C249.856,412.929 250.839,414.107 254.102,416.912Z" style="fill:rgb(244,234,207);"/>
                <path d="M261.5,571.999L254.5,571.999C254.626,571.495 254.769,570.065 256.454,565.482C256.502,565.352 257.795,562.116 258.039,561.353C260.638,553.201 271.206,525.858 271.727,524.583C271.886,523.907 272.797,523.223 271.588,521.412C271.332,521.03 269.98,520.222 269.799,520.084C263.271,515.107 263.191,515.237 256.637,510.309C253.278,507.783 244.117,501.334 243.326,500.747C230.009,490.87 229.901,491.025 228.748,490.159C219.317,483.072 219.18,483.295 218.376,482.661C216.439,481.134 211.805,478.016 210.743,477.189C205.932,473.444 205.805,473.644 203.315,471.758C197.397,467.279 196.776,467.597 196.676,466.442C196.557,465.071 197.964,463.517 198.153,463.237C198.837,462.221 198.557,461.754 199.574,461.777C200.541,461.798 201.332,462.456 203.292,463.786C203.869,464.178 203.86,464.157 204.456,464.545C208.47,467.533 208.539,467.409 212.584,470.371C214.312,471.727 214.279,471.755 216.163,472.888C216.487,473.13 219.085,475.063 220.209,475.911C221.583,477.034 221.55,477.064 223.09,477.971C224.84,479.16 230.613,483.367 231.263,483.841C234.417,486.139 234.457,486.054 237.476,488.535C241.853,491.591 241.842,491.569 242.21,491.849C245.009,493.76 244.999,493.766 245.244,493.93C247.145,495.493 247.153,495.448 249.192,496.819C254.695,500.812 260.002,504.603 260.74,505.186C261.985,506.169 263.696,507.29 264.337,507.77C266.841,509.76 266.987,509.539 269.541,511.454C270.549,512.248 270.542,512.244 270.629,512.311C270.979,512.581 270.994,512.538 271.333,512.8C273.507,514.578 273.515,514.54 275.852,516.085C279.568,518.634 280.062,520.304 279.169,523.413C278.91,524.315 274.344,536.249 274.273,536.415C271.97,542.138 272.078,542.173 271.845,542.655C269.7,547.088 270.432,547.357 268.241,552.39C267.393,554.339 263.409,566.375 262.506,568.502C261.293,571.359 261.57,571.72 261.5,571.999Z" style="fill:rgb(244,232,205);"/>
                <path d="M246.5,571.999L233.5,571.999C233.259,571.744 233.445,571.243 233.204,570.988C233.08,570.857 232.949,571.053 231.359,569.689C230.704,569.127 230.569,569.345 222.212,563.95C220.804,563.041 218.735,561.793 218.431,561.609C217.499,561.048 216.379,560.076 214.299,558.854C209.641,556.116 192.726,544.469 183.395,538.666C181.808,537.679 173.31,532.162 172.435,531.594C171.411,530.93 160.058,523.56 159.676,523.234C159.338,522.945 159.071,522.577 158.732,522.288C158.905,520.359 158.871,520.338 159.731,518.599C161.033,515.966 161.87,517.207 164.472,518.547C165.092,518.867 165.063,518.881 165.683,519.231C170.224,521.696 170.056,521.937 174.35,524.794C176.782,526.537 176.799,526.491 179.187,527.869C180.718,528.958 180.719,528.928 182.301,529.923C184.625,531.58 184.612,531.564 187.106,532.962C187.703,533.395 188.289,533.82 194.746,538.12C195.178,538.408 197.054,539.366 199.691,541.229C200.97,542.134 200.951,542.139 202.28,542.956C204.33,544.309 204.379,544.21 206.391,545.626C207.312,546.332 207.29,546.328 208.271,546.967C210.872,548.808 210.815,548.88 213.557,550.418C215.66,551.76 215.552,551.902 217.697,553.172C218.844,553.851 227.537,559.241 229.388,560.682C231.704,562.418 231.791,562.25 234.232,563.786C235.757,564.866 235.752,564.848 237.309,565.883C239.11,567.095 239.109,567.061 241.064,567.979C243.057,569.394 243.922,570.399 244.373,570.623C244.665,570.769 245.016,570.792 245.291,570.97C245.735,571.257 246.055,571.712 246.5,571.999Z" style="fill:rgb(244,234,207);"/>
                <path d="M257.323,520.775C262.741,524.51 263.519,525.52 262.024,528.238C257.69,536.111 257.253,536.249 256.496,536.488C254.892,536.994 254.195,536.335 249.364,532.69C245.556,529.817 246.273,528.757 248.928,524.784C250.202,522.877 251.551,520.403 251.976,519.972C253.809,518.11 256.892,520.525 257.323,520.775Z" style="fill:rgb(255,21,55);"/>
                <path d="M221.215,512.888C221.005,512.687 220.783,512.729 220.053,511.775C219.723,511.344 218.868,510.228 222.295,505.365C224.317,502.497 225.58,499.209 228.44,500.63C229.39,501.101 234.031,504.43 234.321,504.696C237.237,507.373 235.466,508.08 231.392,515.429C229.258,519.276 227.773,517.868 221.215,512.888Z" style="fill:rgb(255,21,55);"/>
                <path d="M194.504,570.875C194.207,570.459 194.123,569.916 193.827,569.5C193.76,569.407 193.748,569.42 191.756,568.1C187.809,565.487 189.073,564.272 192.756,556.629C194.112,553.814 194.882,553.749 197.608,555.308C201.839,557.726 201.844,557.711 202.204,557.934C207.243,561.059 203.169,564.022 201.575,568.53C201.096,569.884 201.46,570.874 201.456,570.949L203.5,571.999L190.5,571.999C190.923,571.779 191.087,571.206 191.511,570.985L194.504,570.875Z" style="fill:rgb(255,21,55);"/>
                <path d="M300.446,482.455C295.6,488.429 295.24,488.535 294.581,488.73C292.073,489.47 290.955,486.892 286.491,483.509C283.545,481.277 287.358,478.479 290.021,475.104C290.2,474.877 291.869,472.763 292.482,472.467C294.764,471.369 296.464,473.427 298.755,475.152C302.604,478.049 303.183,479.063 300.446,482.455Z" style="fill:rgb(255,21,55);"/>
                <path d="M172.745,551.616C172.074,552.67 171.415,555.381 166.616,552.312C161.999,549.358 159.723,549.248 162.093,544.315C163.873,540.612 165.264,536.88 166.507,536.518C167.65,536.185 168.292,536.478 172.632,539.268C175.427,541.064 176.906,541.351 175.277,545.418C175.202,545.604 172.948,551.121 172.745,551.616Z" style="fill:rgb(255,21,55);"/>
                <path d="M198.487,483.491C198.598,483.345 198.676,483.056 199.355,482.351C199.853,481.835 199.819,481.745 200.534,481.654C200.943,481.602 201.748,481.5 205.183,483.894C209.745,487.075 210.202,488.194 208.249,491.354C204.762,496.997 204.055,499.002 201.508,498.465C199.856,498.116 194.984,494.38 194.795,494.189C193.2,492.577 192.779,491.767 198.487,483.491Z" style="fill:rgb(255,21,55);"/>
                <path d="M265.455,466.566C261.423,463.431 259.137,461.833 262.389,458.4C262.884,457.877 262.881,457.892 263.374,457.38C267.448,453.144 268.295,450.297 271.815,453.097C274.959,455.597 274.972,455.577 275.235,455.806C279.669,459.651 276.194,460.449 272.546,465.536C269.157,470.264 267.369,467.866 265.455,466.566Z" style="fill:rgb(255,21,55);"/>
                <path d="M208.271,546.967C208.641,546.484 209.369,546.366 209.739,545.883C209.926,545.639 209.46,545.452 211.187,542.33C211.958,540.938 219.077,525.545 220.457,524.447C221.723,523.438 221.838,523.217 223.343,523.838C225.992,524.93 224.619,528.135 224.469,528.487C224.187,529.145 223.964,529.031 220.544,536.522C219.236,539.387 217.937,542.109 217.706,542.593C217.477,543.072 214.861,548.554 214.836,548.58C214.527,548.901 214.121,549.134 213.867,549.5C213.682,549.765 213.741,550.153 213.557,550.418C210.815,548.88 210.872,548.808 208.271,546.967Z" style="fill:rgb(255,21,55);"/>
                <path d="M240.542,445.457C238.687,443.63 238.656,443.664 238.511,443.491C236.679,441.314 237.684,440.481 243.123,435.105C246.292,431.973 247.173,432.533 250.561,435.427C252.256,436.874 254.33,438.196 253.473,440.488C253.234,441.126 253.207,441.198 247.884,446.899C244.737,450.269 243.836,448.696 240.542,445.457Z" style="fill:rgb(255,21,55);"/>
                <path d="M174.35,524.794C174.704,524.294 175.303,524.001 175.657,523.5C175.813,523.279 175.731,522.959 175.828,522.706C175.882,522.562 176.031,522.471 176.1,522.334C177.518,519.516 177.226,519.402 178.699,516.607C181.587,511.129 181.528,511.122 181.78,510.648C184.292,505.936 186.298,501.679 187.566,500.585C187.739,500.436 188.907,499.428 190.414,500.611C192.88,502.545 190.288,505.498 189.405,507.45C188.229,510.052 184.57,516.561 180.957,524.777C180.541,525.721 180.43,525.637 179.883,526.5C179.609,526.932 179.461,527.437 179.187,527.869C176.799,526.491 176.782,526.537 174.35,524.794Z" style="fill:rgb(255,21,55);"/>
                <path d="M182.301,529.923C182.508,529.412 182.936,529.011 183.144,528.5C183.271,528.187 182.954,528.093 184.381,524.46C184.944,523.027 192.88,506.775 194.335,505.244C195.902,503.596 199.857,505.397 197.296,510.398C196.559,511.836 192.963,518.469 191.361,522.436C191.16,522.933 191.111,522.908 188.717,528.594C187.578,531.298 187.275,531.141 187.168,531.5C187.028,531.967 187.246,532.494 187.106,532.962C184.612,531.564 184.625,531.58 182.301,529.923Z" style="fill:rgb(255,21,55);"/>
                <path d="M229.388,560.682C229.805,559.959 230.05,560.113 230.605,558.569C232.073,554.49 238.646,541.864 239.391,540.434C239.593,540.044 241.784,535.837 244.523,538.476C246.328,540.216 244.768,542.448 244.226,543.366C242.165,546.857 241.805,547.999 239.653,552.563C237.837,556.414 236.79,559.705 234.232,563.786C231.791,562.25 231.704,562.418 229.388,560.682Z" style="fill:rgb(255,21,55);"/>
                <path d="M237.309,565.883C237.591,565.348 238.238,565.067 238.521,564.532C238.725,564.145 237.776,563.87 240.017,559.278C241.694,555.843 241.413,555.722 243.262,552.369C245.785,547.794 247.786,540.609 251.339,542.761C253.932,544.332 251.935,548.19 251.719,548.606C249.654,552.596 249.559,552.525 247.732,556.606C246.034,560.403 243.164,566.238 242.789,566.553C242.218,567.033 241.635,567.499 241.064,567.979C239.109,567.061 239.11,567.095 237.309,565.883Z" style="fill:rgb(255,21,55);"/>
                <path d="M202.28,542.956C202.553,540.74 202.509,540.745 202.574,540.563C203.337,538.435 207.431,530.257 207.76,529.633C212.185,521.238 212.025,521.173 212.445,520.464C214.135,517.608 216.988,518.877 217.524,520.49C218.127,522.302 217.454,522.33 209.933,537.731C206.94,543.861 206.676,543.722 206.5,544.288C206.367,544.715 206.524,545.198 206.391,545.626C204.379,544.21 204.33,544.309 202.28,542.956Z" style="fill:rgb(255,21,55);"/>
                <path d="M220.209,475.911C220.325,475.035 219.313,474.564 223.287,469.35C223.452,469.134 223.626,468.743 226.763,464.719C235.092,454.035 235.575,453.084 237.515,453.445C238.396,453.609 240.469,455.014 239.133,457.271C239.088,457.347 234.761,462.922 234.38,463.413C233.782,464.184 233.939,464.287 227.16,473.239C225.133,475.915 225.348,476.247 224.915,476.592C224.319,477.068 223.686,477.496 223.09,477.971C221.55,477.064 221.583,477.034 220.209,475.911Z" style="fill:rgb(255,21,55);"/>
                <path d="M245.244,493.93C247.163,489.771 247.54,490.011 250.092,486.206C250.731,485.252 253.535,481.071 258.809,474.8C261.935,471.082 264.104,474.797 263.836,476.544C263.623,477.924 259.258,482.707 255.907,487.755C255.407,488.506 253.418,491.503 249.192,496.819C247.153,495.448 247.145,495.493 245.244,493.93Z" style="fill:rgb(255,21,55);"/>
                <path d="M237.476,488.535C237.821,488.128 238.351,487.907 238.696,487.5C238.877,487.287 238.712,487.195 240.68,484.625C246.186,477.437 250.818,470.198 253.562,468.626C255.112,467.739 259.468,468.766 256.135,473.246C254.054,476.044 253.982,475.969 251.879,478.766C244.365,488.763 244.467,488.83 243.755,489.651C242.796,490.756 242.925,490.832 242.21,491.849C241.842,491.569 241.853,491.591 237.476,488.535Z" style="fill:rgb(255,21,55);"/>
                <path d="M212.584,470.371C212.878,470.019 213.355,469.852 213.649,469.5C213.744,469.386 215.086,466.43 218.351,462.382C222.608,457.102 227.564,450.741 228.666,449.679C230.889,447.536 232.419,449.132 232.64,449.363C234.58,451.387 232.103,452.954 227.23,459.313C226.645,460.077 222.13,465.968 219.994,468.919C218.355,471.183 218.391,471.222 216.163,472.888C214.279,471.755 214.312,471.727 212.584,470.371Z" style="fill:rgb(255,21,55);"/>
                <path d="M264.337,507.77C265.603,505.839 265.594,505.851 265.705,505.684C265.868,505.438 265.922,505.506 266.099,505.243C266.709,504.337 271.532,497.178 274.118,494.188C275.553,492.529 275.329,492.373 276.754,490.696C280.269,486.562 282.779,489.983 282.634,491.502C282.548,492.405 280.845,494.414 280.653,494.64C279.449,496.061 272.889,505.38 272.226,506.322C270.849,508.278 269.078,510.13 269.02,510.96C269.003,511.199 269.558,511.215 269.541,511.454C266.987,509.539 266.841,509.76 264.337,507.77Z" style="fill:rgb(255,21,55);"/>
                <path d="M271.333,512.8C271.696,512.281 281.672,498.372 282.927,496.797C285.665,493.359 286.793,493.93 287.616,494.264C290.487,495.43 287.97,499.299 287.735,499.661C286.372,501.756 278.548,512.56 277.74,513.675C276.83,514.932 276.837,514.909 275.852,516.085C273.515,514.54 273.507,514.578 271.333,512.8Z" style="fill:rgb(255,21,55);"/>
                <path d="M230.5,571.999L226.5,571.999C226.919,571.781 227.085,571.217 227.504,570.998C227.799,570.845 228.171,570.991 228.503,570.957C228.832,570.922 229.188,570.64 229.481,570.793C229.948,571.036 230.033,571.756 230.5,571.999Z" style="fill:rgb(255,21,55);"/>
            </g>
        </g>
    </g>
</svg>
