<?xml version="1.0" encoding="UTF-8" standalone="no"?>
<!DOCTYPE svg PUBLIC "-//W3C//DTD SVG 1.1//EN" "http://www.w3.org/Graphics/SVG/1.1/DTD/svg11.dtd">
<svg width="100%" height="100%" viewBox="0 0 991 331" version="1.1" xmlns="http://www.w3.org/2000/svg" xmlns:xlink="http://www.w3.org/1999/xlink" xml:space="preserve" xmlns:serif="http://www.serif.com/" style="fill-rule:evenodd;clip-rule:evenodd;stroke-linejoin:round;stroke-miterlimit:2;">
    <g transform="matrix(1,0,0,1,-3118.090268,-841.30364)">
        <g transform="matrix(1.346855,0,0,1,-505.294079,2171.255776)">
            <g id="Orelhas">
                <g id="OrelhaD" transform="matrix(3.138582,0,0,3.496142,1395.083281,-2056.133619)">
                    <path d="M615.92,241.517C615.896,236.765 616.689,236.879 617.925,230.59C618.384,228.25 619.704,222.296 619.864,221.575C620.643,218.061 621.798,218.88 626.317,216.17C631.077,213.316 631.916,213.598 632.413,213.765C633.395,214.094 638.721,217.435 639.501,218.499C640.753,220.206 640.168,224.153 641.73,236.473C642.499,242.537 641.487,242.632 639.72,247.579C639.309,248.731 627.452,278.104 625.525,283.509C623.587,288.945 621.764,288.715 617.605,291.652C614.346,293.955 612.913,294.302 609.403,292.705C606.652,291.454 608.114,288.507 608.809,283.553C609.574,278.098 610.416,277.476 610.669,271.532C610.799,268.487 613.176,260.78 614.081,252.402C614.117,252.071 614.133,251.738 614.166,251.406C614.334,249.723 614.777,247.69 614.799,247.607C614.834,247.477 614.978,247.394 615.012,247.264C615.3,247.791 616.373,240.345 616.085,240.645C615.88,240.858 616.125,241.303 615.92,241.517Z" style="fill:rgb(242,236,221);"/>
                    <path d="M610.639,244.42L611.007,241.987C610.998,241.843 610.993,241.699 610.992,241.553C610.965,236.201 611.737,236.298 613.13,229.212C613.598,226.83 614.941,220.766 615.103,220.033C616.004,215.969 617.29,214.564 619.489,213.238C620.442,212.664 621.863,212.189 624.127,210.832C631.461,206.434 632.965,207.766 633.731,208.023C634.567,208.303 638.031,210.288 640.338,211.952C641.743,212.967 642.784,213.994 643.189,214.546C644.061,215.735 644.744,217.294 645.098,219.804C645.456,222.342 645.501,226.891 646.601,235.57C647.592,243.385 646.522,243.566 644.245,249.942C643.834,251.094 631.978,280.463 630.051,285.868C627.543,292.901 625.471,292.998 620.091,296.798C617.709,298.48 615.946,299.302 614.186,299.557C612.322,299.828 610.384,299.518 607.667,298.282C604.251,296.728 603.113,294.15 602.893,290.849C602.764,288.917 603.445,286.158 603.95,282.556C604.672,277.411 605.508,276.833 605.747,271.226C605.88,268.108 608.268,260.207 609.194,251.63C609.228,251.319 609.242,251.006 609.273,250.695C609.489,248.521 610.076,245.9 610.105,245.792L610.639,244.42ZM615.92,241.345C615.605,241.293 615.288,241.283 614.972,241.305C615.293,241.302 615.61,241.336 615.92,241.406C615.92,241.443 615.92,241.48 615.92,241.517C615.947,241.488 615.967,241.456 615.98,241.421C616.019,241.43 616.058,241.44 616.096,241.45C615.927,243.309 615.235,247.672 615.012,247.264C614.978,247.394 614.834,247.477 614.799,247.607C614.777,247.69 614.334,249.723 614.166,251.406C614.133,251.738 614.117,252.071 614.081,252.402C613.176,260.78 610.799,268.487 610.669,271.532C610.416,277.476 609.574,278.098 608.809,283.553C608.114,288.507 606.652,291.454 609.403,292.705C612.913,294.302 614.346,293.955 617.605,291.652C621.764,288.715 623.587,288.945 625.525,283.509C627.452,278.104 639.309,248.731 639.72,247.579C641.487,242.632 642.499,242.537 641.73,236.473C640.168,224.153 640.753,220.206 639.501,218.499C638.721,217.435 633.395,214.094 632.413,213.765C631.916,213.598 631.077,213.316 626.317,216.17C621.798,218.88 620.643,218.061 619.864,221.575C619.704,222.296 618.384,228.25 617.925,230.59C616.704,236.803 615.915,236.767 615.92,241.345ZM616.102,241.38C616.067,241.372 616.033,241.365 615.998,241.359C616.043,241.129 615.923,240.814 616.085,240.645C616.147,240.58 616.146,240.878 616.102,241.38Z"/>
                </g>
                <g id="OrelhaE" transform="matrix(3.426746,0,0,3.496142,1435.545901,-2056.133619)">
                    <path d="M394.132,227.561C394.208,227.978 395.742,234.85 395.742,234.85C395.742,234.85 401.709,261.389 403.677,270.465C404.127,272.542 408.781,292.225 408.777,292.496C408.751,294.255 406.965,294.724 406.671,294.873C401.292,297.605 400.928,296.172 395.756,293.09C395.469,292.919 393.779,291.912 392.38,290.634C390.103,288.553 389.828,285.662 386.827,280.323C385.354,277.703 383.191,271.314 380.894,267.282C380.84,267.189 374.747,254.683 373.754,252.39C371.27,246.662 370.317,246.765 370.778,240.524C371.312,233.299 372.193,224.282 372.419,223.477C373.039,221.273 375.207,220.634 377.28,219.174C380.306,217.043 381.055,216.534 385.708,219.128C392.049,222.664 393.229,222.604 394.132,227.561Z" style="fill:rgb(243,237,221);"/>
                    <path d="M408.292,300.434C405.302,301.953 403.398,302.374 401.765,302.264C399.565,302.116 397.772,300.829 393.899,298.521C393.552,298.314 391.507,297.083 389.811,295.533C388.366,294.213 387.399,292.725 386.49,290.827C385.675,289.125 384.91,286.913 383.202,283.874C381.733,281.261 379.578,274.886 377.286,270.864C377.231,270.767 370.872,257.74 369.836,255.35C366.637,247.97 365.692,247.985 366.285,239.946C366.867,232.079 367.941,222.279 368.188,221.403C368.78,219.297 369.861,217.671 371.386,216.397C372.426,215.527 373.804,214.868 375.155,213.916C377.447,212.302 378.94,211.531 380.677,211.426C382.28,211.33 384.213,211.826 387.464,213.639C390.311,215.226 392.178,216.156 393.465,217.07C394.966,218.135 395.965,219.278 396.755,220.703C397.502,222.05 398.073,223.713 398.52,226.167C398.592,226.559 400.007,232.875 400.07,233.156C400.118,233.373 406.053,259.773 408.016,268.825C408.421,270.691 412.225,286.796 412.979,290.195C413.296,291.622 413.291,292.508 413.29,292.61C413.253,295.18 412.374,297.127 411.1,298.524C410.278,299.425 408.811,300.183 408.292,300.434ZM394.132,227.561C393.229,222.604 392.049,222.664 385.708,219.128C381.055,216.534 380.306,217.043 377.28,219.174C375.207,220.634 373.039,221.273 372.419,223.477C372.193,224.282 371.312,233.299 370.778,240.524C370.317,246.765 371.27,246.662 373.754,252.39C374.747,254.683 380.84,267.189 380.894,267.282C383.191,271.314 385.354,277.703 386.827,280.323C389.828,285.662 390.103,288.553 392.38,290.634C393.779,291.912 395.469,292.919 395.756,293.09C400.928,296.172 401.292,297.605 406.671,294.873C406.965,294.724 408.751,294.255 408.777,292.496C408.781,292.225 404.127,272.542 403.677,270.465C401.709,261.389 395.742,234.85 395.742,234.85C395.742,234.85 394.208,227.978 394.132,227.561Z"/>
                </g>
            </g>
        </g>
    </g>
</svg>
