<?xml version="1.0" encoding="UTF-8" standalone="no"?>
<!DOCTYPE svg PUBLIC "-//W3C//DTD SVG 1.1//EN" "http://www.w3.org/Graphics/SVG/1.1/DTD/svg11.dtd">
<svg width="100%" height="100%" viewBox="0 0 728 665" version="1.1" xmlns="http://www.w3.org/2000/svg" xmlns:xlink="http://www.w3.org/1999/xlink" xml:space="preserve" xmlns:serif="http://www.serif.com/" style="fill-rule:evenodd;clip-rule:evenodd;stroke-linejoin:round;stroke-miterlimit:2;">
    <g transform="matrix(1,0,0,1,-2433.992394,-1619.069608)">
        <g transform="matrix(1.346855,0,0,1,0,2567.10941)">
            <g id="Pescoco" transform="matrix(0.74247,0,0,1,-784.186336,-1599.156797)">
                <g transform="matrix(3.496142,0,0,3.496142,2063.643788,-478.889588)">
                    <path d="M590.79,377.268C590.83,377.417 591.05,377.472 591.091,377.622C591.111,377.694 591.137,377.791 591.14,378.556C591.149,380.714 591.171,386.11 592.202,405.518C592.359,408.483 592.963,408.371 597.365,411.688C601.081,414.489 602.066,415.012 603.22,415.862C609.452,420.454 609.672,420.206 610.022,420.779C610.584,421.698 609.187,422.888 609.039,423.015C603.634,427.62 603.766,427.735 598.405,432.388C591.472,438.404 591.44,438.347 590.851,438.885C587.202,442.215 565.141,461.433 564.761,461.783C561.119,465.137 561.103,465.092 557.342,468.311C555.73,469.691 555.779,469.721 554.173,471.128C546.987,477.423 540.407,483.116 539.207,484.154C538.347,484.898 529.2,492.812 528.476,493.473C527.347,494.503 515.961,504.891 514.316,506.287C511.832,508.397 511.331,507.218 507.311,503.717C500.385,497.685 500.376,497.714 499.781,497.184C490.497,488.916 490.515,488.907 488.179,486.877C468.434,469.723 468.419,469.763 466.726,468.247C455.588,458.269 430.471,436.743 415.103,422.87C412.637,420.644 414.667,420.248 417.326,418.251C418.054,417.704 425.885,411.823 426.461,411.447C430.854,408.578 429.839,407.694 430.601,402.513C430.8,401.166 431.17,398.65 430.715,385.492C430.387,375.986 430.412,376.004 430.196,366.508C430.06,360.513 429.865,360.539 429.697,354.547C429.708,351 429.834,351.01 429.444,347.503C429.218,345.474 428.039,334.017 428.084,333.793C428.126,333.58 429.974,341.566 430.43,341.65C430.73,341.705 432.502,344.714 435.282,347.709C437.457,350.053 437.322,350.153 439.415,352.57C444.126,358.012 443.972,358.131 444.384,358.602C446.496,361.019 446.536,360.964 448.58,363.433C454.057,370.05 454.121,370.012 469.276,382.791C480.77,392.483 483.533,395.157 484.431,395.615C485.979,396.405 486.064,396.159 509.473,397.913C510.916,398.021 512.522,398.141 527.501,396.508C538.378,395.323 538.62,395.378 541.62,392.632C542.58,391.752 550.456,384.542 553.533,381.533C561.452,373.79 561.563,373.926 562.244,373.247C566.496,369.006 569.366,366.8 575.618,357.575C578.741,352.968 582.763,347.698 586.42,342.439C588.783,339.04 590.226,328.353 590.1,329.225C589.086,336.204 590.341,347.169 590.29,348.456C589.711,362.871 591.349,368.734 590.79,377.268Z" style="fill:rgb(243,237,224);"/>
                    <path d="M595.989,330.131L595.989,330.143L595.972,330.252C595.037,337.015 596.294,347.46 596.244,348.695C595.7,362.24 597.094,368.274 596.819,376.009L596.841,376.056C596.893,376.248 597.091,376.496 597.099,378.531C597.108,380.652 597.133,385.934 598.132,404.824C598.774,405.299 599.835,406.088 600.951,406.929C604.634,409.705 605.611,410.222 606.754,411.065C611.07,414.244 612.472,415.076 613.043,415.485C614.222,416.328 614.607,416.853 615.107,417.672C616.257,419.553 616.396,421.583 615.732,423.55C615.086,425.461 613.199,427.299 612.903,427.551C607.519,432.138 607.652,432.253 602.311,436.888C595.482,442.815 595.448,442.757 594.868,443.286C591.222,446.614 569.178,465.817 568.797,466.167C565.076,469.593 565.06,469.548 561.218,472.838C559.631,474.196 559.68,474.226 558.099,475.611C550.901,481.917 544.308,487.62 543.106,488.661C542.255,489.396 533.209,497.221 532.492,497.875C531.351,498.916 519.836,509.418 518.173,510.83C516.232,512.478 514.603,513.063 513.205,513.237C511.675,513.428 510.181,513.202 508.563,512.353C507.392,511.738 505.887,510.378 503.398,508.211C496.425,502.139 496.417,502.168 495.818,501.634C486.578,493.405 486.596,493.395 484.271,491.375C464.463,474.167 464.449,474.207 462.75,472.685C451.608,462.705 426.483,441.17 411.11,427.294C408.707,425.124 408.167,423.15 408.054,421.751C407.901,419.869 408.415,418.114 409.874,416.475C410.593,415.667 412.03,414.776 413.747,413.487C414.501,412.921 422.607,406.847 423.203,406.458C423.566,406.221 423.978,405.907 424.243,405.701C424.305,404.99 424.466,403.277 424.706,401.645C424.892,400.383 425.186,398.025 424.76,385.698C424.43,376.157 424.455,376.174 424.239,366.644C424.103,360.664 423.908,360.69 423.741,354.713C423.739,354.652 423.738,354.591 423.738,354.53C423.748,351.324 423.874,351.332 423.521,348.162C423.315,346.309 422.327,336.711 422.164,334.644C422.071,333.456 422.216,332.747 422.239,332.63L422.723,331.19L423.37,330.145L424.46,329.059L425.569,328.387L427.086,327.914L428.63,327.854L430.149,328.198L431.582,328.962L432.992,330.403L433.842,332.202C434.051,332.897 435.215,337.241 435.558,338.526C436.396,339.678 437.805,341.669 439.65,343.656C441.895,346.076 441.76,346.175 443.92,348.67C447.578,352.895 448.772,354.52 448.962,354.785C451.038,357.157 451.106,357.139 453.17,359.633C458.442,366.002 458.531,365.936 473.117,378.235C481.565,385.359 485.987,389.189 487.197,390.242C488.605,390.353 494.584,390.822 509.918,391.97C511.274,392.072 512.778,392.119 526.855,390.584C530.034,390.238 532.281,390.002 533.948,389.767C536.058,389.469 536.486,389.253 537.596,388.237C538.545,387.368 546.327,380.245 549.367,377.272C557.247,369.567 557.358,369.704 558.036,369.028C562.054,365.021 564.778,362.948 570.686,354.232C573.82,349.607 577.857,344.317 581.527,339.038C582.907,337.054 583.801,331.33 584.091,329.226C584.125,328.935 584.162,328.649 584.202,328.369C584.248,328.053 584.288,327.89 584.293,327.867L585.261,325.707L587.236,323.953L589.497,323.247L590.959,323.277L592.369,323.661L593.774,324.477L594.969,325.729L595.767,327.311L596.043,328.648L595.989,330.131ZM431.763,335.885C431.662,335.835 431.576,335.802 431.51,335.789L431.763,335.885ZM595.698,373.894C595.403,373.474 595.044,373.09 594.618,372.756L595.698,373.894ZM590.069,329.438C589.83,331.041 588.472,339.487 586.42,342.439C582.763,347.698 578.741,352.968 575.618,357.575C569.366,366.8 566.496,369.006 562.244,373.247C561.563,373.926 561.452,373.79 553.533,381.533C550.456,384.542 542.58,391.752 541.62,392.632C538.62,395.378 538.378,395.323 527.501,396.508C512.522,398.141 510.916,398.021 509.473,397.913C486.064,396.159 485.979,396.405 484.431,395.615C483.533,395.157 480.77,392.483 469.276,382.791C454.121,370.012 454.057,370.05 448.58,363.433C446.536,360.964 446.496,361.019 444.384,358.602C443.972,358.131 444.126,358.012 439.415,352.57C437.322,350.153 437.457,350.053 435.282,347.709C432.502,344.714 430.73,341.705 430.43,341.65C429.974,341.566 428.126,333.58 428.084,333.793C428.039,334.017 429.218,345.474 429.444,347.503C429.834,351.01 429.708,351 429.697,354.547C429.865,360.539 430.06,360.513 430.196,366.508C430.412,376.004 430.387,375.986 430.715,385.492C431.17,398.65 430.8,401.166 430.601,402.513C429.839,407.694 430.854,408.578 426.461,411.447C425.885,411.823 418.054,417.704 417.326,418.251C414.667,420.248 412.637,420.644 415.103,422.87C430.471,436.743 455.588,458.269 466.726,468.247C468.419,469.763 468.434,469.723 488.179,486.877C490.515,488.907 490.497,488.916 499.781,497.184C500.376,497.714 500.385,497.685 507.311,503.717C511.331,507.218 511.832,508.397 514.316,506.287C515.961,504.891 527.347,494.503 528.476,493.473C529.2,492.812 538.347,484.898 539.207,484.154C540.407,483.116 546.987,477.423 554.173,471.128C555.779,469.721 555.73,469.691 557.342,468.311C561.103,465.092 561.119,465.137 564.761,461.783C565.141,461.433 587.202,442.215 590.851,438.885C591.44,438.347 591.472,438.404 598.405,432.388C603.766,427.735 603.634,427.62 609.039,423.015C609.187,422.888 610.584,421.698 610.022,420.779C609.672,420.206 609.452,420.454 603.22,415.862C602.066,415.012 601.081,414.489 597.365,411.688C592.963,408.371 592.359,408.483 592.202,405.518C591.171,386.11 591.149,380.714 591.14,378.556C591.137,377.791 591.111,377.694 591.091,377.622C591.05,377.472 590.83,377.417 590.79,377.268C591.349,368.734 589.711,362.871 590.29,348.456C590.341,347.183 589.112,336.426 590.069,329.438ZM590.069,329.438C590.106,329.195 590.116,329.11 590.1,329.225C590.089,329.296 590.079,329.367 590.069,329.438Z"/>
                </g>
                <g transform="matrix(3.496142,0,0,3.496142,2063.643788,-478.889588)">
                    <path d="M429.697,354.547C429.708,351 429.834,351.01 429.444,347.503C429.218,345.474 428.794,342.799 428.838,342.575C428.881,342.362 429.974,341.566 430.43,341.65C430.73,341.705 432.502,344.714 435.282,347.709C437.457,350.053 437.322,350.153 439.415,352.57C444.126,358.012 443.972,358.131 444.384,358.602C446.496,361.019 446.536,360.964 448.58,363.433C454.057,370.05 454.121,370.012 469.276,382.791C480.77,392.483 483.533,395.157 484.431,395.615C485.979,396.405 486.064,396.159 509.473,397.913C510.916,398.021 512.522,398.141 527.501,396.508C538.378,395.323 538.62,395.378 541.62,392.632C542.58,391.752 550.456,384.542 553.533,381.533C561.452,373.79 561.563,373.926 562.244,373.247C566.496,369.006 569.366,366.8 575.618,357.575C578.741,352.968 582.763,347.698 586.42,342.439C588.783,339.04 588.619,338.678 589.5,338.676C590.774,338.672 590.475,339.224 590.423,340.51C589.844,354.925 591.349,368.734 590.79,377.268C590.328,377.551 589.804,377.725 589.342,378.009C589.147,378.129 585.823,381.454 585.113,382.03C583.656,383.211 583.71,383.255 567.383,397.357C560.396,403.392 560.343,403.293 553.384,409.362C544.908,416.754 544.847,416.654 539.775,420.835C538.771,421.662 538.925,421.836 527.411,431.386C524.296,433.969 523.683,432.883 521.326,431.968C520.384,431.603 511.689,428.228 509.637,427.205C509.091,426.933 509.008,427.151 502.595,424.296C502.519,424.262 485.683,417.721 484.794,417.072C482.751,415.58 481.5,413.066 472.254,402.717C468.239,398.223 468.363,398.134 464.355,393.624C464.016,393.242 464.087,393.184 460.214,388.758C456.701,384.743 456.658,384.805 453.203,380.742C448.837,375.608 448.931,375.554 444.433,370.561C443.486,369.51 433.502,358.426 432.755,357.275C432.35,356.651 431.995,355.996 431.61,355.359C431.069,354.466 431.133,354.31 430.123,354.133C429.928,354.099 429.892,354.581 429.697,354.547Z" style="fill:rgb(255,21,55);"/>
                </g>
            </g>
        </g>
    </g>
</svg>
