<?xml version="1.0" encoding="UTF-8" standalone="no"?>
<!DOCTYPE svg PUBLIC "-//W3C//DTD SVG 1.1//EN" "http://www.w3.org/Graphics/SVG/1.1/DTD/svg11.dtd">
<svg width="100%" height="100%" viewBox="0 0 472 26" version="1.1" xmlns="http://www.w3.org/2000/svg" xmlns:xlink="http://www.w3.org/1999/xlink" xml:space="preserve" xmlns:serif="http://www.serif.com/" style="fill-rule:evenodd;clip-rule:evenodd;stroke-linejoin:round;stroke-miterlimit:2;">
    <g transform="matrix(1,0,0,1,-900.619838,-851.482041)">
        <g transform="matrix(1.346855,0,0,1,0,2567.10941)">
            <g id="SamuraiFechado">
                <g transform="matrix(2.246161,0,0,1.112683,-256.49283,-1974.587771)">
                    <path d="M565.479,232.735C566.207,232.768 566.935,232.801 567.662,232.833C567.589,233.88 567.88,233.951 565.963,239.661C565.892,239.873 564.759,244.391 560.724,248.697C560.055,249.411 556.193,254.2 547.519,255.62C542.684,256.411 534.788,254.438 528.677,253.197C528.483,253.054 528.249,252.973 528.055,252.831C526.839,251.937 527.304,251.437 528.656,250.764C529.039,250.574 529.112,250.757 533.581,248.682C534.134,248.425 534.167,248.508 540.56,245.618C550.518,241.115 552.92,239.93 560.625,236.759C564.067,235.343 564.074,235.365 564.365,235.223C564.554,235.131 564.657,234.915 564.835,234.804C565.043,234.675 565.386,234.722 565.508,234.51C565.781,234.035 565.769,233.291 565.767,233.183C565.763,232.891 565.484,233.02 565.479,232.735Z" style="fill:rgb(244,237,209);"/>
                </g>
                <g transform="matrix(2.283992,0,0,1.112683,-301.21865,-1974.587771)">
                    <path d="M424.652,235.492C426.292,234.699 426.266,234.652 426.423,234.635C426.484,234.629 426.663,234.609 427.164,234.85C427.347,234.938 427.462,235.136 427.645,235.223C428.173,235.475 428.741,235.63 429.278,235.859C429.374,235.9 430.73,236.626 432.561,237.368C437.123,239.217 444.263,242.595 447.372,243.817C451.53,245.451 451.389,245.723 455.519,247.454C456.143,247.715 462.704,250.464 463.292,250.791C463.421,250.862 464.513,251.468 463.645,252.592C463.354,252.97 462.652,252.847 462.36,253.225C449.745,256.204 443.145,257.374 435.572,252.39C429.063,248.106 426.722,243.895 424.652,235.492Z" style="fill:rgb(244,239,210);"/>
                </g>
            </g>
        </g>
    </g>
</svg>
