<?xml version="1.0" encoding="UTF-8" standalone="no"?>
<!DOCTYPE svg PUBLIC "-//W3C//DTD SVG 1.1//EN" "http://www.w3.org/Graphics/SVG/1.1/DTD/svg11.dtd">
<svg width="100%" height="100%" viewBox="0 0 652 72" version="1.1" xmlns="http://www.w3.org/2000/svg" xmlns:xlink="http://www.w3.org/1999/xlink" xml:space="preserve" xmlns:serif="http://www.serif.com/" style="fill-rule:evenodd;clip-rule:evenodd;stroke-linejoin:round;stroke-miterlimit:2;">
    <g transform="matrix(1,0,0,1,-107.662384,-358.687452)">
        <g transform="matrix(1.346855,0,0,1,0,2567.10941)">
            <g id="Sobrancelhas" transform="matrix(0.74247,0,0,1,-3035.341386,-6927.818433)">
                <g id="SobrancelhaD" transform="matrix(-1,0,0,1,9060.091954,7.363882)">
                    <path d="M4212.878,4780.917C4212.878,4780.917 4211.994,4787.501 4226.37,4779.242C4240.746,4770.983 4281.915,4753.794 4292.401,4754.874C4302.887,4755.953 4398.681,4763.477 4429.544,4770.988C4460.407,4778.498 4445.631,4777.842 4454.609,4779.037C4463.587,4780.232 4471.282,4780.219 4471.282,4780.219C4471.282,4780.219 4469.517,4770.738 4470.165,4755.253C4470.812,4739.768 4463.945,4732.213 4463.945,4732.213L4459.03,4732.103C4459.03,4732.103 4461.206,4740.706 4459.939,4747.752C4458.673,4754.797 4455.206,4752.956 4452.315,4745.784C4449.424,4738.612 4441.11,4728.657 4437.463,4725.397C4433.817,4722.137 4296.676,4711.766 4287.642,4712.038C4278.609,4712.31 4232.989,4751.482 4228.486,4754.874C4223.982,4758.266 4212.878,4780.917 4212.878,4780.917Z"/>
                </g>
                <g id="SobrancelhaE" transform="matrix(1,0,0,1,-17.039855,7.363882)">
                    <path d="M4212.878,4780.917C4212.878,4780.917 4211.994,4787.501 4226.37,4779.242C4240.746,4770.983 4281.915,4753.794 4292.401,4754.874C4302.887,4755.953 4398.681,4763.477 4429.544,4770.988C4460.407,4778.498 4445.631,4777.842 4454.609,4779.037C4463.587,4780.232 4471.282,4780.219 4471.282,4780.219C4471.282,4780.219 4469.517,4770.738 4470.165,4755.253C4470.812,4739.768 4463.945,4732.213 4463.945,4732.213L4459.03,4732.103C4459.03,4732.103 4461.206,4740.706 4459.939,4747.752C4458.673,4754.797 4455.206,4752.956 4452.315,4745.784C4449.424,4738.612 4441.11,4728.657 4437.463,4725.397C4433.817,4722.137 4296.676,4711.766 4287.642,4712.038C4278.609,4712.31 4232.989,4751.482 4228.486,4754.874C4223.982,4758.266 4212.878,4780.917 4212.878,4780.917Z"/>
                </g>
            </g>
        </g>
    </g>
</svg>
