<?xml version="1.0" encoding="UTF-8" standalone="no"?>
<!DOCTYPE svg PUBLIC "-//W3C//DTD SVG 1.1//EN" "http://www.w3.org/Graphics/SVG/1.1/DTD/svg11.dtd">
<svg width="100%" height="100%" viewBox="0 0 1345 415" version="1.1" xmlns="http://www.w3.org/2000/svg" xmlns:xlink="http://www.w3.org/1999/xlink" xml:space="preserve" xmlns:serif="http://www.serif.com/" style="fill-rule:evenodd;clip-rule:evenodd;stroke-linejoin:round;stroke-miterlimit:2;">
    <g transform="matrix(1,0,0,1,-2150.619706,-4260.597534)">
        <g transform="matrix(1.290907,0,0,1,524.664825,5432.966582)">
            <g transform="matrix(0.774649,0,0,1,618.416909,-2347.857171)">
                <path d="M830.058,1590.155C847.167,1582.781 847.425,1580.523 847.636,1578.676C848.424,1571.767 828.041,1540.332 827.644,1533.207C827.38,1528.493 834.199,1514.837 854.235,1470.036C857.203,1463.399 890.97,1387.894 891.361,1387.095C900.973,1367.441 899.819,1366.96 909.236,1347.229C920.116,1324.433 926.509,1309.174 927.914,1305.822C930.68,1299.22 931.718,1299.159 934.787,1291.784C939.964,1279.343 943.32,1281.43 967.17,1271.949C973.496,1269.434 973.686,1270.033 1046.93,1242.271C1140.115,1206.949 1190.858,1190.945 1195.352,1184.816C1196.622,1183.083 1784.299,1172.46 1794.16,1176.331C1816.846,1185.236 1829.185,1194.286 1851.705,1203.77C1856.108,1205.624 1856.346,1204.974 1907.663,1224.608C1919.497,1229.136 1919.6,1228.717 1931.391,1233.494C1936.157,1235.425 1936.182,1235.179 1991.474,1256.318C1995.358,1257.803 1995.399,1257.634 2040.196,1274.42C2057.756,1281 2059.936,1279.494 2065.54,1291.628C2079.979,1322.89 2079.059,1323.243 2093.712,1354.422C2100.135,1368.089 2108.66,1387.13 2109.938,1389.984C2114.728,1400.681 2115.086,1400.475 2119.464,1411.326C2122.372,1418.534 2137.167,1451.393 2139.205,1455.838C2141.908,1461.733 2171.36,1525.972 2172.14,1529.909C2172.742,1532.948 2173.14,1534.959 2156.949,1565.523C2153.37,1572.279 2151.572,1575.371 2152.159,1578.679C2151.696,1576.065 1935.756,1487.612 1856.186,1460.113C1835.045,1452.807 1821.863,1469.609 1821.863,1469.609L1174.11,1476.844C1174.11,1476.844 1155.779,1455.842 1140.707,1461.17C1070.888,1485.851 863.271,1575.989 830.058,1590.155Z" style="fill:rgb(1,1,1);"/>
            </g>
        </g>
    </g>
</svg>
